<?xml version="1.0" encoding="utf-8"?><!DOCTYPE svg PUBLIC "-//W3C//DTD SVG 1.1//EN" "http://www.w3.org/Graphics/SVG/1.1/DTD/svg11.dtd"><svg width="780" height="440" viewBox="0 0 780 440" xmlns="http://www.w3.org/2000/svg" xmlns:xlink="http://www.w3.org/1999/xlink"><svg width="230" height="220" viewBox="0 0 230 220" id="check-site" x="365"><path fill="#3F0082" d="M91.774 46.737l-8.305-39.5s-4.28-4.584-17.446-2.334c-13.167 2.25-14.75 9.084-14.75 9.084l7 40.333 33.5-7.583z"/><path fill="#8DC63F" d="M73.254 37.698c-6.728 1.154-12.413 3.152-16.873 5.714l1.895 10.908 33.5-7.583-2.013-9.574c-5.136-.338-10.934-.422-16.508.535z"/><path opacity=".15" fill="#FFF" d="M85.858 44.737L78.723 4.954s-4.727-1.466-11.438-.25l7.24 41.45 11.333-1.417z"/><ellipse transform="rotate(170.265 75.52 50.09)" fill="#3F0082" cx="75.522" cy="50.09" rx="29.75" ry="7.501"/><path fill="none" stroke="#5D2BBC" stroke-width="8" stroke-linecap="round" stroke-miterlimit="10" d="M155.774 143.834s-9.75 8.174-26.125 4.3"/><path fill="none" stroke="#262262" stroke-width="2" stroke-miterlimit="10" d="M158.982 139.082s-6.547-3.03-6.547 2.54c0 6.23 9.606 4.09 9.606 4.09"/><ellipse opacity=".2" fill="#0090A8" cx="82.274" cy="210.596" rx="77.917" ry="6.807"/><ellipse opacity=".3" fill="#0090A8" cx="87.296" cy="210.596" rx="50.105" ry="4.377"/><path fill="none" stroke="#8252C1" stroke-width="8" stroke-linecap="round" stroke-miterlimit="10" d="M40.426 207.21s5.75-35.84 33-40.67M133.427 207.21s-10.75-35.84-38-40.67"/><path fill="none" stroke="#6133BC" stroke-width="8" stroke-linecap="round" stroke-miterlimit="10" d="M8.426 207.21s11.502-36.333 36-42.67M156.513 207.21s-10.75-35.84-38-40.67"/><path fill="#FFECB6" d="M139.59 97.082c-5.73-28.408-27.255-50.055-53.917-50.023-26.665-.034-48.188 21.614-53.917 50.022-2.846 17.997-5.754 46.01-5.635 63.22-.116 13.702 9.804 23.04 21.12 27.65 11.646 4.83 24.688 4.933 38.433 5.18 13.744-.247 26.785-.35 38.432-5.18 11.316-4.61 21.236-13.948 21.12-27.65.12-17.21-2.788-45.224-5.636-63.22z"/><linearGradient id="aa" gradientUnits="userSpaceOnUse" x1="25.118" y1="120.096" x2="144.227" y2="120.096"><stop offset="0" stop-color="#da1c5c"/><stop offset=".249" stop-color="#dd215e"/><stop offset=".543" stop-color="#e72f63"/><stop offset=".86" stop-color="#f6476c"/><stop offset="1" stop-color="#ff5471"/></linearGradient><path fill="url(#aa)" d="M138.59 97.082c-5.73-28.408-27.255-50.055-53.917-50.023-26.665-.034-48.188 21.614-53.917 50.022-2.846 17.997-5.754 46.01-5.635 63.22-.116 13.702 9.804 23.04 21.12 27.65 11.646 4.83 24.688 4.933 38.433 5.18 13.744-.247 26.785-.35 38.432-5.18 11.316-4.61 21.236-13.948 21.12-27.65.12-17.21-2.788-45.224-5.636-63.22z"/><linearGradient id="ab" gradientUnits="userSpaceOnUse" x1="25.118" y1="120.096" x2="144.227" y2="120.096"><stop offset="0" stop-color="#da1c5c"/><stop offset=".249" stop-color="#dd215e"/><stop offset=".543" stop-color="#e72f63"/><stop offset=".86" stop-color="#f6476c"/><stop offset="1" stop-color="#ff5471"/></linearGradient><path fill="url(#ab)" d="M138.59 97.082c-5.73-28.408-27.255-50.055-53.917-50.023-26.665-.034-48.188 21.614-53.917 50.022-2.846 17.997-5.754 46.01-5.635 63.22-.116 13.702 9.804 23.04 21.12 27.65 11.646 4.83 24.688 4.933 38.433 5.18 13.744-.247 26.785-.35 38.432-5.18 11.316-4.61 21.236-13.948 21.12-27.65.12-17.21-2.788-45.224-5.636-63.22z"/><path fill="#3F1D93" d="M73.326 195.545a3.988 3.988 0 0 1-2.828-1.172 3.985 3.985 0 0 1-1.142-2.34c-.108-.686-2.157-11.652-22.394-14.016-14.993-1.752-24.208-3.986-26.94-10.227-2.3-5.242 1.42-10.357 2.64-12.037a4 4 0 0 1 6.472 4.703c-1.77 2.434-1.955 3.736-1.786 4.123.533 1.216 3.91 3.548 20.543 5.49 21.06 2.46 27.092 13.534 28.707 18.183.62 1.777 1.465 4.213-.44 6.12a3.988 3.988 0 0 1-2.83 1.172z"/><path fill="none" d="M138.897 97.082c-5.73-28.408-27.254-50.055-53.916-50.023-26.664-.034-48.187 21.614-53.916 50.022-2.846 17.997-5.754 46.01-5.635 63.22-.118 13.702 9.802 23.04 21.118 27.65 11.646 4.83 24.688 4.933 38.433 5.18 13.745-.247 26.786-.35 38.433-5.18 11.316-4.61 21.236-13.948 21.12-27.65.12-17.21-2.788-45.224-5.636-63.22z"/><circle fill="#FFF" stroke="#3F0082" stroke-width="4" stroke-linecap="round" stroke-miterlimit="10" cx="194.725" cy="49.427" r="30.466"/><circle fill="#39B54A" cx="194.725" cy="49.427" r="18.769"/><circle opacity=".4" fill="#00F3FF" cx="194.725" cy="49.427" r="12.061"/><linearGradient id="ac" gradientUnits="userSpaceOnUse" x1="155.374" y1="143.383" x2="186.363" y2="143.383"><stop offset="0" stop-color="#662d91"/><stop offset=".173" stop-color="#6a2b96"/><stop offset=".377" stop-color="#7626a4"/><stop offset=".597" stop-color="#891dbc"/><stop offset=".827" stop-color="#a510dd"/><stop offset="1" stop-color="#bd05fb"/></linearGradient><path fill="url(#ac)" d="M155.374 133.947c.44 2.645.878 5.29 1.316 7.94 1.56 7.925 7.867 12.85 14.18 12.913 6.312-.064 12.62-4.988 14.177-12.914.44-2.648.876-5.295 1.316-7.94a61.526 61.526 0 0 0-30.99 0z"/><ellipse fill="#EC008C" cx="170.869" cy="134.176" rx="15.468" ry="4.604"/><path fill="#FFF" d="M156.55 133.572c0 1.78 6.41 3.22 14.32 3.22 7.907 0 14.32-1.44 14.32-3.22s-6.413-3.44-14.32-3.44c-7.91 0-14.32 1.66-14.32 3.44z"/><path fill="#3C2415" d="M157.08 134.434c1.903 1.37 7.353 2.36 13.79 2.36 6.434 0 11.884-.99 13.79-2.36-1.906-1.428-7.356-2.566-13.79-2.566-6.437 0-11.887 1.138-13.79 2.566z"/><circle fill="#FFF" cx="121.354" cy="101.639" r="16.429"/><circle fill="#0090A8" cx="122.545" cy="101.324" r="13.654"/><circle opacity=".4" fill="#00F3FF" cx="122.558" cy="101.335" r="11.599"/><circle fill="#231F20" cx="122.679" cy="101.324" r="9.793"/><path opacity=".2" fill="#27AAE1" d="M129.15 101.416c0 3.574-2.897 1.405-6.473 1.405-3.572 0-6.47 2.17-6.47-1.404a6.47 6.47 0 0 1 6.47-6.47 6.47 6.47 0 0 1 6.473 6.47z"/><path fill="#BE1E2D" d="M67.73 127.29L93.9 85.21H78.273z"/><circle fill="#FFF" cx="76.332" cy="101.639" r="16.429"/><circle fill="#FFF" cx="120.046" cy="96.295" r="2.075"/><circle fill="#0090A8" cx="77.545" cy="101.324" r="13.654"/><circle opacity=".4" fill="#00F3FF" cx="77.545" cy="101.324" r="11.78"/><circle fill="#231F20" cx="77.679" cy="101.324" r="9.793"/><path opacity=".2" fill="#27AAE1" d="M84.15 101.416c0 3.574-2.897 1.405-6.473 1.405-3.572 0-6.47 2.17-6.47-1.404a6.47 6.47 0 0 1 6.47-6.47 6.47 6.47 0 0 1 6.473 6.47z"/><circle fill="#FFF" cx="75.046" cy="96.295" r="2.075"/><circle fill="#FFF" cx="122.088" cy="70.928" r="7.177"/><circle fill="#0090A8" cx="123.572" cy="70.628" r="5.433"/><circle opacity=".4" fill="#00F3FF" cx="123.572" cy="70.628" r="4.38"/><circle fill="#231F20" cx="123.572" cy="70.628" r="3.604"/><circle fill="#FFF" cx="67.731" cy="70.928" r="7.176"/><circle fill="#0090A8" cx="69.282" cy="70.628" r="5.433"/><circle opacity=".4" fill="#00F3FF" cx="69.282" cy="70.628" r="4.714"/><circle fill="#231F20" cx="69.282" cy="70.628" r="3.638"/><path opacity=".2" fill="#27AAE1" d="M71.836 70.39c0 1.41-1.143.556-2.554.556-1.41 0-2.554.855-2.554-.555a2.555 2.555 0 0 1 5.108 0zM126.103 70.393c0 1.397-1.133.55-2.53.55s-2.53.848-2.53-.55a2.53 2.53 0 0 1 5.06 0z"/><circle fill="#FFF" cx="122.54" cy="68.625" r=".756"/><circle fill="#FFF" cx="68.241" cy="68.608" r=".763"/><path fill="#231F20" d="M108.024 123.21c-4.167-2.026-4.78-1.474-7-1.474s-3.122-.553-7.714 1.475c-4.592 2.026-12.75 8.692-17.303 4.692 0 0 3.16 7.764 18.59 3.965l6.427-.953 5.833.953c14 3.8 16.868-3.965 16.868-3.965-4.13 4-11.534-2.666-15.7-4.69z"/><circle fill="#FFF" cx="160.337" cy="140.758" r="1.375"/><circle fill="#FFF" cx="181.337" cy="140.758" r="1.375"/><circle fill="#FFF" cx="165.462" cy="141.789" r="1.375"/><path fill="#231F20" d="M29.134 160.457a3.99 3.99 0 0 0-.17-4.9l-.356-.367c-.116-.107-.226-.223-.357-.32a4 4 0 0 0-5.587.885c-.437.6-1.19 1.645-1.875 2.97 2.807 2.562 5.37 3.59 6.966 3.993.282-.605.72-1.355 1.38-2.26z"/><circle fill="#FFF" cx="176.462" cy="141.789" r="1.375"/><circle fill="#FFF" cx="170.87" cy="142.383" r="1.375"/><path fill="none" stroke="#3A2384" stroke-width="8" stroke-linecap="round" stroke-miterlimit="10" d="M110.628 157.543c.002-.002-15.22-14.88-50.032-3.002-35.17 12-43.168-7.33-32.334-15.33"/><path opacity=".1" fill="#FFF" d="M168.51 46.177c0-14.48 14.588-23.217 26.216-23.217 11.247 0 26.216 8.738 26.216 23.217 0 0-6.633 4-26.176 4s-26.257-4-26.257-4z"/><path fill="#1C75BC" d="M210.876 33.177c.266-.31.485-.558.488-.555.004.003-.245.223-.554.49-5.524 4.872-11.05 9.746-16.575 14.616-.307.27-.09.954.49 1.533.58.58 1.267.8 1.533.49 4.873-5.523 9.745-11.05 14.618-16.573z"/><path fill="#EF4136" d="M194.772 64.696c-.03.275-.052.5-.047.5.005 0-.016-.224-.045-.5-.462-4.98-.922-9.958-1.386-14.937-.027-.277.61-.5 1.43-.5s1.46.223 1.432.5c-.46 4.978-.924 9.958-1.384 14.936z"/><circle fill="#FFF" cx="194.725" cy="49.427" r="3.769"/><g fill="#3F0082"><path d="M194.124 24.522v2.67a.77.77 0 0 0 .015.208c.014.04.04.07.077.087a.56.56 0 0 0 .206.025h.344v.474h-2.103v-.474h.347a.73.73 0 0 0 .235-.023.158.158 0 0 0 .077-.077.61.61 0 0 0 .025-.22v-1.906h-.684v-.474c.195-.02.345-.04.45-.06.155-.032.32-.074.497-.128a1.8 1.8 0 0 0 .273-.105h.24zM195.987 25.93l-.494.045a1.154 1.154 0 0 1-.026-.242c0-.234.056-.438.166-.612.11-.172.28-.315.512-.43.23-.112.486-.168.768-.168.26 0 .493.05.702.148.21.098.366.226.473.382a.87.87 0 0 1 .158.493c0 .174-.037.337-.112.488-.083.17-.22.333-.406.49-.188.16-.567.412-1.137.76h.82a.91.91 0 0 0 .255-.02c.036-.015.066-.043.093-.083s.048-.11.066-.21l.02-.112h.473l-.222 1.248h-.322l-.03-.12h-2.248v-.47c.33-.216.75-.533 1.258-.953.26-.215.434-.4.52-.557a.72.72 0 0 0 .096-.36.46.46 0 0 0-.18-.366c-.12-.1-.28-.15-.48-.15a.85.85 0 0 0-.386.082.614.614 0 0 0-.256.233.595.595 0 0 0-.094.32c-.002.04.004.096.013.166z"/></g><path fill="#3F0082" d="M170.313 50.15v-.48c.313-.013.56-.043.746-.09.185-.046.34-.11.463-.19a1.06 1.06 0 0 0 .302-.29c.076-.112.13-.24.16-.385-.143.1-.278.172-.407.213a1.33 1.33 0 0 1-.415.063c-.237 0-.45-.048-.64-.146-.187-.1-.33-.23-.428-.395s-.146-.358-.146-.578c0-.362.127-.66.383-.895.256-.234.603-.35 1.04-.35.45 0 .803.12 1.057.36.3.282.447.67.447 1.162 0 .33-.05.614-.15.85s-.26.44-.473.62a2.04 2.04 0 0 1-.754.398c-.288.086-.685.13-1.187.13zm1.07-1.715c.12 0 .224-.026.314-.078.092-.052.162-.128.213-.227s.076-.212.076-.34c0-.185-.057-.336-.168-.453s-.252-.176-.42-.176c-.174 0-.316.06-.43.177s-.17.27-.17.46c0 .193.056.347.165.463.11.117.25.175.42.175zM217.438 47.78h-.505a1.807 1.807 0 0 1-.003-.092c0-.21.048-.39.143-.543.096-.152.245-.277.447-.374.203-.096.435-.144.695-.144.248 0 .47.043.667.13.197.087.345.2.44.336s.147.277.147.422c0 .114-.03.226-.092.335a.86.86 0 0 1-.244.28 1.35 1.35 0 0 1-.305.153c.12.013.23.043.326.09.096.046.18.104.25.175.07.07.124.15.16.24s.052.188.052.292a.916.916 0 0 1-.167.525c-.11.163-.274.294-.492.394-.22.1-.472.15-.76.15-.282 0-.533-.048-.753-.143s-.385-.214-.496-.36a.716.716 0 0 1-.167-.43c0-.11.04-.204.117-.282s.173-.117.284-.117c.105 0 .2.037.28.11a.548.548 0 0 1 .135.242c.046.148.09.246.127.294.04.048.1.09.188.128a.646.646 0 0 0 .566-.02.504.504 0 0 0 .215-.19.54.54 0 0 0 .068-.28c0-.2-.077-.35-.23-.443-.12-.074-.305-.11-.555-.11h-.16v-.472h.16c.198 0 .34-.015.426-.044a.402.402 0 0 0 .2-.147.38.38 0 0 0-.048-.505c-.103-.1-.26-.15-.47-.15-.14 0-.254.022-.345.064a.5.5 0 0 0-.21.18.632.632 0 0 0-.092.305zM195.73 71.01v.48c-.312.01-.56.04-.747.087s-.34.11-.465.193-.225.178-.302.29c-.077.11-.13.238-.16.38a1.6 1.6 0 0 1 .407-.21c.128-.04.267-.062.416-.062.236 0 .45.05.636.146.188.098.33.23.43.396s.146.358.146.576c0 .363-.128.662-.384.896-.257.234-.603.352-1.04.352-.45 0-.803-.12-1.057-.36-.296-.28-.445-.668-.445-1.16 0-.334.05-.618.15-.852.1-.233.257-.44.472-.62.215-.18.467-.313.756-.397.29-.087.686-.13 1.186-.135zm-1.073 1.712a.61.61 0 0 0-.314.08.546.546 0 0 0-.213.227.735.735 0 0 0-.075.337c0 .186.056.337.167.455.11.118.252.177.422.177.174 0 .317-.06.43-.178a.64.64 0 0 0 .17-.462.648.648 0 0 0-.164-.462.553.553 0 0 0-.423-.176z"/></svg><svg width="185" height="200" viewBox="0 0 185 200" id="out-link" y="240"><ellipse opacity=".2" fill="#0090A8" cx="103.175" cy="183.026" rx="77.916" ry="6.807"/><path fill="none" stroke="#3B3B9B" stroke-width="8" stroke-linecap="round" stroke-miterlimit="10" d="M29.938 179.64s10.75-35.84 38-40.67"/><path opacity=".3" fill="#FFF" d="M58.682 64.772l-15.975 3 .366-8h15.61z"/><path fill="none" stroke="#2B2B89" stroke-width="8" stroke-linecap="round" stroke-miterlimit="10" d="M19.676 119.265s27.75 10.173 44.125 6.298"/><ellipse opacity=".4" fill="#0090A8" cx="98.154" cy="183.026" rx="50.105" ry="4.377"/><path fill="none" stroke="#4C4CC1" stroke-width="8" stroke-linecap="round" stroke-miterlimit="10" d="M145.022 179.64s-5.75-35.84-33-40.67"/><path fill="none" stroke="#3B3B9B" stroke-width="8" stroke-linecap="round" stroke-miterlimit="10" d="M177.022 179.64s-11.502-36.333-36-42.67"/><path fill="#B3FFFF" d="M45.862 69.512c5.73-28.408 27.254-50.055 53.915-50.023 26.664-.034 48.188 21.614 53.916 50.022 2.848 17.996 5.756 46.01 5.635 63.22.117 13.702-9.803 23.04-21.117 27.65-11.645 4.83-24.688 4.933-38.433 5.18-13.743-.247-26.784-.35-38.43-5.18-11.316-4.61-21.236-13.948-21.12-27.65-.12-17.21 2.787-45.224 5.635-63.22z"/><linearGradient id="ba" gradientUnits="userSpaceOnUse" x1="43.593" y1="92.525" x2="162.701" y2="92.525" gradientTransform="matrix(-1 0 0 1 203.924 0)"><stop offset=".016" stop-color="#4e10cb"/><stop offset="1" stop-color="#3093ff"/></linearGradient><path fill="url(#ba)" d="M46.862 69.512c5.73-28.408 27.254-50.055 53.915-50.023 26.664-.034 48.188 21.614 53.916 50.022 2.848 17.996 5.756 46.01 5.635 63.22.117 13.702-9.803 23.04-21.117 27.65-11.645 4.83-24.688 4.933-38.433 5.18-13.744-.247-26.784-.35-38.43-5.18-11.316-4.61-21.236-13.948-21.12-27.65-.12-17.21 2.787-45.224 5.635-63.22z"/><path fill="none" d="M46.553 69.512c5.73-28.408 27.254-50.055 53.915-50.023 26.664-.034 48.188 21.614 53.916 50.022 2.848 17.996 5.756 46.01 5.635 63.22.116 13.702-9.804 23.04-21.118 27.65-11.646 4.83-24.69 4.933-38.434 5.18-13.743-.247-26.784-.35-38.43-5.18-11.316-4.61-21.236-13.948-21.12-27.65-.12-17.21 2.788-45.224 5.635-63.22z"/><circle fill="#FFF" cx="64.095" cy="84.069" r="16.429"/><circle fill="#39B54A" cx="63.947" cy="84.754" r="13.654"/><circle opacity=".5" fill="#2CF23F" cx="63.892" cy="84.766" r="11.599"/><circle fill="#231F20" cx="63.771" cy="84.754" r="9.794"/><path opacity=".2" fill="#27AAE1" d="M57.3 84.846c0 3.574 2.897 1.405 6.472 1.405 3.572 0 6.47 2.17 6.47-1.404a6.472 6.472 0 0 0-12.943 0z"/><circle fill="#FFF" cx="109.117" cy="84.069" r="16.429"/><circle fill="#FFF" cx="66.404" cy="79.726" r="2.075"/><circle fill="#39B54A" cx="108.946" cy="84.754" r="13.654"/><path opacity=".5" fill="#2CF23F" d="M97.166 84.754c0 6.68 5.417 11.78 11.78 11.78 6.506 0 11.78-5.272 11.78-11.78 0-6.507-5.274-11.78-11.78-11.78-6.508 0-11.78 5.273-11.78 11.78z"/><circle fill="#231F20" cx="108.812" cy="84.754" r="9.793"/><path opacity=".2" fill="#27AAE1" d="M102.34 84.846c0 3.574 2.898 1.405 6.474 1.405 3.572 0 6.47 2.17 6.47-1.404a6.47 6.47 0 0 0-6.47-6.47 6.47 6.47 0 0 0-6.473 6.47z"/><circle fill="#FFF" cx="111.445" cy="79.726" r="2.075"/><circle fill="#FFF" cx="63.363" cy="58.358" r="7.177"/><circle fill="#FFF" cx="117.719" cy="58.358" r="7.177"/><circle fill="#39B54A" cx="62.878" cy="59.059" r="5.433"/><circle opacity=".5" fill="#2CF23F" cx="62.878" cy="59.059" r="4.38"/><circle fill="#231F20" cx="62.878" cy="59.059" r="3.604"/><circle fill="#39B54A" cx="117.167" cy="59.059" r="5.433"/><circle opacity=".5" fill="#2CF23F" cx="117.167" cy="59.059" r="4.714"/><circle fill="#231F20" cx="117.167" cy="59.059" r="3.637"/><path opacity=".2" fill="#27AAE1" d="M114.612 58.82c0 1.41 1.145.556 2.555.556s2.555.855 2.554-.555a2.554 2.554 0 1 0-5.108 0zM60.348 58.823c0 1.397 1.133.55 2.53.55 1.397 0 2.53.848 2.53-.55a2.53 2.53 0 0 0-5.06 0z"/><circle fill="#FFF" cx="63.911" cy="57.056" r=".756"/><circle fill="#FFF" cx="118.209" cy="57.038" r=".763"/><path opacity=".1" fill="#F1F2F2" d="M136.087 59.772V104.5H93.8l-3.062-9.464c-1-3.125-2.127-5.446-4.75-5.446-2.624 0-3.664 2.485-4.75 5.446l-3.062 9.464H43.032l2.04-44.728h91.015z"/><linearGradient id="bb" gradientUnits="userSpaceOnUse" x1="116.365" y1="59.773" x2="116.365" y2="104.499" gradientTransform="matrix(-1 0 0 1 203.924 0)"><stop offset="0" stop-color="#FFF"/><stop offset="1" stop-color="#FFF" stop-opacity="0"/></linearGradient><path opacity=".5" fill="url(#bb)" d="M134.087 59.772V104.5H91.8l-3.062-9.464c-1-3.125-2.127-5.446-4.75-5.446s-3.663 2.485-4.75 5.446l-3.062 9.464H41.032l1.02-22.363 1.022-22.364h91.013z"/><linearGradient id="bc" gradientUnits="userSpaceOnUse" x1="116.364" y1="104.501" x2="116.364" y2="59.773" gradientTransform="matrix(-1 0 0 1 203.924 0)"><stop offset="0" stop-color="#0FF" stop-opacity=".7"/><stop offset=".366" stop-color="#0FF" stop-opacity="0"/></linearGradient><path fill="url(#bc)" d="M134.087 59.772V104.5H91.8l-3.062-9.464c-1-3.125-2.127-5.446-4.75-5.446s-3.663 2.485-4.75 5.446l-3.062 9.464H41.032l1.02-22.363 1.022-22.364h91.013z"/><path opacity=".2" fill="#262262" d="M42.623 104.5l1.97 2.5h35.932s3.308-15.308 6.562-15.695c0 0-1.065-1.447-2.082-1.58 0 0-1.547.275-2.766 2.9S78.175 104.5 78.175 104.5H42.623zM91.8 104.5l.888 2.5h46.237V61.918l-2.838-2.145v44.81z"/><path opacity=".2" fill="#FFF" d="M134.087 59.772H43.073l-.907 22.878h91.92z"/><path opacity=".3" fill="#FFF" d="M153.39 64.102l-19.303 3.67v-8h19.303z"/><path opacity=".2" fill="#262262" d="M138.925 69.313l14.91-3.55s-.332-1.66-.445-1.66c-.29 0-14.465 2.757-14.465 2.757v2.453z"/><path opacity=".8" fill="#31E7FF" d="M146.845 48.357l1.396-11.725s.78-20.02-31.073-27.758C84.745 1 74 18.316 74 18.316l-3.763 11.097S75.05 22.59 103.29 27.5c20.723 3.604 43.555 20.857 43.555 20.857z"/><path fill="#8DF7FF" d="M146.845 48.357l.2-1.69c-2.354-2.038-25.927-21.268-49.88-22.75C73.216 22.435 71.11 26.7 71.11 26.7l-.872 2.713s4.77-4.745 26.514-2.9c25.13 2.13 50.093 21.844 50.093 21.844z"/><radialGradient id="bd" cx="121.362" cy="477.633" r="33.941" gradientTransform="matrix(-1.5413 0 0 .2598 266.998 59.88)" gradientUnits="userSpaceOnUse"><stop offset=".016" stop-color="#00ff10"/><stop offset=".64" stop-color="#00ff10" stop-opacity=".3"/><stop offset="1" stop-color="#00ff10" stop-opacity="0"/></radialGradient><ellipse fill="url(#bd)" cx="79.943" cy="183.972" rx="72.85" ry="10.861"/><ellipse fill="#0090A8" cx="78.985" cy="181.4" rx="27.388" ry="8.434"/><path opacity=".4" fill="#F1F2F2" d="M71.28 141.813V117.46a2.108 2.108 0 0 1 .408-4.175H86.45a2.11 2.11 0 0 1 2.11 2.108c0 1.064-.79 1.937-1.816 2.08v24.34l19.682 38.25c0 5.113-12.273 9.26-27.415 9.26-15.14 0-27.413-4.147-27.413-9.26l19.683-38.25z"/><path fill="#FFF200" d="M87.54 146.875l17.135 32.695s-4.026 7.96-25.664 7.96c-21.637 0-25.407-7.123-25.407-7.123l16.75-33.532H87.54z"/><linearGradient id="be" gradientUnits="userSpaceOnUse" x1="124.785" y1="187.53" x2="124.785" y2="146.876" gradientTransform="matrix(-1 0 0 1 203.924 0)"><stop offset="0" stop-color="#0F0"/><stop offset="1" stop-color="#0F0" stop-opacity="0"/></linearGradient><path opacity=".9" fill="url(#be)" d="M87.54 146.875l17.135 32.695s-4.026 7.96-25.664 7.96c-21.637 0-25.407-7.123-25.407-7.123l16.75-33.532H87.54z"/><ellipse fill="#FFFF83" cx="78.956" cy="146.955" rx="8.719" ry="1.545"/><path opacity=".2" fill="#F1F2F2" d="M71.28 141.813V117.46a2.108 2.108 0 0 1 .408-4.175h4.485v29.944l-13.378 44.296c-6.79-1.685-11.198-4.4-11.198-7.464l19.683-38.25z"/><path opacity=".5" fill="#F1F2F2" d="M88.53 115.402a2.12 2.12 0 0 0-2.12-2.117H71.718c-1.17 0-2.12.95-2.12 2.117"/><circle fill="#FFF" cx="85.717" cy="160.264" r="1.958"/><circle fill="#FFF" cx="73.769" cy="153.281" r=".781"/><circle fill="#FFF" cx="83.903" cy="148.346" r=".915"/><path fill="none" stroke="#2B2B89" stroke-width="8" stroke-linecap="round" stroke-miterlimit="10" d="M155.793 118.023s8.132.696 8.132 12.42-11.132 18.057-33.38 11.527c-24.582-7.215-32.642 3.19-32.642 3.19"/><path opacity=".2" fill="#39B54A" d="M53.603 180.39c0 .86 5.885 7.14 25.522 7.14 14.095 0 25.522-4.3 25.522-7.14 0-2.838-11.427-5.14-25.522-5.14-14.095 0-25.522 2.302-25.522 5.14z"/><circle fill="#FFF" cx="77.321" cy="135.152" r="1.818"/><circle fill="#FFF" cx="82.758" cy="123.168" r="1"/><g opacity=".8" fill="#FFF"><path opacity=".4" d="M16.96 95.557l-2.796.75-.367-1.37 2.797-.75zM17.735 98.458l-2.798.752-.367-1.368 2.797-.752zM18.52 101.352l-2.798.75-.367-1.368 2.797-.75zM19.293 104.246l-2.796.75-.367-1.37 2.796-.75zM20.077 107.148l-2.797.75-.368-1.367 2.797-.75zM20.852 110.042l-2.795.752-.37-1.37 2.797-.75zM21.626 112.938l-2.796.75-.368-1.37 2.797-.75zM22.41 115.838l-2.798.75-.368-1.367 2.797-.75zM23.184 118.734l-2.795.75-.37-1.37 2.797-.75zM23.963 121.63l-2.796.752-.368-1.37 2.795-.75z"/></g><path opacity=".4" fill="#F1F2F2" d="M4.885 91.746a1.477 1.477 0 0 1 1.043-1.81l10-2.687a1.475 1.475 0 0 1 .96 2.783l12.348 45.98h-.003c.644 2.513-1.145 5.16-4.02 5.934-2.873.77-5.747-.626-6.45-3.12h-.002L6.413 92.837a1.478 1.478 0 0 1-1.528-1.09z"/><linearGradient id="bf" gradientUnits="userSpaceOnUse" x1="-144.907" y1="182.387" x2="-144.907" y2="153.772" gradientTransform="rotate(164.972 -81.297 -9.64)"><stop offset=".011" stop-color="#ff21ff"/><stop offset="1" stop-color="#ee2a7b"/></linearGradient><path fill="url(#bf)" d="M21.92 114.023l5.843 21.766a4.01 4.01 0 0 1-7.747 2.08l-6.33-23.776 8.233-.07z"/><path opacity=".5" fill="#F1F2F2" d="M17.74 88.294s-.492-1.398-1.812-1.044l-10 2.686c-1.116.3-1.152 1.405-1.043 1.81l12.856-3.452z"/><ellipse fill="#FF61A9" cx="17.802" cy="114.041" rx="4.123" ry=".419"/><path opacity=".2" fill="#F1F2F2" d="M5.928 89.936l4.154-1.116 14.305 53.274c-2.58.33-4.99-1.01-5.625-3.266h-.002L6.413 92.838a1.476 1.476 0 0 1-1.527-1.092 1.475 1.475 0 0 1 1.042-1.81z"/><path fill="none" stroke="#2A2A7F" stroke-width="8" stroke-linecap="round" stroke-miterlimit="10" d="M135.087 54.772s8.91 13.728 21.748 22.478c12.842 8.75 12.424 19.837-1.91 28.65"/></svg><svg width="185" height="180" viewBox="0 0 185 180" id="outlink-logo" x="595"><path fill="#71FFFF" d="M145.588 57.655c-3.426-16.992-15.665-37.51-33.97-44.496l9 138.28c3.25-.705 6.417-1.642 9.485-2.915 11.316-4.61 21.236-13.95 21.12-27.652.12-17.21-2.79-45.222-5.635-63.218z"/><ellipse opacity=".2" fill="#0090A8" cx="83.531" cy="169.872" rx="81.75" ry="7.378"/><ellipse opacity=".4" fill="#0090A8" cx="87.531" cy="169.872" rx="54.487" ry="4.916"/><path fill="none" stroke="#0090A8" stroke-width="8" stroke-linecap="round" stroke-miterlimit="10" d="M36.36 167.64s15.75-35.84 43-40.67M139.36 167.64s-10.75-35.84-38-40.67"/><path fill="none" stroke="#006B84" stroke-width="8" stroke-linecap="round" stroke-miterlimit="10" d="M4.36 167.64s21.503-36.333 46-42.67"/><linearGradient id="ca" gradientUnits="userSpaceOnUse" x1="31.36" y1="77.778" x2="150.471" y2="77.778"><stop offset="0" stop-color="#0090a8"/><stop offset=".298" stop-color="#0193aa"/><stop offset=".475" stop-color="#069baf"/><stop offset=".622" stop-color="#0ea9b9"/><stop offset=".751" stop-color="#1abdc6"/><stop offset=".869" stop-color="#29d8d7"/><stop offset=".977" stop-color="#3bf7ec"/><stop offset="1" stop-color="#3ffff1"/></linearGradient><path fill="url(#ca)" d="M144.832 57.677c-4.078-20.226-16.168-37.016-32.416-45.004 1.91-1.697 2.244-5.02 2.244-5.02-1.793 1.186-4.047 1.052-4.047 1.052 4.297-2.5 4.938-6.875 4.938-6.875-5.276 4.833-25.578 5.826-25.578 5.826l.075.017c-26.26.434-47.383 21.904-53.05 50.004-2.846 17.996-5.754 46.01-5.634 63.22-.117 13.7 9.803 23.04 21.12 27.65 11.645 4.83 24.687 4.932 38.43 5.18 13.746-.248 26.79-.35 38.435-5.18 11.316-4.61 21.236-13.95 21.12-27.65.118-17.21-2.79-45.224-5.636-63.22z"/><path opacity=".5" fill="#0090A8" d="M144.832 57.677c-4.078-20.226-16.168-37.016-32.416-45.004 1.91-1.697 2.244-5.02 2.244-5.02-1.793 1.186-4.047 1.052-4.047 1.052 4.297-2.5 4.938-6.875 4.938-6.875-5.276 4.833-25.578 5.826-25.578 5.826l.075.017c-26.26.434-47.383 21.904-53.05 50.004-2.846 17.996-5.754 46.01-5.634 63.22-.117 13.7 9.803 23.04 21.12 27.65 11.645 4.83 24.687 4.932 38.43 5.18 13.746-.248 26.79-.35 38.435-5.18 11.316-4.61 21.236-13.95 21.12-27.65.118-17.21-2.79-45.224-5.636-63.22z"/><path fill="none" stroke="#0090A8" stroke-width="8" stroke-linecap="round" stroke-miterlimit="10" d="M162.445 167.64s-10.75-35.84-38-40.67"/><circle fill="#FFF" cx="125.83" cy="64.069" r="16.429"/><circle fill="#0090A8" cx="127.9" cy="62.875" r="12.774"/><circle opacity=".4" fill="#00F3FF" cx="127.9" cy="62.875" r="10.337"/><circle fill="#231F20" cx="128.025" cy="62.875" r="9.163"/><path opacity=".2" fill="#0FF" d="M134.08 62.96c0 3.345-2.71 1.316-6.056 1.316-3.343 0-6.055 2.03-6.054-1.315a6.055 6.055 0 1 1 12.11 0z"/><circle fill="#FFF" cx="80.807" cy="64.069" r="16.429"/><circle fill="#39B54A" cx="83.577" cy="63.449" r="12.225"/><circle opacity=".5" fill="#2CF23F" cx="83.567" cy="63.438" r="10.152"/><circle fill="#231F20" cx="83.567" cy="63.438" r="9.034"/><path opacity=".2" fill="#0FF" d="M90.038 62.96c0 3.345-2.71 1.316-6.056 1.316-3.343 0-6.055 2.03-6.054-1.315a6.055 6.055 0 1 1 12.11 0z"/><circle fill="#FFF" cx="125.562" cy="58.17" r="1.941"/><g fill="#006B84"><circle cx="63.848" cy="81.659" r="2.125"/><circle cx="58.689" cy="74.659" r="3.12"/><circle cx="57.063" cy="81.708" r="1.493"/></g><path fill="none" stroke="#004D6B" stroke-width="8" stroke-linecap="round" stroke-miterlimit="10" d="M87.26 138.975c.002-.002-9.664 8.33-33.9 5.5-20.358-2.38-28.872-15.834-21.528-25.94"/><path opacity=".4" d="M33.208 126.334s-4.876-.95-7.313-4.867c0 0 .327-1.772 1.466-2.932l6.39 5.09s-.583 1.375-.542 2.71z"/><path fill="#BCBEC0" d="M104.54 94.975l-3.147 1.225-3.887-9.987 3.146-1.224z"/><circle opacity=".4" fill="none" stroke="#2B3990" stroke-width="4" stroke-miterlimit="10" cx="91.664" cy="66.542" r="16.976"/><circle fill="none" stroke="#231F20" stroke-width="4" stroke-miterlimit="10" cx="91.664" cy="66.542" r="19.104"/><path fill="#231F20" d="M113.672 111.64a4.162 4.162 0 0 1-2.37 5.384 4.162 4.162 0 0 1-5.384-2.37l-7.27-18.69a4.162 4.162 0 0 1 2.368-5.385c2.14-.834 4.55.228 5.385 2.366l7.272 18.693z"/><path fill="none" stroke="#004D6B" stroke-width="8" stroke-linecap="round" stroke-miterlimit="10" d="M112.563 102.973c0-.002-19.305 19-56.033 20.998-31.956 1.737-33.167-16.33-22.333-24.33"/><path fill="#ED1C24" d="M67.946 109.274c-.78-.778-3.077.255-5.13 2.31-2.056 2.055-3.09 4.352-2.31 5.13.03.032.08.042.115.068l-.022.024 3.885 3.885 7.44-7.44-3.885-3.884-.024.023c-.026-.036-.036-.083-.068-.116z"/><path fill="#ED1C24" d="M67.946 109.274c-.78-.778-3.077.255-5.13 2.31-2.056 2.055-3.09 4.352-2.31 5.13.03.032.08.042.115.068l-.022.024 3.885 3.885 7.44-7.44-3.885-3.884-.024.023c-.026-.036-.036-.083-.068-.116z"/><path fill="#ED1C24" d="M67.946 109.274c-.78-.778-3.077.255-5.13 2.31-2.056 2.055-3.09 4.352-2.31 5.13.03.032.08.042.115.068l-.022.024 3.885 3.885 7.44-7.44-3.885-3.884-.024.023c-.026-.036-.036-.083-.068-.116z"/><path fill="#F1F2F2" d="M72.05 113.38c-.78-.78-3.076.254-5.13 2.308-2.054 2.055-3.088 4.353-2.31 5.132.032.03.08.042.116.067l-.024.024 3.885 3.886 7.44-7.44-3.885-3.885-.024.025c-.025-.036-.035-.085-.067-.116z"/><path fill="#FC0" d="M75.13 116.458c-.78-.78-3.077.254-5.13 2.31-2.055 2.055-3.09 4.352-2.31 5.13.03.032.08.042.115.068l-.024.024 24.41 24.41 7.44-7.44-24.408-24.41-.024.024c-.027-.036-.036-.084-.068-.116z"/><path opacity=".5" fill="#FFF" d="M63.83 110.676l33.043 33.04 2.758-2.757-31.592-31.594-.024.023c-.026-.036-.036-.084-.068-.116-.652-.652-2.368-.022-4.115 1.402z"/><path fill="none" stroke="#004D6B" stroke-width="8" stroke-linecap="round" stroke-miterlimit="10" d="M87.26 138.975c.002-.002-9.664 8.33-33.9 5.5"/><path fill="#FFF" d="M136.987 169.724a192.14 192.14 0 0 1-57.432-2.206c4.837-21.303 9.7-43.792 14.58-65.47 19.12 2.146 38.482 3.41 57.436-.206-4.838 23.148-9.702 45.11-14.583 67.882z"/><path opacity=".4" fill="#2F2F89" d="M135.438 167.313a178.3 178.3 0 0 1-53.28-2.046c4.487-19.764 9-40.627 13.526-60.738 17.737 1.99 35.7 3.163 53.283-.19-4.488 21.474-9 41.847-13.53 62.973z"/><path fill="#2F2F89" d="M136.647 171.64H81.593l16.852-66.675H153.5z"/><path fill="#FC0" d="M115.75 104.38c-.008.026-.018.052-.024.08-1.006 3.98 1.404 7.206 5.385 7.206h6.335c3.98 0 8.025-3.227 9.03-7.207.008-.028.01-.054.017-.08H115.75z"/><circle fill="#FFF" cx="126.563" cy="33.358" r="7.177"/><circle fill="#39B54A" cx="127.22" cy="34.059" r="5.433"/><circle opacity=".5" fill="#2CF23F" cx="127.22" cy="34.059" r="4.558"/><circle fill="#231F20" cx="127.22" cy="34.059" r="4.246"/><circle fill="#FFF" cx="72.207" cy="33.358" r="7.177"/><path opacity=".4" fill="#FFF" d="M102.307 55.887c5.894 5.894 5.894 15.45 0 21.343-5.895 5.894-15.45 5.894-21.343 0"/><path opacity=".3" d="M146.367 133.184c-3.922.032-8.438-2.277-10.078-3.345-1.26-.82-3.838-.52-5.305 1.493-.726 1.16-.676 4.13.94 5.212 1.176.68 6.308 3.927 12.447 4.53l1.995-7.89z"/><path fill="#006B84" d="M160.095 116.475c-1.274-3.754-3.79-7.044-7.112-9.463l-1.15 4.555c.085 2.174.144 4.27.167 6.25.2.403.38.813.52 1.232.534 1.57.882 3.978-.493 6.524-1.16 2.15-2.63 3.404-4.49 3.832-4.297.98-10.103-2.317-11.98-3.672-1.218-.88-3.807-.703-5.37 1.236-.78 1.123-.874 4.092.69 5.25 1.312.847 7.666 5.36 15.004 5.36a15.42 15.42 0 0 0 3.443-.378c4.12-.944 7.49-3.652 9.745-7.83 2.14-3.966 2.505-8.546 1.027-12.897z"/><path opacity=".4" d="M155.074 108.764l-2.617.328-.626 2.475c.082 2.055.137 4.032.162 5.914.618-1.047 3.258-2.98 7.016-3.545-1.32-2.53-2.845-4.14-3.934-5.17z"/><path fill="#004D6B" d="M180.774 68.368a4 4 0 0 0-5.047 2.557c-7.535 23.01-16.604 31-22.884 33.648-.357.15-.703.27-1.05.392h1.706l-1.674 6.617c.022.56.05 1.138.068 1.687a25.202 25.202 0 0 0 3.766-1.204c11.497-4.69 20.807-17.693 27.67-38.65a4 4 0 0 0-2.556-5.048z"/><circle fill="#006B84" cx="143.333" cy="84.083" r="1.333"/><circle fill="#006B84" cx="142.079" cy="78.337" r="1.08"/><circle fill="#006B84" cx="116.771" cy="25.551" r="1.19"/><circle fill="#006B84" cx="60.738" cy="47.433" r="2.05"/><circle fill="#006B84" cx="137.741" cy="82.652" r="1.343"/><circle fill="#39B54A" cx="72.93" cy="34.059" r="5.433"/><circle opacity=".5" fill="#2CF23F" cx="72.93" cy="34.059" r="4.558"/><circle fill="#231F20" cx="72.93" cy="34.059" r="4.072"/><path opacity=".2" fill="#0FF" d="M75.79 33.793c0 1.58-1.28.62-2.86.62-1.58 0-2.86.96-2.86-.62a2.86 2.86 0 0 1 5.72 0zM130.2 33.782c0 1.646-1.334.647-2.98.647s-2.98 1-2.98-.648a2.982 2.982 0 0 1 5.96 0z"/><circle fill="#FFF" cx="80.957" cy="58.458" r="2.056"/><circle fill="#FFF" cx="126.003" cy="31.7" r=".891"/><circle fill="#FFF" cx="71.763" cy="31.796" r=".854"/></svg><svg width="158" height="186" viewBox="0 0 158 186" id="pay-free" x="350" y="240"><path fill="none" stroke="#007A3D" stroke-width="8" stroke-linecap="round" stroke-miterlimit="10" d="M5.418 111.125s9.75 8.172 26.125 4.297"/><ellipse opacity=".2" fill="#0090A8" cx="78.917" cy="177.887" rx="77.917" ry="6.807"/><ellipse opacity=".4" fill="#0090A8" cx="73.896" cy="177.887" rx="50.105" ry="4.377"/><ellipse opacity=".4" fill="#1C75BC" cx="53.542" cy="177.164" rx="26.625" ry="7.529"/><path fill="none" stroke="#00A576" stroke-width="8" stroke-linecap="round" stroke-miterlimit="10" d="M120.765 174.5s-5.75-35.84-33-40.67M27.766 174.5s10.75-35.84 38-40.67"/><path fill="none" stroke="#007A3D" stroke-width="8" stroke-linecap="round" stroke-miterlimit="10" d="M152.765 174.5s-11.502-36.334-36-42.67M4.68 174.5s10.75-35.84 38-40.67"/><linearGradient id="da" gradientUnits="userSpaceOnUse" x1="21.427" y1="87.385" x2="140.535" y2="87.385" gradientTransform="matrix(-1 0 0 1 157.5 0)"><stop offset="0" stop-color="#009500"/><stop offset=".687" stop-color="#0C0"/><stop offset="1" stop-color="#00e700"/></linearGradient><path fill="url(#da)" d="M22.604 64.372c5.73-28.408 27.254-50.055 53.915-50.023 26.663-.034 48.187 21.614 53.915 50.022 2.848 17.996 5.756 46.01 5.635 63.218.117 13.703-9.803 23.04-21.117 27.652-11.646 4.83-24.69 4.932-38.434 5.18-13.745-.248-26.785-.35-38.432-5.18-11.316-4.61-21.236-13.95-21.12-27.652-.12-17.21 2.788-45.222 5.636-63.218z"/><path fill="#006838" d="M87.864 162.834a3.99 3.99 0 0 0 2.83-1.172 3.986 3.986 0 0 0 1.14-2.338c.108-.686 2.16-11.654 22.396-14.018 14.992-1.752 24.207-3.986 26.94-10.225 2.298-5.243-1.42-10.356-2.64-12.038a3.997 3.997 0 0 0-5.588-.883 3.998 3.998 0 0 0-.885 5.585c1.77 2.436 1.955 3.738 1.785 4.125-.533 1.217-3.91 3.547-20.542 5.49-21.06 2.46-27.09 13.535-28.706 18.182-.62 1.777-1.465 4.213.44 6.12a3.99 3.99 0 0 0 2.83 1.172z"/><circle fill="#FFF" cx="39.837" cy="75.929" r="16.429"/><circle fill="#FFF" cx="84.859" cy="75.929" r="16.429"/><circle fill="#0090A8" cx="39.334" cy="76.301" r="14.342"/><circle opacity=".4" fill="#00F3FF" cx="39.32" cy="76.314" r="12.183"/><circle fill="#231F20" cx="39.193" cy="76.301" r="10.287"/><path opacity=".2" fill="#27AAE1" d="M32.396 76.398c0 3.754 3.045 1.476 6.8 1.476 3.75 0 6.796 2.278 6.796-1.476a6.8 6.8 0 0 0-13.596 0z"/><circle fill="#FFF" cx="41.959" cy="71.02" r="2.18"/><circle fill="#0090A8" cx="84.727" cy="76.434" r="14.342"/><circle opacity=".4" fill="#00F3FF" cx="84.713" cy="76.447" r="12.183"/><circle fill="#231F20" cx="84.586" cy="76.434" r="10.287"/><path opacity=".2" fill="#27AAE1" d="M77.788 76.53c0 3.755 3.045 1.477 6.8 1.477 3.75 0 6.796 2.278 6.796-1.476a6.8 6.8 0 1 0-13.596 0z"/><circle fill="#FFF" cx="87.352" cy="71.153" r="2.18"/><circle fill="#FFF" cx="36.104" cy="45.218" r="7.177"/><circle fill="#FFF" cx="93.461" cy="45.218" r="7.177"/><circle fill="#0090A8" cx="35.934" cy="45.232" r="5.747"/><circle opacity=".4" fill="#00F3FF" cx="35.934" cy="45.232" r="4.633"/><circle fill="#231F20" cx="35.934" cy="45.232" r="3.813"/><path opacity=".2" fill="#27AAE1" d="M33.258 44.983c0 1.48 1.198.582 2.675.582 1.48 0 2.678.896 2.678-.582a2.677 2.677 0 0 0-5.352 0z"/><path fill="#FFF" d="M37.825 43.114a.8.8 0 1 1-1.6.003.8.8 0 0 1 1.6-.003z"/><circle fill="#0090A8" cx="93.322" cy="45.232" r="5.747"/><circle opacity=".4" fill="#00F3FF" cx="93.321" cy="45.232" r="4.633"/><circle fill="#231F20" cx="93.321" cy="45.232" r="3.813"/><path opacity=".2" fill="#27AAE1" d="M90.646 44.983c0 1.48 1.198.582 2.675.582 1.48 0 2.68.896 2.68-.582a2.677 2.677 0 0 0-5.354 0z"/><path fill="#FFF" d="M95.213 43.114a.8.8 0 1 1-1.6.003.8.8 0 0 1 1.6-.003z"/><path fill="#00471E" d="M132.058 127.746a3.99 3.99 0 0 1 .17-4.9l.355-.365c.117-.108.227-.224.36-.32a3.997 3.997 0 0 1 5.586.884c.436.602 1.19 1.645 1.875 2.97-2.808 2.564-5.37 3.59-6.967 3.993-.283-.605-.72-1.353-1.38-2.26z"/><ellipse transform="rotate(-147.538 103.09 7.16)" fill="#2B3990" cx="103.083" cy="7.159" rx="2.465" ry="1.278"/><path fill="#EBFDFF" d="M93.306 25.643l.408.152 22.752 8.448s2.648-23.348-23.16-31.693c-19.587-6.334-31.04 10.27-31.04 10.27"/><path fill="#27AAE1" d="M93.306 2.55c3.867 1.25 7.084 2.842 9.777 4.638-5.08 3.767-8.61 10.687-9.04 18.73l-.33-.123-.407-.152-31.04-12.824S73.72-3.785 93.306 2.55z"/><path fill="#FFF" d="M36.243 12.644c.53-.84 1.3-1.42 2.074-1.854.784-.436 1.602-.74 2.423-.975 1.656-.41 3.165-.813 4.81-1.13l2.442-.468 2.453-.352c.815-.132 1.64-.2 2.465-.267.825-.062 1.647-.168 2.478-.172l2.486-.066 2.49.07c1.657.115 3.32.24 4.96.536.826.11 1.64.288 2.452.476.817.167 1.627.362 2.424.61.8.228 1.606.447 2.386.744.782.285 1.58.53 2.34.874 1.547.62 3.048 1.343 4.52 2.112.726.406 1.462.795 2.175 1.218l2.116 1.312 2.053 1.4 1.99 1.45c.657.47 1.312.987 1.965 1.5.66.504 1.302 1.03 1.933 1.57.643.523 1.254 1.103 1.873 1.67.61.6 1.25 1.15 1.347 2.296l.088 1.024-.72-.31c-1.96-.84-4.038-1.516-6.118-2.108a83.39 83.39 0 0 0-6.33-1.508 119.402 119.402 0 0 0-3.205-.57c-1.075-.147-2.145-.337-3.225-.45-1.08-.118-2.156-.27-3.24-.345-1.082-.082-2.163-.2-3.25-.238-1.084-.043-2.168-.136-3.255-.136-1.082-.01-2.18-.056-3.25-.037a51.876 51.876 0 0 0-3.25.124 43.13 43.13 0 0 0-3.22.327c-2.14.29-4.255.74-6.297 1.405-1.023.323-2.022.72-2.984 1.174-.48.224-.948.477-1.397.745-.223.144-.44.264-.604.423l-.62.533-.334.287-.33-.295c-1.23-1.025-2.513-2.11-3.674-3.288-1.158-1.19-2.264-2.46-3.11-3.975-.416-.76-.77-1.59-.9-2.522-.138-.92.03-1.98.57-2.814z"/><linearGradient id="db" gradientUnits="userSpaceOnUse" x1="104.17" y1="184.14" x2="104.17" y2="95.522" gradientTransform="matrix(-1 0 0 1 157.5 0)"><stop offset="0" stop-color="#f2a100"/><stop offset=".124" stop-color="#f97a00"/><stop offset=".306" stop-color="#f9b713"/><stop offset=".505" stop-color="#f97a00"/><stop offset=".65" stop-color="#f9b713"/><stop offset=".796" stop-color="#f97a00"/><stop offset="1" stop-color="#f9b713"/></linearGradient><circle fill="url(#db)" cx="53.329" cy="139.83" r="44.309"/><g opacity=".5"><defs><circle id="dc" opacity=".5" cx="53.329" cy="139.83" r="44.309"/></defs><clipPath id="dd"><use xlink:href="#dc" overflow="visible"/></clipPath><g opacity=".3" clip-path="url(#dd)"><path fill="#FFF3C0" d="M31 96.64h78.834v.722H31z"/><path fill="#A97C50" d="M31 97.28h78.834V98H31z"/><path fill="#FFF3C0" d="M31 98.64h78.834v.722H31z"/><path fill="#A97C50" d="M31 99.28h78.834v.72H31z"/><path fill="#FFF3C0" d="M31 100.64h78.834v.722H31z"/><path fill="#A97C50" d="M31 101.28h78.834v.72H31z"/><path fill="#FFF3C0" d="M31 102.64h78.834v.722H31z"/><path fill="#A97C50" d="M31 103.28h78.834v.72H31z"/><g><path fill="#FFF3C0" d="M31 104.64h78.834v.722H31z"/><path fill="#A97C50" d="M31 105.28h78.834v.72H31z"/></g><g><path fill="#FFF3C0" d="M31 106.64h78.834v.722H31z"/><path fill="#A97C50" d="M31 107.28h78.834v.72H31z"/></g><g><path fill="#FFF3C0" d="M31 108.64h78.834v.722H31z"/><path fill="#A97C50" d="M31 109.28h78.834v.72H31z"/></g><g><path fill="#FFF3C0" d="M31 110.64h78.834v.722H31z"/><path fill="#A97C50" d="M31 111.28h78.834v.72H31z"/></g><g><path fill="#FFF3C0" d="M31 112.64h78.834v.722H31z"/><path fill="#A97C50" d="M31 113.28h78.834v.72H31z"/><path fill="#FFF3C0" d="M31 114.64h78.834v.722H31z"/><path fill="#A97C50" d="M31 115.28h78.834v.72H31z"/><path fill="#FFF3C0" d="M31 116.64h78.834v.722H31z"/><path fill="#A97C50" d="M31 117.28h78.834v.72H31z"/><path fill="#FFF3C0" d="M31 118.64h78.834v.722H31z"/><path fill="#A97C50" d="M31 119.28h78.834v.72H31z"/><g><path fill="#FFF3C0" d="M31 120.64h78.834v.722H31z"/><path fill="#A97C50" d="M31 121.28h78.834v.72H31z"/></g><g><path fill="#FFF3C0" d="M31 122.64h78.834v.722H31z"/><path fill="#A97C50" d="M31 123.28h78.834v.72H31z"/></g><g><path fill="#FFF3C0" d="M31 124.64h78.834v.722H31z"/><path fill="#A97C50" d="M31 125.28h78.834v.72H31z"/></g><g><path fill="#FFF3C0" d="M31 126.64h78.834v.722H31z"/><path fill="#A97C50" d="M31 127.28h78.834v.72H31z"/></g></g><g><path fill="#FFF3C0" d="M31 128.64h78.834v.722H31z"/><path fill="#A97C50" d="M31 129.28h78.834v.72H31z"/><path fill="#FFF3C0" d="M31 130.64h78.834v.722H31z"/><path fill="#A97C50" d="M31 131.28h78.834v.72H31z"/><path fill="#FFF3C0" d="M31 132.64h78.834v.722H31z"/><path fill="#A97C50" d="M31 133.28h78.834v.72H31z"/><path fill="#FFF3C0" d="M31 134.64h78.834v.722H31z"/><path fill="#A97C50" d="M31 135.28h78.834v.72H31z"/><g><path fill="#FFF3C0" d="M31 136.64h78.834v.722H31z"/><path fill="#A97C50" d="M31 137.28h78.834v.72H31z"/></g><g><path fill="#FFF3C0" d="M31 138.64h78.834v.722H31z"/><path fill="#A97C50" d="M31 139.28h78.834v.72H31z"/></g><g><path fill="#FFF3C0" d="M31 140.64h78.834v.722H31z"/><path fill="#A97C50" d="M31 141.28h78.834v.72H31z"/></g><g><path fill="#FFF3C0" d="M31 142.64h78.834v.722H31z"/><path fill="#A97C50" d="M31 143.28h78.834v.72H31z"/></g></g><g><path fill="#FFF3C0" d="M31 144.64h78.834v.722H31z"/><path fill="#A97C50" d="M31 145.28h78.834v.72H31z"/><path fill="#FFF3C0" d="M31 146.64h78.834v.722H31z"/><path fill="#A97C50" d="M31 147.28h78.834v.72H31z"/><path fill="#FFF3C0" d="M31 148.64h78.834v.722H31z"/><path fill="#A97C50" d="M31 149.28h78.834v.72H31z"/><path fill="#FFF3C0" d="M31 150.64h78.834v.722H31z"/><path fill="#A97C50" d="M31 151.28h78.834v.72H31z"/><g><path fill="#FFF3C0" d="M31 152.64h78.834v.722H31z"/><path fill="#A97C50" d="M31 153.28h78.834v.72H31z"/></g><g><path fill="#FFF3C0" d="M31 154.64h78.834v.722H31z"/><path fill="#A97C50" d="M31 155.28h78.834v.72H31z"/></g><g><path fill="#FFF3C0" d="M31 156.64h78.834v.722H31z"/><path fill="#A97C50" d="M31 157.28h78.834v.72H31z"/></g><g><path fill="#FFF3C0" d="M31 158.64h78.834v.722H31z"/><path fill="#A97C50" d="M31 159.28h78.834v.72H31z"/></g></g><g><path fill="#FFF3C0" d="M31 160.64h78.834v.722H31z"/><path fill="#A97C50" d="M31 161.28h78.834v.72H31z"/><path fill="#FFF3C0" d="M31 162.64h78.834v.722H31z"/><path fill="#A97C50" d="M31 163.28h78.834v.72H31z"/><path fill="#FFF3C0" d="M31 164.64h78.834v.722H31z"/><path fill="#A97C50" d="M31 165.28h78.834v.72H31z"/><path fill="#FFF3C0" d="M31 166.64h78.834v.722H31z"/><path fill="#A97C50" d="M31 167.28h78.834v.72H31z"/><g><path fill="#FFF3C0" d="M31 168.64h78.834v.722H31z"/><path fill="#A97C50" d="M31 169.28h78.834v.72H31z"/></g><g><path fill="#FFF3C0" d="M31 170.64h78.834v.722H31z"/><path fill="#A97C50" d="M31 171.28h78.834v.72H31z"/></g><g><path fill="#FFF3C0" d="M31 172.64h78.834v.722H31z"/><path fill="#A97C50" d="M31 173.28h78.834v.72H31z"/></g><g><path fill="#FFF3C0" d="M31 174.64h78.834v.722H31z"/><path fill="#A97C50" d="M31 175.28h78.834v.72H31z"/></g></g><g><path fill="#FFF3C0" d="M31 176.64h78.834v.722H31z"/><path fill="#A97C50" d="M31 177.28h78.834v.72H31z"/><path fill="#FFF3C0" d="M31 178.64h78.834v.722H31z"/><path fill="#A97C50" d="M31 179.28h78.834v.72H31z"/><path fill="#FFF3C0" d="M31 180.64h78.834v.722H31z"/><path fill="#A97C50" d="M31 181.28h78.834v.72H31z"/><g><path fill="#FFF3C0" d="M31 182.64h78.834v.722H31z"/><path fill="#A97C50" d="M31 183.28h78.834v.72H31z"/></g><g><path fill="#FFF3C0" d="M31 184.64h78.834v.722H31z"/><path fill="#A97C50" d="M31 185.28h78.834v.72H31z"/></g></g></g></g><ellipse fill="#FFF3C0" cx="51.094" cy="139.83" rx="42.073" ry="44.309"/><ellipse fill="#FFF3C0" cx="51.542" cy="139.83" rx="41.625" ry="44.309"/><circle opacity=".2" fill="#FDD31A" cx="53.329" cy="139.83" r="44.309"/><ellipse fill="#FDD31A" cx="51" cy="139.83" rx="41.083" ry="44.309"/><ellipse fill="#F2A100" cx="51.094" cy="139.83" rx="35.073" ry="36.936"/><ellipse fill="#F9B713" cx="51.583" cy="139.83" rx="34.583" ry="36.936"/><ellipse fill="#F2A100" cx="51.094" cy="139.83" rx="26.769" ry="28.189"/><ellipse fill="#FFF3C0" cx="50.559" cy="139.83" rx="26.233" ry="28.189"/><ellipse fill="#FDD31A" cx="51.021" cy="139.83" rx="25.771" ry="28.189"/><g><path fill="#EF8800" d="M36.335 137.844H40v-16.482h10.27c3.892 0 6.426.207 7.647.568 3.62 1.084 6.378 4.807 6.378 10.592 0 6.613-3.71 10.076-7.058 10.902-1.538.36-3.754.516-6.65.516h-4.162v3.102h16.513v6.098H46.426v4.443H40v-4.443h-3.665v-6.098H40v-3.102h-3.665v-6.096zm10.09-10.334v10.28h3.484c2.532 0 4.207-.204 5.065-.565 1.63-.672 2.715-2.48 2.715-4.6 0-2.635-1.537-4.443-3.573-4.855-.77-.156-2.31-.26-4.616-.26h-3.074z"/></g><g><path fill="#FFF3C0" d="M37.456 137.844h3.683v-16.482h10.323c3.91 0 6.458.207 7.685.568 3.637 1.084 6.41 4.807 6.41 10.592 0 6.613-3.73 10.076-7.092 10.902-1.546.36-3.774.516-6.686.516h-4.183v3.102h16.595v6.098H47.598v4.443h-6.46v-4.443h-3.682v-6.098h3.683v-3.102h-3.684v-6.096zm10.142-10.334v10.28H51.1c2.545 0 4.23-.204 5.09-.565 1.638-.672 2.73-2.48 2.73-4.6 0-2.635-1.544-4.443-3.59-4.855-.774-.156-2.322-.26-4.64-.26h-3.092z"/></g><g><path fill="#F2A700" d="M36.998 137.844h3.697v-16.482h10.363c3.925 0 6.48.207 7.714.568 3.65 1.084 6.435 4.807 6.435 10.592 0 6.613-3.742 10.076-7.12 10.902-1.552.36-3.787.516-6.71.516h-4.2v3.102h16.66v6.098h-16.66v4.443h-6.48v-4.443h-3.698v-6.098h3.696v-3.102H37v-6.096zm10.18-10.334v10.28h3.515c2.556 0 4.245-.204 5.112-.565 1.643-.672 2.738-2.48 2.738-4.6 0-2.635-1.55-4.443-3.605-4.855-.775-.156-2.328-.26-4.656-.26h-3.104z"/></g><linearGradient id="de" gradientUnits="userSpaceOnUse" x1="75.856" y1="109.279" x2="136.957" y2="170.381" gradientTransform="matrix(-1 0 0 1 157.5 0)"><stop offset="0" stop-color="#f97e00" stop-opacity="0"/><stop offset=".301" stop-color="#f97a00"/><stop offset=".521" stop-color="#f97e00" stop-opacity="0"/><stop offset=".753" stop-color="#f97a00"/><stop offset="1" stop-color="#f97e00" stop-opacity="0"/></linearGradient><ellipse opacity=".2" fill="url(#de)" cx="51.094" cy="139.83" rx="42.073" ry="44.309"/><linearGradient id="df" gradientUnits="userSpaceOnUse" x1="64.333" y1="139.83" x2="148.48" y2="139.83" gradientTransform="matrix(-1 0 0 1 157.5 0)"><stop offset="0" stop-color="#FFF" stop-opacity="0"/><stop offset="1" stop-color="#FFF"/></linearGradient><ellipse opacity=".2" fill="url(#df)" cx="51.094" cy="139.83" rx="42.073" ry="44.309"/><linearGradient id="dg" gradientUnits="userSpaceOnUse" x1="106.406" y1="95.52" x2="106.406" y2="139.829" gradientTransform="matrix(-1 0 0 1 157.5 0)"><stop offset="0" stop-color="#FFF" stop-opacity="0"/><stop offset="1" stop-color="#FFF"/></linearGradient><path opacity=".1" fill="url(#dg)" d="M93.167 139.83c0-24.47-18.835-44.31-42.07-44.31-23.24 0-42.076 19.84-42.076 44.31"/><path fill="#2B3990" d="M93.993 25.883s-11.826-4.5-31.576-4.5c-12.917 0-18.423 5.258-18.423 5.258l-.773.674c-1.523-1.402-14.195-13.537-2.386-16.598 19.29-5 32.416-1.166 44.025 7.243 7.735 5.603 9.133 7.923 9.133 7.923z"/><path fill="none" stroke="#006838" stroke-width="8" stroke-linecap="round" stroke-miterlimit="10" d="M85.564 121.832c-.002-.002 7.74 1.926 15.032 2.998 36.764 5.408 43.166-10.332 32.332-18.33"/><path fill="#FFF" d="M32.125 119.717l.578-1.955.267 1.955 1.53.418-1.59.26-.496 1.408-.31-1.383-1.166-.64z"/></svg><svg width="165" height="190" viewBox="0 0 165 190" id="postman" x="185" y="240"><path fill="none" stroke="#5D2BBC" stroke-width="8" stroke-linecap="round" stroke-miterlimit="10" d="M161.465 112.265s-9.75 8.173-26.125 4.298"/><ellipse opacity=".2" fill="#0090A8" cx="80.75" cy="179.026" rx="77.917" ry="6.807"/><ellipse opacity=".4" fill="#0090A8" cx="85.771" cy="179.026" rx="50.105" ry="4.377"/><path fill="none" stroke="#8252C1" stroke-width="8" stroke-linecap="round" stroke-miterlimit="10" d="M38.902 175.64s5.75-35.84 33-40.67M131.9 175.64s-10.75-35.84-37.998-40.67"/><path fill="none" stroke="#6133BC" stroke-width="8" stroke-linecap="round" stroke-miterlimit="10" d="M6.902 175.64s11.502-36.333 36-42.67M154.987 175.64s-10.75-35.84-38-40.67"/><path fill="#FFF" d="M138.063 65.512c-5.73-28.408-27.254-50.055-53.915-50.023-26.664-.035-48.188 21.614-53.916 50.022-2.847 17.996-5.755 46.01-5.635 63.22-.117 13.702 9.803 23.04 21.118 27.65 11.646 4.83 24.688 4.933 38.433 5.18 13.743-.247 26.784-.35 38.43-5.18 11.317-4.61 21.237-13.948 21.12-27.65.12-17.21-2.787-45.224-5.635-63.22z"/><linearGradient id="ea" gradientUnits="userSpaceOnUse" x1="23.594" y1="88.525" x2="142.702" y2="88.525"><stop offset="0" stop-color="#5b10b5"/><stop offset=".995" stop-color="#8567d0"/></linearGradient><path fill="url(#ea)" d="M137.063 65.512c-5.73-28.408-27.254-50.055-53.915-50.023-26.664-.035-48.188 21.614-53.916 50.022-2.847 17.996-5.755 46.01-5.635 63.22-.117 13.702 9.803 23.04 21.118 27.65 11.646 4.83 24.688 4.933 38.433 5.18 13.744-.247 26.784-.35 38.43-5.18 11.317-4.61 21.237-13.948 21.12-27.65.12-17.21-2.787-45.224-5.635-63.22z"/><circle fill="#FFF" cx="116.499" cy="84.979" r="16.76"/><circle fill="#FFF" cx="74.056" cy="84.979" r="16.76"/><circle fill="#6400B6" cx="116.693" cy="84.979" r="13.93"/><circle opacity=".4" fill="#964DFF" cx="116.707" cy="84.991" r="11.833"/><circle fill="#231F20" cx="116.83" cy="84.979" r="9.991"/><path opacity=".2" fill="#27AAE1" d="M123.432 85.073c0 3.646-2.957 1.434-6.603 1.434s-6.603 2.213-6.603-1.434a6.603 6.603 0 0 1 13.205 0z"/><circle fill="#FFF" cx="114.145" cy="79.85" r="2.117"/><circle fill="#6400B6" cx="74.274" cy="84.979" r="13.929"/><circle opacity=".4" fill="#964DFF" cx="74.275" cy="84.979" r="12.017"/><circle fill="#231F20" cx="74.411" cy="84.979" r="9.99"/><path opacity=".2" fill="#27AAE1" d="M81.013 85.073c0 3.646-2.956 1.434-6.604 1.434-3.645 0-6.602 2.213-6.6-1.434a6.602 6.602 0 0 1 13.203 0z"/><circle fill="#FFF" cx="71.724" cy="79.85" r="2.117"/><circle fill="#FFF" cx="119.99" cy="54.264" r="7.321"/><circle fill="#FFF" cx="68.026" cy="54.264" r="7.321"/><circle fill="#6400B6" cx="120.484" cy="53.958" r="5.542"/><circle opacity=".4" fill="#964DFF" cx="120.484" cy="53.958" r="4.468"/><circle fill="#231F20" cx="120.484" cy="53.958" r="3.677"/><circle fill="#6400B6" cx="68.588" cy="53.958" r="5.542"/><circle opacity=".4" fill="#964DFF" cx="68.588" cy="53.958" r="4.809"/><circle fill="#231F20" cx="68.588" cy="53.958" r="3.71"/><path opacity=".2" fill="#27AAE1" d="M71.194 53.717c0 1.438-1.166.564-2.605.564-1.44 0-2.607.874-2.606-.563a2.605 2.605 0 1 1 5.21 0zM123.065 53.718c0 1.426-1.155.562-2.58.562s-2.583.864-2.583-.562a2.583 2.583 0 0 1 5.163 0z"/><path fill="#FFF" d="M118.66 51.914zM66.747 51.896a.778.778 0 1 0 1.556.002.778.778 0 0 0-1.556-.002z"/><path fill="#231F20" d="M94 16.87s1.5.73-7.5 1.93-23.26.247-23.26.247 4.967-3.537 15.427-3.898C94.04 14.616 94 16.87 94 16.87z"/><path fill="#3F0082" d="M68.918 4.27C53.678 7.92 42.22 14.62 43.326 19.238c.6 2.5 4.76 3.872 10.863 4.03 3.75-2.52 10.18-5.116 17.708-6.92 7.488-1.794 14.362-2.397 18.85-1.865 5.313-2.892 8.36-5.98 7.767-8.465C97.408 1.4 84.157.618 68.918 4.27z"/><path fill="#5D2BBC" d="M52.092 26.57c8.787-6.988 19.433-11.097 31.056-11.082A48.19 48.19 0 0 1 94.04 16.73l-1.602-6.358c-.67-2.792-10.59-2.808-22.16-.036s-20.408 7.28-19.74 10.073l1.067 4.232.487 1.93z"/><path fill="#D2F1F9" d="M58.8 178.693c0 1.44 1.27 2.61 2.833 2.61h73.91c1.564 0 2.834-1.17 2.834-2.61V122.25c0-1.44-1.27-2.61-2.835-2.61h-73.91c-1.563 0-2.833 1.17-2.833 2.61v56.443z"/><path fill="#FFF" d="M58.8 178.25c0-1.44 38.27-32.61 39.833-32.61h.91c1.564 0 38.834 31.17 38.834 32.61v.443c0 1.44-1.27 2.61-2.835 2.61h-73.91c-1.563 0-2.833-1.17-2.833-2.61v-.443z"/><radialGradient id="eb" cx="98.588" cy="139.472" r="30.832" gradientUnits="userSpaceOnUse"><stop offset="0" stop-color="#acd7df"/><stop offset="1" stop-color="#4695ac"/></radialGradient><path opacity=".4" fill="url(#eb)" d="M58.8 134.693c0 1.44 38.27 22.61 39.833 22.61h.91c1.564 0 38.834-21.17 38.834-22.61V124.25c0-1.44-1.27-2.61-2.835-2.61h-73.91c-1.563 0-2.833 1.17-2.833 2.61v10.443z"/><path fill="#FFF" d="M58.8 132.693c0 1.44 38.27 22.61 39.833 22.61h.91c1.564 0 38.834-21.17 38.834-22.61V122.25c0-1.44-1.27-2.61-2.835-2.61h-73.91c-1.563 0-2.833 1.17-2.833 2.61v10.443z"/><defs><path id="ec" d="M132.184 121.805H64.52a3.84 3.84 0 0 0-3.834 3.835v49.663a3.84 3.84 0 0 0 3.835 3.835h67.664a3.84 3.84 0 0 0 3.835-3.835V125.64a3.84 3.84 0 0 0-3.836-3.835zm1.835 53.498a1.837 1.837 0 0 1-1.836 1.835H64.52a1.837 1.837 0 0 1-1.834-1.835V125.64c0-1.012.823-1.835 1.835-1.835h67.664c1.012 0 1.835.823 1.835 1.835v49.663z"/></defs><clipPath id="ed"><use xlink:href="#ec" overflow="visible"/></clipPath><g clip-path="url(#ed)"><path fill="#27AAE1" d="M137.477 47.57l1.414 1.415-79.383 79.384-1.414-1.415z"/><path fill="#EF4136" d="M137.477 52.57l1.414 1.415-79.383 79.384-1.414-1.415z"/><path fill="#27AAE1" d="M137.477 57.57l1.414 1.415-79.383 79.384-1.414-1.415z"/><path fill="#EF4136" d="M137.477 62.57l1.415 1.415-79.385 79.384-1.414-1.415z"/><path fill="#27AAE1" d="M137.477 67.57l1.415 1.415-79.385 79.384-1.414-1.415z"/><path fill="#EF4136" d="M137.477 72.57l1.415 1.415-79.385 79.384-1.414-1.415z"/><path fill="#27AAE1" d="M137.477 77.57l1.415 1.415-79.385 79.384-1.414-1.415z"/><path fill="#EF4136" d="M137.477 82.57l1.415 1.415-79.385 79.384-1.414-1.415z"/><path fill="#27AAE1" d="M137.477 87.57l1.415 1.414-79.385 79.385-1.414-1.415z"/><path fill="#EF4136" d="M137.478 92.57l1.414 1.414-79.385 79.385-1.414-1.415z"/><path fill="#27AAE1" d="M137.478 97.57l1.414 1.414-79.385 79.385-1.414-1.415z"/><path fill="#EF4136" d="M137.478 102.57l1.414 1.414-79.385 79.385-1.414-1.415z"/><path fill="#27AAE1" d="M137.478 107.57l1.414 1.414-79.385 79.385-1.414-1.415z"/><path fill="#EF4136" d="M137.478 112.57l1.414 1.414-79.385 79.385-1.414-1.415z"/><path fill="#27AAE1" d="M137.478 117.57l1.414 1.414-79.385 79.385-1.414-1.415z"/><path fill="#EF4136" d="M137.478 122.57l1.414 1.414-79.385 79.385-1.414-1.415z"/><path fill="#27AAE1" d="M137.478 127.57l1.414 1.414-79.385 79.385-1.414-1.415z"/><path fill="#EF4136" d="M137.478 132.57l1.414 1.414-79.385 79.385-1.414-1.415z"/><path fill="#27AAE1" d="M137.478 137.57l1.414 1.414-79.385 79.385-1.414-1.415z"/><path fill="#EF4136" d="M137.478 142.57l1.414 1.414-79.385 79.385-1.414-1.415z"/><path fill="#27AAE1" d="M137.478 147.57l1.414 1.414-79.385 79.385-1.414-1.415z"/><path fill="#EF4136" d="M137.478 152.57l1.414 1.414-79.385 79.385-1.414-1.415z"/><path fill="#27AAE1" d="M137.478 157.57l1.414 1.414-79.385 79.385-1.414-1.415z"/><path fill="#EF4136" d="M137.478 162.57l1.414 1.414-79.384 79.385-1.415-1.416z"/><path fill="#27AAE1" d="M137.478 167.57l1.414 1.414-79.384 79.385-1.415-1.416z"/><path fill="#EF4136" d="M137.478 172.57l1.414 1.414-79.384 79.385-1.415-1.416z"/></g><path fill="#FFB600" d="M81.667 13.356c8.083 0 11.83 1.215 11.83 1.215l.543 2.16s-3.767-1.226-12.237-1.226c-16.72 0-29.71 11.066-29.71 11.066l-.487-1.93c0 .003 13.77-11.284 30.06-11.284z"/><path fill="none" stroke="#3A2384" stroke-width="8" stroke-linecap="round" stroke-miterlimit="10" d="M66.57 149.306s-40.82 8.635-44.945-11.032c-1.2-5.72.33-9.92 2.51-12.835"/><path fill="#1D0E59" d="M17.417 131.69s1.205-1.25 3.787-.375 3.796 2.707 3.92 2.916c0 0 .105-2.208.46-2.853l-5.94-6.333c.002 0-1.81 3.043-2.227 6.646z"/><path fill="none" stroke="#3A2384" stroke-width="8" stroke-linecap="round" stroke-miterlimit="10" d="M66.57 126.306s-40.404 13.885-44.945-6.032c-2.88-12.627 8.625-18 8.625-18"/><path opacity=".4" fill="#86BDCC" d="M88.828 165.086h20.385v1.5H88.828zM86.25 168.086h25.54v1.5H86.25z"/><g><path opacity=".4" fill="#61A5B9" d="M108.916 151.79l-.89 1.312.49 1.514-1.216 1.002.046 1.59-1.45.615-.395 1.542-1.56.177-.806 1.366-1.547-.276-1.157 1.078-1.41-.707-1.407.706-1.156-1.078-1.55.272-.806-1.363-1.558-.18-.396-1.54-1.45-.612.05-1.593-1.22-1.003.49-1.51-.89-1.313.89-1.314-.49-1.515 1.22-1-.05-1.593 1.45-.616.398-1.538 1.56-.178.806-1.364 1.548.276 1.155-1.078 1.408.706 1.41-.706 1.158 1.078 1.547-.276.806 1.367 1.56.178.397 1.54 1.45.614-.047 1.59 1.22 1.002-.493 1.515z"/><path fill="#FFB600" d="M108.916 151.102l-.89 1.295.492 1.496-1.218.99.046 1.57-1.45.607-.394 1.522-1.56.175-.808 1.348-1.547-.272-1.157 1.064-1.41-.698-1.407.696-1.156-1.063-1.55.27-.806-1.347-1.56-.178-.394-1.52-1.45-.606.048-1.573-1.22-.99.492-1.493-.89-1.295.89-1.297-.49-1.495 1.218-.99-.048-1.572 1.45-.608.397-1.52 1.56-.176.807-1.346 1.548.272 1.155-1.064 1.408.697 1.41-.697 1.158 1.064 1.547-.272.806 1.35 1.562.175.395 1.52 1.45.607-.047 1.57 1.22.99-.493 1.496z"/><circle fill="#FFDE17" cx="99.021" cy="151.102" r="7.386"/><circle fill="#8DC63F" cx="99.021" cy="151.102" r="5.367"/></g><path fill="#FFB600" d="M78.84 13.69l1.93-3.542 2.277 3.208z"/></svg><svg width="365" height="240" viewBox="0 0 365 240" id="scanning"><path opacity=".2" fill="#0090A8" d="M262.715 232.335c0 3.76-34.883 6.807-77.918 6.807-43.032 0-77.916-3.047-77.916-6.807s34.885-6.807 77.917-6.807c43.035 0 77.918 3.047 77.918 6.807z"/><ellipse opacity=".3" fill="#0090A8" cx="189.819" cy="232.335" rx="50.105" ry="4.377"/><path fill="none" stroke="#262262" stroke-linecap="round" stroke-miterlimit="10" d="M183.262 74.465s0-2.982 1.453-5.965M179.714 71.465s-1.307-1.297-1.07-4.63M176.126 75.167s-.745-3.333-2.766-5.007"/><path fill="none" stroke="#008438" stroke-width="8" stroke-linecap="round" stroke-miterlimit="10" d="M239.137 157.84s18.336 1.5 13.336 18.25"/><path fill="#71FFFF" d="M355.008 20.033l-13.613-3.22-5.23 22.112c-3.635 7.537-6.926 16.866-9.36 27.168-2.44 10.303-3.677 20.117-3.802 28.484l-5.23 22.11 13.61 3.22c9.054 2.142 21.68-18.48 28.204-46.06 6.52-27.578 4.472-51.673-4.58-53.814z"/><radialGradient id="fa" cx="161.257" cy="82.89" r="38.272" gradientTransform="rotate(13.31 308.122 851.6)" gradientUnits="userSpaceOnUse"><stop offset="0" stop-color="#64e48a"/><stop offset="1" stop-color="#00914c"/></radialGradient><path fill="url(#fa)" d="M353.963 19.786l-13.9-3.287-5.23 22.11c-3.673 7.528-6.983 16.853-9.42 27.155-2.437 10.303-3.655 20.12-3.743 28.498l-5.23 22.11 13.902 3.288c9.242 2.188 22.025-18.398 28.55-45.978s4.315-51.708-4.93-53.896z"/><ellipse transform="rotate(-166.69 328.266 66.435)" fill="#006B84" cx="328.251" cy="66.436" rx="17.201" ry="51.316"/><path fill="#004D6B" d="M312.766 62.602c-6.225 26.32-4.424 49.276 4.02 51.274 8.442 1.997 20.337-17.72 26.562-44.04 6.227-26.322 4.426-49.276-4.016-51.273-8.447-2-20.342 17.716-26.566 44.04z"/><path fill="#71FFFF" d="M335.545 15.43l-13.61-3.22-5.23 22.113c-3.638 7.536-6.927 16.865-9.362 27.168-2.438 10.303-3.676 20.117-3.8 28.484l-5.23 22.11 13.61 3.22c9.053 2.142 21.68-18.48 28.203-46.06s4.472-51.673-4.58-53.814z"/><radialGradient id="fb" cx="141.258" cy="82.891" r="38.272" gradientTransform="rotate(13.31 308.122 851.6)" gradientUnits="userSpaceOnUse"><stop offset="0" stop-color="#00d4cb"/><stop offset="1" stop-color="#0099b9"/></radialGradient><path fill="url(#fb)" d="M334.504 15.184l-13.902-3.288-5.23 22.112c-3.672 7.527-6.982 16.853-9.42 27.154-2.436 10.303-3.652 20.122-3.742 28.5l-5.23 22.108 13.9 3.29c9.244 2.185 22.027-18.4 28.55-45.98 6.52-27.578 4.316-51.71-4.926-53.896z"/><ellipse transform="rotate(-166.69 308.803 61.834)" fill="#006B84" cx="308.789" cy="61.833" rx="17.2" ry="51.315"/><path fill="#004D6B" d="M293.305 58c-6.227 26.32-4.426 49.275 4.02 51.273 8.442 1.996 20.337-17.72 26.562-44.04 6.227-26.323 4.426-49.276-4.016-51.273-8.446-1.998-20.34 17.717-26.565 44.04z"/><path fill="#71FFFF" d="M316.084 10.827l-13.61-3.22-5.23 22.113c-3.636 7.536-6.927 16.865-9.364 27.167-2.436 10.303-3.674 20.116-3.8 28.485l-5.23 22.11 13.612 3.22c9.053 2.14 21.68-18.48 28.203-46.062 6.52-27.577 4.472-51.672-4.58-53.813z"/><radialGradient id="fc" cx="121.259" cy="82.893" r="38.271" gradientTransform="rotate(13.31 308.122 851.6)" gradientUnits="userSpaceOnUse"><stop offset="0" stop-color="#64e48a"/><stop offset="1" stop-color="#00914c"/></radialGradient><path fill="url(#fc)" d="M315.04 10.58l-13.9-3.287-5.23 22.112c-3.67 7.527-6.983 16.852-9.42 27.154-2.437 10.3-3.653 20.12-3.743 28.497l-5.23 22.11 13.903 3.288c9.242 2.187 22.023-18.398 28.547-45.98 6.523-27.577 4.318-51.708-4.926-53.894z"/><ellipse transform="rotate(-166.69 289.342 57.23)" fill="#006B84" cx="289.329" cy="57.23" rx="17.201" ry="51.316"/><path fill="#004D6B" d="M273.844 53.396c-6.227 26.32-4.426 49.276 4.02 51.274 8.442 1.997 20.337-17.72 26.562-44.04 6.227-26.323 4.426-49.276-4.016-51.273-8.447-2-20.342 17.716-26.566 44.04z"/><path fill="#71FFFF" d="M296.623 6.224l-13.613-3.22-5.23 22.112c-3.636 7.537-6.925 16.866-9.36 27.17-2.438 10.3-3.676 20.115-3.803 28.483l-5.23 22.11L273 106.1c9.05 2.14 21.68-18.48 28.2-46.06 6.527-27.58 4.474-51.675-4.577-53.816z"/><radialGradient id="fd" cx="101.261" cy="82.893" r="38.272" gradientTransform="rotate(13.31 308.122 851.6)" gradientUnits="userSpaceOnUse"><stop offset="0" stop-color="#00d4cb"/><stop offset="1" stop-color="#0099b9"/></radialGradient><path fill="url(#fd)" d="M295.58 5.978L281.678 2.69l-5.23 22.113c-3.673 7.527-6.983 16.852-9.42 27.153-2.437 10.303-3.653 20.122-3.74 28.498l-5.23 22.11 13.9 3.29c9.243 2.185 22.024-18.4 28.55-45.98 6.52-27.58 4.314-51.71-4.928-53.896z"/><ellipse transform="rotate(-166.69 269.88 52.624)" fill="#006B84" cx="269.867" cy="52.627" rx="17.2" ry="51.315"/><path fill="#004D6B" d="M256.467 49.286c-5.64 23.852-4.627 44.507 2.27 46.138 6.893 1.63 17.053-16.382 22.695-40.232 5.643-23.854 4.625-44.508-2.268-46.14-6.894-1.63-17.055 16.382-22.697 40.234z"/><g opacity=".5" fill="#1C75BC"><path d="M273.81 27.68l-.715-.17 2.737-11.58.715.17zM278.87 18.416l.398-1.675-1.873-.442-.274 1.153-.122.523-.844 3.563-.13.552-.198.837.938.22-.782 3.303-.937-.22-.39 1.65.937.22.537.127.4.095 1.17-4.952.198-.837.13-.55-1.368-.325.842-3.563z"/></g><g opacity=".5" fill="#1C75BC"><path d="M259.672 87.45l-.715-.168 2.736-11.58.716.17zM264.734 78.19l.395-1.675-1.874-.444-.274 1.156-.123.52-.842 3.564-.13.55-.2.84.937.22-.78 3.303-.94-.222-.387 1.65.937.222.535.127.4.094 1.173-4.95.197-.84.13-.552-1.367-.323.842-3.565z"/></g><radialGradient id="fe" cx="75.124" cy="82.99" r="14.45" gradientTransform="matrix(.9258 .219 -.2302 .973 219.113 -44.656)" gradientUnits="userSpaceOnUse"><stop offset="0" stop-color="#00d4cb"/><stop offset="1" stop-color="#0099b9"/></radialGradient><path opacity=".6" fill="url(#fe)" d="M263.547 51.133c-2.463 10.41-1.766 19.492 1.553 20.277 3.32.785 8.01-7.02 10.47-17.434 2.466-10.412 1.77-19.492-1.55-20.278-3.32-.785-8.01 7.023-10.473 17.435z"/><ellipse transform="rotate(-166.692 268.464 52.293)" fill="#006B84" cx="268.478" cy="52.298" rx="6.494" ry="19.376"/><ellipse transform="rotate(-166.69 268.486 52.306)" fill="#004D6B" cx="268.477" cy="52.298" rx="1.911" ry="5.7"/><path fill="#71FFFF" d="M10.392 20.033l13.612-3.22 5.23 22.112c3.636 7.537 6.926 16.866 9.36 27.168 2.44 10.303 3.677 20.117 3.803 28.484l5.23 22.11-13.612 3.22c-9.053 2.142-21.68-18.48-28.202-46.06-6.52-27.578-4.472-51.673 4.58-53.814z"/><radialGradient id="ff" cx="401.911" cy="25.96" r="38.272" gradientTransform="rotate(166.69 206.997 -.206)" gradientUnits="userSpaceOnUse"><stop offset="0" stop-color="#64e48a"/><stop offset="1" stop-color="#00914c"/></radialGradient><path fill="url(#ff)" d="M11.436 19.786l13.9-3.287 5.23 22.11c3.673 7.528 6.983 16.853 9.42 27.155 2.436 10.303 3.654 20.12 3.743 28.498l5.228 22.11-13.9 3.288c-9.243 2.188-22.027-18.398-28.55-45.978-6.522-27.578-4.315-51.708 4.928-53.896z"/><ellipse transform="rotate(-13.31 37.146 66.434)" fill="#006B84" cx="37.148" cy="66.436" rx="17.201" ry="51.316"/><path fill="#004D6B" d="M52.633 62.602c6.226 26.32 4.425 49.276-4.02 51.274-8.442 1.997-20.337-17.72-26.562-44.04-6.225-26.322-4.424-49.276 4.018-51.273 8.447-2 20.34 17.716 26.565 44.04z"/><path fill="#71FFFF" d="M29.854 15.43l13.61-3.22 5.23 22.113c3.638 7.536 6.927 16.865 9.363 27.168 2.437 10.303 3.675 20.117 3.8 28.484l5.23 22.11-13.61 3.22c-9.053 2.142-21.68-18.48-28.203-46.06S20.8 17.57 29.854 15.43z"/><radialGradient id="fg" cx="381.911" cy="25.961" r="38.272" gradientTransform="rotate(166.69 206.997 -.206)" gradientUnits="userSpaceOnUse"><stop offset="0" stop-color="#00d4cb"/><stop offset="1" stop-color="#0099b9"/></radialGradient><path fill="url(#fg)" d="M30.896 15.184l13.9-3.288 5.23 22.112c3.673 7.527 6.983 16.853 9.42 27.154 2.438 10.303 3.654 20.122 3.744 28.5l5.23 22.108-13.9 3.29c-9.245 2.185-22.027-18.4-28.55-45.98-6.522-27.578-4.317-51.71 4.926-53.896z"/><ellipse transform="rotate(-13.31 56.608 61.832)" fill="#006B84" cx="56.61" cy="61.833" rx="17.201" ry="51.315"/><path fill="#004D6B" d="M72.095 58c6.226 26.32 4.425 49.275-4.022 51.273-8.44 1.996-20.335-17.72-26.56-44.04-6.228-26.323-4.426-49.276 4.016-51.273C53.974 11.962 65.87 31.677 72.094 58z"/><path fill="#71FFFF" d="M49.315 10.827l13.61-3.22 5.23 22.113c3.637 7.536 6.927 16.865 9.364 27.167 2.435 10.303 3.674 20.116 3.8 28.485l5.228 22.11-13.61 3.22c-9.053 2.14-21.68-18.48-28.203-46.062-6.522-27.577-4.472-51.672 4.58-53.813z"/><radialGradient id="fh" cx="361.912" cy="25.963" r="38.271" gradientTransform="rotate(166.69 206.997 -.206)" gradientUnits="userSpaceOnUse"><stop offset="0" stop-color="#64e48a"/><stop offset="1" stop-color="#00914c"/></radialGradient><path fill="url(#fh)" d="M50.358 10.58l13.9-3.287 5.23 22.112c3.673 7.527 6.984 16.852 9.42 27.154 2.438 10.3 3.654 20.12 3.744 28.497l5.23 22.11-13.903 3.288c-9.243 2.187-22.025-18.398-28.55-45.98-6.52-27.577-4.315-51.708 4.928-53.894z"/><ellipse transform="rotate(-13.31 76.066 57.227)" fill="#006B84" cx="76.071" cy="57.23" rx="17.201" ry="51.316"/><path fill="#004D6B" d="M91.555 53.396c6.227 26.32 4.426 49.276-4.02 51.274-8.443 1.997-20.338-17.72-26.563-44.04-6.226-26.323-4.425-49.276 4.017-51.273 8.447-2 20.34 17.716 26.565 44.04z"/><path fill="#71FFFF" d="M68.777 6.224l13.612-3.22 5.228 22.112c3.637 7.537 6.925 16.866 9.36 27.17 2.438 10.3 3.677 20.115 3.804 28.483l5.23 22.11L92.4 106.1c-9.052 2.14-21.68-18.48-28.202-46.06-6.525-27.58-4.473-51.675 4.58-53.816z"/><radialGradient id="fi" cx="341.914" cy="25.963" r="38.272" gradientTransform="rotate(166.69 206.997 -.206)" gradientUnits="userSpaceOnUse"><stop offset="0" stop-color="#00d4cb"/><stop offset="1" stop-color="#0099b9"/></radialGradient><path fill="url(#fi)" d="M69.82 5.978l13.9-3.288 5.23 22.113c3.674 7.527 6.984 16.852 9.42 27.153 2.438 10.303 3.654 20.122 3.743 28.498l5.23 22.11-13.9 3.29c-9.244 2.185-22.026-18.4-28.55-45.98-6.523-27.58-4.316-51.71 4.927-53.896z"/><ellipse transform="rotate(-13.308 95.517 52.62)" fill="#006B84" cx="95.532" cy="52.627" rx="17.201" ry="51.315"/><path fill="#004D6B" d="M108.932 49.286c5.642 23.852 4.627 44.507-2.27 46.138-6.892 1.63-17.053-16.382-22.695-40.232-5.642-23.854-4.625-44.508 2.268-46.14 6.894-1.63 17.056 16.382 22.697 40.234z"/><g opacity=".5" fill="#1C75BC"><path d="M88.846 16.098l.714-.17 2.74 11.58-.714.168zM86.528 18.416l-.397-1.675 1.875-.442.274 1.153.122.523.843 3.563.13.552.198.837-.937.22.78 3.303.938-.22.39 1.65-.936.22-.537.127-.4.095-1.17-4.952-.2-.837-.13-.55 1.37-.325-.843-3.563z"/></g><g opacity=".5" fill="#1C75BC"><path d="M102.988 75.873l.716-.17 2.736 11.58-.715.17zM100.666 78.19l-.396-1.675 1.874-.444.273 1.156.123.52.842 3.564.13.55.2.84-.937.22.78 3.303.938-.222.39 1.65-.938.222-.535.127-.402.094-1.17-4.95-.2-.84-.13-.552 1.368-.323-.84-3.565z"/></g><radialGradient id="fj" cx="328.074" cy="26.063" r="14.451" gradientTransform="matrix(-.9258 .219 .2302 .973 393.57 -44.656)" gradientUnits="userSpaceOnUse"><stop offset="0" stop-color="#00d4cb"/><stop offset="1" stop-color="#0099b9"/></radialGradient><path opacity=".6" fill="url(#fj)" d="M101.852 51.133c2.464 10.41 1.767 19.492-1.552 20.277-3.32.785-8.01-7.02-10.472-17.434-2.464-10.412-1.77-19.492 1.55-20.278 3.32-.785 8.012 7.023 10.474 17.435z"/><ellipse transform="rotate(-13.303 96.945 52.307)" fill="#006B84" cx="96.922" cy="52.298" rx="6.494" ry="19.376"/><ellipse transform="rotate(-13.31 96.945 52.308)" fill="#004D6B" cx="96.922" cy="52.298" rx="1.911" ry="5.7"/><path fill="none" stroke="#008438" stroke-width="8" stroke-linecap="round" stroke-miterlimit="10" d="M225.438 155.28s10-50.14 0-116.64"/><g><path fill="none" stroke="#009444" stroke-width="8" stroke-linecap="round" stroke-miterlimit="10" d="M142.126 230.64s5.75-35.84 33-40.67"/></g><path fill="none" stroke="#009444" stroke-width="8" stroke-linecap="round" stroke-miterlimit="10" d="M235.125 230.64s-10.75-35.84-38-40.67"/><path fill="none" stroke="#008438" stroke-width="8" stroke-linecap="round" stroke-miterlimit="10" d="M110.126 230.64s11.502-36.333 36-42.67M258.137 230.64s-10.75-35.84-38-40.67"/><g opacity=".5" fill="#006838"><path d="M220.835 186.03a4 4 0 0 0-4.637 3.24 4 4 0 0 0 3.24 4.638c9.15 1.623 16.32 7.285 21.716 13.756 2.02-1.848 3.815-3.912 5.296-6.195-6.296-7.217-14.71-13.505-25.615-15.44zM197.824 186.032a3.998 3.998 0 0 0-4.637 3.24 4 4 0 0 0 3.24 4.637c13.438 2.38 22.594 13.47 28.142 23.043 1.314-.43 2.62-.897 3.902-1.43a47.347 47.347 0 0 0 3.612-1.653c-6.292-11.208-17.24-24.82-34.26-27.838zM174.428 186.032c-17.035 3.02-26.36 16.51-31.273 27.774a47.41 47.41 0 0 0 3.734 1.717c1.224.508 2.468.954 3.72 1.368 4.2-9.5 11.867-20.615 25.214-22.98a4 4 0 1 0-1.396-7.878zM145.125 184.098c-7.495 1.94-13.823 6.32-19.06 11.63.965 2.694 2.333 5.163 4.01 7.4 4.668-5.208 10.344-9.55 17.053-11.284a4 4 0 1 0-2.003-7.746z"/></g><path fill="#FFF" d="M241.598 120.486c-5.73-28.408-27.254-50.055-53.918-50.023-26.663-.033-48.187 21.615-53.915 50.023-2.847 17.996-5.755 46.01-5.635 63.22-.117 13.702 9.803 23.04 21.118 27.65 11.646 4.83 24.688 4.933 38.432 5.18 13.744-.247 26.787-.35 38.434-5.18 11.316-4.61 21.236-13.948 21.12-27.65.118-17.21-2.79-45.224-5.636-63.22z"/><linearGradient id="fk" gradientUnits="userSpaceOnUse" x1="127.126" y1="143.5" x2="246.236" y2="143.5"><stop offset="0" stop-color="#faac18"/><stop offset=".5" stop-color="#ffca05"/><stop offset="1" stop-color="#ffe76c"/></linearGradient><path fill="url(#fk)" d="M240.598 120.486c-5.73-28.408-27.254-50.055-53.918-50.023-26.663-.033-48.187 21.615-53.915 50.023-2.847 17.996-5.755 46.01-5.635 63.22-.117 13.702 9.803 23.04 21.118 27.65 11.646 4.83 24.688 4.933 38.432 5.18 13.744-.247 26.787-.35 38.434-5.18 11.316-4.61 21.236-13.948 21.12-27.65.118-17.21-2.79-45.224-5.636-63.22z"/><path fill="none" stroke="#008438" stroke-width="8" stroke-linecap="round" stroke-miterlimit="10" d="M135.437 146.28s-16.89-15.52 4-107.64"/><path fill="none" stroke="#004D6B" stroke-width="6" stroke-miterlimit="10" d="M96.492 52.14s85.055-26.64 172 0"/><path opacity=".3" fill="none" stroke="#71FFFF" stroke-width="2" stroke-linecap="round" stroke-miterlimit="10" d="M96.492 51.14s85.055-26.64 172 0"/><circle fill="#FFF" cx="222.878" cy="135.069" r="16.429"/><circle fill="#FFF" cx="177.855" cy="135.069" r="16.428"/><g><circle fill="#0090A8" cx="223.047" cy="134.712" r="13.654"/><circle opacity=".4" fill="#00F3FF" cx="223.06" cy="134.724" r="11.599"/><circle fill="#231F20" cx="223.181" cy="134.712" r="9.794"/><path opacity=".2" fill="#27AAE1" d="M229.652 134.846c0 3.574-2.898 1.405-6.473 1.405-3.573 0-6.472 2.17-6.472-1.404a6.472 6.472 0 0 1 12.944 0z"/><circle fill="#FFF" cx="220.548" cy="129.684" r="2.075"/><circle fill="#0090A8" cx="178.047" cy="134.754" r="13.654"/><circle opacity=".4" fill="#00F3FF" cx="178.047" cy="134.754" r="11.779"/><circle fill="#231F20" cx="178.181" cy="134.754" r="9.793"/><path opacity=".2" fill="#27AAE1" d="M184.652 134.846c0 3.574-2.897 1.405-6.473 1.405-3.573 0-6.472 2.17-6.47-1.404a6.47 6.47 0 0 1 6.47-6.47 6.47 6.47 0 0 1 6.472 6.47z"/><circle fill="#FFF" cx="175.569" cy="129.726" r="2.075"/></g><circle fill="#FFF" cx="225.61" cy="109.358" r="7.177"/><circle fill="#FFF" cx="169.253" cy="109.358" r="7.177"/><circle fill="#0090A8" cx="226.095" cy="108.633" r="5.433"/><circle opacity=".4" fill="#00F3FF" cx="226.095" cy="108.633" r="4.38"/><circle fill="#231F20" cx="226.095" cy="108.633" r="3.604"/><circle fill="#0090A8" cx="169.805" cy="108.633" r="5.433"/><circle opacity=".4" fill="#00F3FF" cx="169.805" cy="108.633" r="4.714"/><circle fill="#231F20" cx="169.805" cy="108.633" r="3.637"/><path opacity=".2" fill="#27AAE1" d="M172.36 108.396c0 1.41-1.145.555-2.555.555s-2.555.856-2.554-.554a2.554 2.554 0 1 1 5.11 0zM228.625 108.397c0 1.397-1.133.55-2.53.55-1.397 0-2.53.848-2.53-.55a2.53 2.53 0 0 1 5.06 0z"/><circle fill="#FFF" cx="225.063" cy="106.63" r=".756"/><circle fill="#FFF" cx="168.763" cy="106.612" r=".763"/><path fill="none" stroke="#008438" stroke-width="8" stroke-linecap="round" stroke-miterlimit="10" d="M139.437 164.75s-12.368 7.666-9.14 22 53.25 1.22 53.25 1.22"/><g><linearGradient id="fl" gradientUnits="userSpaceOnUse" x1="-83.339" y1="214.595" x2="-74.034" y2="214.595" gradientTransform="rotate(19.026 179.463 976.448)"><stop offset="0" stop-color="#da1c5c"/><stop offset=".249" stop-color="#dd215e"/><stop offset=".543" stop-color="#e72f63"/><stop offset=".86" stop-color="#f6476c"/><stop offset="1" stop-color="#ff5471"/></linearGradient><path fill="url(#fl)" d="M178.948 184.082a4 4 0 0 1-2.39-5.324c.233-.56 5.75-13.77 7.147-16.668a4 4 0 0 1 7.207 3.473c-1.043 2.166-5.018 11.595-6.973 16.278a4 4 0 0 1-4.992 2.242z"/></g><path fill="#FFF" d="M160.707 192.094c1.125 5.337 6.364 8.75 11.7 7.625l10.298-2.173c5.336-1.124 8.752-6.362 7.625-11.7-1.125-5.336-6.363-8.75-11.7-7.624l-10.298 2.172c-5.336 1.125-8.75 6.362-7.625 11.7z"/><g><linearGradient id="fm" gradientUnits="userSpaceOnUse" x1="-155.273" y1="239.398" x2="-145.969" y2="239.398" gradientTransform="rotate(160.974 19.1 .547)"><stop offset="0" stop-color="#da1c5c"/><stop offset=".249" stop-color="#dd215e"/><stop offset=".543" stop-color="#e72f63"/><stop offset=".86" stop-color="#f6476c"/><stop offset="1" stop-color="#ff5471"/></linearGradient><path fill="url(#fm)" d="M262.607 184.082c.082-.028.16-.06.24-.092a4 4 0 0 0 2.15-5.232c-.232-.56-5.752-13.77-7.148-16.668a4 4 0 0 0-7.206 3.473c1.043 2.166 5.016 11.595 6.973 16.278a3.998 3.998 0 0 0 4.99 2.242z"/></g><linearGradient id="fn" gradientUnits="userSpaceOnUse" x1="175.126" y1="184.533" x2="214.191" y2="184.533"><stop offset="0" stop-color="#da1c5c"/><stop offset=".249" stop-color="#dd215e"/><stop offset=".543" stop-color="#e72f63"/><stop offset=".86" stop-color="#f6476c"/><stop offset="1" stop-color="#ff5471"/></linearGradient><circle fill="url(#fn)" cx="194.659" cy="184.533" r="19.533"/><ellipse opacity=".1" fill="#FFF" cx="198.227" cy="184.721" rx="13.965" ry="15.346"/><linearGradient id="fo" gradientUnits="userSpaceOnUse" x1="226.703" y1="181.781" x2="265.769" y2="181.781"><stop offset="0" stop-color="#da1c5c"/><stop offset=".249" stop-color="#dd215e"/><stop offset=".543" stop-color="#e72f63"/><stop offset=".86" stop-color="#f6476c"/><stop offset="1" stop-color="#ff5471"/></linearGradient><circle fill="url(#fo)" cx="246.236" cy="181.781" r="19.533"/><g><path fill="#FFF" d="M139.347 101.672c26.385-12.593 61.34-15.785 89.638-8.223-3.006-4.184-6.455-7.917-10.275-11.1-22.857-4.044-48.68-1.754-70.477 6.248-3.423 3.884-6.41 8.282-8.886 13.074z"/><path fill="#EE2A7B" d="M146.605 90.525c22.478-8.94 47.875-13.745 73.567-6.916a55.953 55.953 0 0 0-4.03-3.28c-22.41-5.405-46.888-1.413-67.236 7.47-1.23 1.267-1.175 1.336-2.3 2.725z"/><path fill="#EE2A7B" d="M139.93 100.565c-.66 1.187-.89 1.67-1.484 2.907 26.8-13.15 62.8-16.453 91.63-8.452a63.472 63.472 0 0 0-2.267-3.162c-27.714-7.102-62.013-4.407-87.88 8.707z"/></g><ellipse opacity=".1" fill="#FFF" cx="243.949" cy="182.721" rx="13.965" ry="15.346"/></svg></svg>