<?xml version="1.0" encoding="utf-8"?>
<!-- Generator: Adobe Illustrator 16.0.0, SVG Export Plug-In . SVG Version: 6.00 Build 0)  -->
<!DOCTYPE svg PUBLIC "-//W3C//DTD SVG 1.1//EN" "http://www.w3.org/Graphics/SVG/1.1/DTD/svg11.dtd">
<svg version="1.1" id="Слой_1" xmlns="http://www.w3.org/2000/svg" xmlns:xlink="http://www.w3.org/1999/xlink" x="0px" y="0px"
	 width="185px" height="200px" viewBox="0 0 185 200" enable-background="new 0 0 185 200" xml:space="preserve">
<g>
	<ellipse opacity="0.2" fill="#0090A8" cx="103.175" cy="183.026" rx="77.916" ry="6.807"/>
	<path fill="none" stroke="#3B3B9B" stroke-width="8" stroke-linecap="round" stroke-miterlimit="10" d="M29.938,179.641
		c0,0,10.75-35.84,38-40.67"/>
	<polygon opacity="0.3" fill="#FFFFFF" points="58.682,64.772 42.707,67.772 43.073,59.772 58.682,59.772 	"/>
	<path fill="none" stroke="#2B2B89" stroke-width="8" stroke-linecap="round" stroke-miterlimit="10" d="M19.676,119.265
		c0,0,27.75,10.173,44.125,6.298"/>
	<ellipse opacity="0.4" fill="#0090A8" cx="98.154" cy="183.026" rx="50.105" ry="4.377"/>
	<g>
		<path fill="none" stroke="#4C4CC1" stroke-width="8" stroke-linecap="round" stroke-miterlimit="10" d="M145.022,179.641
			c0,0-5.75-35.84-33-40.67"/>
	</g>
	<path fill="none" stroke="#3B3B9B" stroke-width="8" stroke-linecap="round" stroke-miterlimit="10" d="M177.022,179.641
		c0,0-11.502-36.334-36-42.67"/>
	<path fill="#B3FFFF" d="M45.862,69.512c5.729-28.408,27.254-50.055,53.915-50.023l0,0c26.664-0.033,48.188,21.615,53.916,50.023
		c2.848,17.996,5.756,46.01,5.635,63.219c0.117,13.703-9.803,23.041-21.117,27.652c-11.646,4.83-24.689,4.932-38.434,5.18l0,0
		c-13.743-0.248-26.784-0.35-38.43-5.18c-11.316-4.611-21.236-13.949-21.119-27.652C40.106,115.521,43.014,87.508,45.862,69.512z"/>
	
		<linearGradient id="SVGID_1_" gradientUnits="userSpaceOnUse" x1="43.5928" y1="92.5254" x2="162.7012" y2="92.5254" gradientTransform="matrix(-1 0 0 1 203.9238 0)">
		<stop  offset="0.0161" style="stop-color:#4E10CB"/>
		<stop  offset="1" style="stop-color:#3093FF"/>
	</linearGradient>
	<path fill="url(#SVGID_1_)" d="M46.862,69.512c5.729-28.408,27.254-50.055,53.915-50.023l0,0
		c26.664-0.033,48.188,21.615,53.916,50.023c2.848,17.996,5.756,46.01,5.635,63.219c0.117,13.703-9.803,23.041-21.117,27.652
		c-11.646,4.83-24.689,4.932-38.434,5.18l0,0c-13.744-0.248-26.784-0.35-38.43-5.18c-11.316-4.611-21.236-13.949-21.119-27.652
		C41.106,115.521,44.014,87.508,46.862,69.512z"/>
	<path fill="none" d="M46.553,69.512c5.729-28.408,27.254-50.055,53.915-50.023l0,0c26.664-0.033,48.188,21.615,53.916,50.023
		c2.848,17.996,5.756,46.01,5.635,63.219c0.117,13.703-9.803,23.041-21.117,27.652c-11.646,4.83-24.689,4.932-38.434,5.18l0,0
		c-13.743-0.248-26.784-0.35-38.43-5.18c-11.316-4.611-21.236-13.949-21.119-27.652C40.797,115.521,43.706,87.508,46.553,69.512z"/>
	<circle fill="#FFFFFF" cx="64.095" cy="84.069" r="16.429"/>
	<circle fill="#39B54A" cx="63.947" cy="84.754" r="13.654"/>
	<circle opacity="0.5" fill="#2CF23F" cx="63.892" cy="84.766" r="11.599"/>
	<circle fill="#231F20" cx="63.771" cy="84.754" r="9.794"/>
	<path opacity="0.2" fill="#27AAE1" d="M57.299,84.846c0,3.574,2.898,1.405,6.473,1.405c3.572,0,6.471,2.169,6.471-1.405
		c0-3.573-2.898-6.471-6.471-6.471C60.198,78.375,57.299,81.272,57.299,84.846z"/>
	<circle fill="#FFFFFF" cx="109.117" cy="84.069" r="16.429"/>
	<circle fill="#FFFFFF" cx="66.404" cy="79.726" r="2.075"/>
	<circle fill="#39B54A" cx="108.946" cy="84.754" r="13.654"/>
	<path opacity="0.5" fill="#2CF23F" d="M97.166,84.754c0,6.681,5.417,11.78,11.78,11.78c6.506,0,11.779-5.272,11.779-11.78
		c0-6.507-5.273-11.78-11.779-11.78C102.438,72.974,97.166,78.247,97.166,84.754z"/>
	<circle fill="#231F20" cx="108.812" cy="84.754" r="9.793"/>
	<path opacity="0.2" fill="#27AAE1" d="M102.341,84.846c0,3.574,2.897,1.405,6.473,1.405c3.572,0,6.471,2.169,6.47-1.405
		c0.001-3.573-2.897-6.471-6.47-6.471C105.238,78.375,102.341,81.272,102.341,84.846z"/>
	<circle fill="#FFFFFF" cx="111.445" cy="79.726" r="2.075"/>
	<circle fill="#FFFFFF" cx="63.363" cy="58.358" r="7.177"/>
	<circle fill="#FFFFFF" cx="117.719" cy="58.358" r="7.177"/>
	<g>
		<circle fill="#39B54A" cx="62.878" cy="59.059" r="5.433"/>
		<circle opacity="0.5" fill="#2CF23F" cx="62.878" cy="59.059" r="4.38"/>
		<circle fill="#231F20" cx="62.878" cy="59.059" r="3.604"/>
		<circle fill="#39B54A" cx="117.167" cy="59.059" r="5.433"/>
		<circle opacity="0.5" fill="#2CF23F" cx="117.167" cy="59.059" r="4.714"/>
		<circle fill="#231F20" cx="117.167" cy="59.059" r="3.637"/>
		<path opacity="0.2" fill="#27AAE1" d="M114.612,58.821c0,1.41,1.145,0.555,2.555,0.555s2.555,0.855,2.554-0.555
			c0.001-1.41-1.144-2.554-2.554-2.554S114.612,57.411,114.612,58.821z"/>
		<path opacity="0.2" fill="#27AAE1" d="M60.348,58.823c0,1.397,1.133,0.55,2.529,0.55c1.398,0,2.531,0.848,2.531-0.55
			s-1.133-2.531-2.531-2.531C61.481,56.293,60.348,57.426,60.348,58.823z"/>
		<circle fill="#FFFFFF" cx="63.911" cy="57.056" r="0.756"/>
		<circle fill="#FFFFFF" cx="118.209" cy="57.038" r="0.763"/>
	</g>
	<path opacity="0.1" fill="#F1F2F2" d="M136.087,59.772V104.5H93.799l-3.061-9.464c-1-3.125-2.127-5.446-4.751-5.446
		c-2.623,0-3.663,2.485-4.75,5.446l-3.061,9.464H43.032l2.041-44.728H136.087z"/>
	
		<linearGradient id="SVGID_2_" gradientUnits="userSpaceOnUse" x1="116.3652" y1="59.7729" x2="116.3652" y2="104.4995" gradientTransform="matrix(-1 0 0 1 203.9238 0)">
		<stop  offset="0" style="stop-color:#FFFFFF"/>
		<stop  offset="1" style="stop-color:#FFFFFF;stop-opacity:0"/>
	</linearGradient>
	<path opacity="0.5" fill="url(#SVGID_2_)" d="M134.087,59.772V104.5H91.799l-3.061-9.464c-1-3.125-2.127-5.446-4.75-5.446
		c-2.623,0-3.663,2.485-4.751,5.446l-3.061,9.464H41.032l1.021-22.363l1.021-22.364H134.087z"/>
	
		<linearGradient id="SVGID_3_" gradientUnits="userSpaceOnUse" x1="116.3643" y1="104.501" x2="116.3643" y2="59.7725" gradientTransform="matrix(-1 0 0 1 203.9238 0)">
		<stop  offset="0" style="stop-color:#00FFFF;stop-opacity:0.7"/>
		<stop  offset="0.3656" style="stop-color:#00FFFF;stop-opacity:0"/>
	</linearGradient>
	<path fill="url(#SVGID_3_)" d="M134.087,59.772V104.5H91.799l-3.061-9.464c-1-3.125-2.127-5.446-4.75-5.446
		c-2.623,0-3.663,2.485-4.751,5.446l-3.061,9.464H41.032l1.021-22.363l1.021-22.364H134.087z"/>
	<path opacity="0.2" fill="#262262" d="M42.623,104.5l1.969,2.501h35.933c0,0,3.308-15.309,6.562-15.696
		c0,0-1.065-1.447-2.082-1.581c0,0-1.547,0.276-2.766,2.901S78.176,104.5,78.176,104.5H42.623z"/>
	<polygon opacity="0.2" fill="#262262" points="91.799,104.5 92.688,107.001 138.925,107.001 138.925,61.917 136.087,59.772 
		136.087,104.583 	"/>
	<polygon opacity="0.2" fill="#FFFFFF" points="134.087,59.772 43.073,59.772 42.166,82.65 134.087,82.65 	"/>
	<polygon opacity="0.3" fill="#FFFFFF" points="153.39,64.102 134.087,67.772 134.087,59.772 153.39,59.772 	"/>
	<path opacity="0.2" fill="#262262" d="M138.925,69.313l14.91-3.55c0,0-0.332-1.661-0.445-1.661c-0.289,0-14.465,2.758-14.465,2.758
		V69.313z"/>
	<path opacity="0.8" fill="#31E7FF" d="M146.845,48.357l1.396-11.725c0,0,0.78-20.021-31.074-27.758
		C84.745,1,74.001,18.316,74.001,18.316l-3.764,11.097c0,0,4.813-6.824,33.054-1.913C124.013,31.104,146.845,48.357,146.845,48.357z
		"/>
	<path fill="#8DF7FF" d="M146.845,48.357l0.201-1.691c-2.355-2.037-25.928-21.267-49.88-22.749
		c-23.952-1.482-26.057,2.782-26.057,2.782l-0.871,2.714c0,0,4.771-4.745,26.514-2.901
		C121.881,28.643,146.845,48.357,146.845,48.357z"/>
	
		<radialGradient id="SVGID_4_" cx="121.3623" cy="477.6328" r="33.9409" gradientTransform="matrix(-1.5413 0 0 0.2598 266.998 59.8814)" gradientUnits="userSpaceOnUse">
		<stop  offset="0.0161" style="stop-color:#00FF10"/>
		<stop  offset="0.6398" style="stop-color:#00FF10;stop-opacity:0.3"/>
		<stop  offset="1" style="stop-color:#00FF10;stop-opacity:0"/>
	</radialGradient>
	<ellipse fill="url(#SVGID_4_)" cx="79.943" cy="183.972" rx="72.85" ry="10.861"/>
	<g>
		<ellipse fill="#0090A8" cx="78.985" cy="181.4" rx="27.388" ry="8.434"/>
		<path opacity="0.4" fill="#F1F2F2" d="M71.28,141.813v-24.352c-0.969-0.19-1.7-1.043-1.7-2.068c0-1.163,0.944-2.108,2.108-2.108
			H86.45c1.166,0,2.11,0.945,2.11,2.108c0,1.064-0.79,1.937-1.816,2.08v24.34l19.682,38.249c0,5.114-12.273,9.26-27.415,9.26
			c-15.141,0-27.414-4.146-27.414-9.26L71.28,141.813z"/>
		<path fill="#FFF200" d="M87.54,146.875l17.135,32.695c0,0-4.026,7.959-25.664,7.959c-21.638,0-25.408-7.122-25.408-7.122
			l16.75-33.532H87.54z"/>
		
			<linearGradient id="SVGID_5_" gradientUnits="userSpaceOnUse" x1="124.7852" y1="187.5303" x2="124.7852" y2="146.876" gradientTransform="matrix(-1 0 0 1 203.9238 0)">
			<stop  offset="0" style="stop-color:#00FF00"/>
			<stop  offset="1" style="stop-color:#00FF00;stop-opacity:0"/>
		</linearGradient>
		<path opacity="0.9" fill="url(#SVGID_5_)" d="M87.54,146.875l17.135,32.695c0,0-4.026,7.959-25.664,7.959
			c-21.638,0-25.408-7.122-25.408-7.122l16.75-33.532H87.54z"/>
		<ellipse fill="#FFFF83" cx="78.956" cy="146.955" rx="8.719" ry="1.545"/>
		<path opacity="0.2" fill="#F1F2F2" d="M71.28,141.813v-24.352c-0.969-0.19-1.7-1.043-1.7-2.068c0-1.163,0.944-2.108,2.108-2.108
			h4.485v29.944l-13.378,44.297c-6.789-1.685-11.198-4.399-11.198-7.464L71.28,141.813z"/>
		<path opacity="0.5" fill="#F1F2F2" d="M88.529,115.402L88.529,115.402c0-1.168-0.949-2.117-2.119-2.117H71.718
			c-1.17,0-2.119,0.949-2.119,2.117l0,0"/>
	</g>
	<circle fill="#FFFFFF" cx="85.717" cy="160.264" r="1.958"/>
	<circle fill="#FFFFFF" cx="73.769" cy="153.281" r="0.781"/>
	<circle fill="#FFFFFF" cx="83.903" cy="148.346" r="0.915"/>
	<path fill="none" stroke="#2B2B89" stroke-width="8" stroke-linecap="round" stroke-miterlimit="10" d="M155.793,118.023
		c0,0,8.132,0.696,8.132,12.42s-11.132,18.057-33.379,11.527c-24.583-7.215-32.643,3.189-32.643,3.189"/>
	<path opacity="0.2" fill="#39B54A" d="M53.603,180.39c0,0.86,5.885,7.14,25.522,7.14c14.095,0,25.522-4.301,25.522-7.14
		c0-2.838-11.427-5.14-25.522-5.14C65.03,175.25,53.603,177.552,53.603,180.39z"/>
	<circle fill="#FFFFFF" cx="77.321" cy="135.152" r="1.818"/>
	<circle fill="#FFFFFF" cx="82.758" cy="123.168" r="1"/>
	<g opacity="0.8">
		
			<rect x="13.932" y="94.54" transform="matrix(-0.9659 0.259 -0.259 -0.9659 54.904 183.2644)" opacity="0.4" fill="#FFFFFF" width="2.896" height="1.418"/>
		
			<rect x="14.708" y="97.439" transform="matrix(-0.9657 0.2596 -0.2596 -0.9657 57.2338 188.7369)" opacity="0.4" fill="#FFFFFF" width="2.897" height="1.417"/>
		
			<rect x="15.487" y="100.337" transform="matrix(-0.9658 0.2593 -0.2593 -0.9658 59.4938 194.2416)" opacity="0.4" fill="#FFFFFF" width="2.896" height="1.417"/>
		
			<rect x="16.266" y="103.233" transform="matrix(-0.9659 0.2591 -0.2591 -0.9659 61.7521 199.7442)" opacity="0.4" fill="#FFFFFF" width="2.895" height="1.417"/>
		
			<rect x="17.043" y="106.131" transform="matrix(-0.9657 0.2596 -0.2596 -0.9657 64.0866 205.214)" opacity="0.4" fill="#FFFFFF" width="2.896" height="1.417"/>
		
			<rect x="17.821" y="109.028" transform="matrix(-0.9657 0.2597 -0.2597 -0.9657 66.3766 210.7025)" opacity="0.4" fill="#FFFFFF" width="2.895" height="1.418"/>
		
			<rect x="18.6" y="111.925" transform="matrix(-0.9659 0.2591 -0.2591 -0.9659 68.5915 216.2275)" opacity="0.4" fill="#FFFFFF" width="2.895" height="1.418"/>
		
			<rect x="19.376" y="114.823" transform="matrix(-0.9658 0.2593 -0.2593 -0.9658 70.8957 221.7102)" opacity="0.4" fill="#FFFFFF" width="2.896" height="1.417"/>
		
			<rect x="20.155" y="117.719" transform="matrix(-0.9658 0.2594 -0.2594 -0.9658 73.1865 227.1987)" opacity="0.4" fill="#FFFFFF" width="2.895" height="1.418"/>
		
			<rect x="20.933" y="120.618" transform="matrix(-0.9658 0.2594 -0.2594 -0.9658 75.4682 232.6935)" opacity="0.4" fill="#FFFFFF" width="2.895" height="1.417"/>
	</g>
	<path opacity="0.4" fill="#F1F2F2" d="M4.885,91.746c-0.212-0.788,0.255-1.6,1.043-1.811l10-2.686
		c0.79-0.212,1.602,0.257,1.813,1.044c0.193,0.722-0.184,1.456-0.852,1.739l12.346,45.982h-0.003c0.644,2.512-1.145,5.16-4.02,5.933
		c-2.873,0.771-5.747-0.626-6.45-3.12H18.76L6.413,92.838C5.722,92.885,5.071,92.441,4.885,91.746z"/>
	
		<linearGradient id="SVGID_6_" gradientUnits="userSpaceOnUse" x1="-144.9067" y1="182.3867" x2="-144.9067" y2="153.7715" gradientTransform="matrix(-0.9658 0.2593 0.2593 0.9658 -162.3145 2.1279)">
		<stop  offset="0.0108" style="stop-color:#FF21FF"/>
		<stop  offset="1" style="stop-color:#EE2A7B"/>
	</linearGradient>
	<path fill="url(#SVGID_6_)" d="M21.919,114.023l5.844,21.766c0.574,2.139-0.693,4.339-2.832,4.914
		c-2.14,0.574-4.34-0.695-4.915-2.834l-6.331-23.775L21.919,114.023z"/>
	<path opacity="0.5" fill="#F1F2F2" d="M17.741,88.294c0,0-0.493-1.398-1.813-1.044c-1.318,0.354-8.882,2.385-10,2.686
		c-1.116,0.299-1.152,1.405-1.043,1.811L17.741,88.294z"/>
	<ellipse fill="#FF61A9" cx="17.802" cy="114.041" rx="4.123" ry="0.419"/>
	<path opacity="0.2" fill="#F1F2F2" d="M5.928,89.936l4.154-1.116l14.305,53.274c-2.579,0.33-4.991-1.01-5.625-3.266H18.76
		L6.413,92.838c-0.69,0.047-1.342-0.396-1.527-1.092C4.673,90.958,5.14,90.146,5.928,89.936z"/>
	<path fill="none" stroke="#2A2A7F" stroke-width="8" stroke-linecap="round" stroke-miterlimit="10" d="M135.087,54.772
		c0,0,8.909,13.728,21.748,22.478c12.842,8.75,12.424,19.837-1.91,28.649"/>
</g>
</svg>
