<?xml version="1.0" encoding="utf-8"?>
<!-- Generator: Adobe Illustrator 16.0.0, SVG Export Plug-In . SVG Version: 6.00 Build 0)  -->
<!DOCTYPE svg PUBLIC "-//W3C//DTD SVG 1.1//EN" "http://www.w3.org/Graphics/SVG/1.1/DTD/svg11.dtd">
<svg version="1.1" id="Слой_1" xmlns="http://www.w3.org/2000/svg" xmlns:xlink="http://www.w3.org/1999/xlink" x="0px" y="0px"
	 width="365px" height="240px" viewBox="0 0 365 240" enable-background="new 0 0 365 240" xml:space="preserve">
<path opacity="0.2" fill="#0090A8" d="M262.715,232.335c0,3.76-34.883,6.807-77.918,6.807c-43.032,0-77.916-3.047-77.916-6.807
	s34.884-6.807,77.916-6.807C227.832,225.528,262.715,228.575,262.715,232.335z"/>
<ellipse opacity="0.3" fill="#0090A8" cx="189.819" cy="232.335" rx="50.105" ry="4.377"/>
<path fill="none" stroke="#262262" stroke-linecap="round" stroke-miterlimit="10" d="M183.262,74.465c0,0,0-2.982,1.453-5.965"/>
<path fill="none" stroke="#262262" stroke-linecap="round" stroke-miterlimit="10" d="M179.714,71.465c0,0-1.307-1.297-1.07-4.631"
	/>
<path fill="none" stroke="#262262" stroke-linecap="round" stroke-miterlimit="10" d="M176.126,75.167c0,0-0.745-3.333-2.766-5.007"
	/>
<path fill="none" stroke="#008438" stroke-width="8" stroke-linecap="round" stroke-miterlimit="10" d="M239.137,157.84
	c0,0,18.336,1.5,13.336,18.25"/>
<g>
	<g>
		<path fill="#71FFFF" d="M355.008,20.033l-13.613-3.219l-5.23,22.111c-3.635,7.537-6.926,16.866-9.361,27.168
			c-2.438,10.303-3.676,20.117-3.801,28.484l-5.23,22.111l13.611,3.219c9.053,2.142,21.68-18.48,28.203-46.061
			C366.107,46.269,364.059,22.174,355.008,20.033z"/>
		
			<radialGradient id="SVGID_1_" cx="161.2573" cy="82.8901" r="38.2716" gradientTransform="matrix(0.9731 0.2302 -0.2302 0.9731 204.3135 -48.0576)" gradientUnits="userSpaceOnUse">
			<stop  offset="0" style="stop-color:#64E48A"/>
			<stop  offset="1" style="stop-color:#00914C"/>
		</radialGradient>
		<path fill="url(#SVGID_1_)" d="M353.963,19.786l-13.9-3.287l-5.229,22.112c-3.674,7.527-6.984,16.852-9.422,27.154
			c-2.436,10.303-3.654,20.121-3.742,28.498l-5.23,22.11l13.902,3.288c9.242,2.187,22.025-18.399,28.549-45.979
			S363.207,21.974,353.963,19.786z"/>
		
			<ellipse transform="matrix(-0.9731 -0.2302 0.2302 -0.9731 632.3947 206.6469)" fill="#006B84" cx="328.251" cy="66.436" rx="17.201" ry="51.316"/>
		<path fill="#004D6B" d="M312.766,62.602c-6.225,26.321-4.424,49.276,4.021,51.274c8.441,1.997,20.336-17.72,26.561-44.041
			c6.227-26.321,4.426-49.275-4.016-51.272C330.885,16.564,318.99,36.279,312.766,62.602z"/>
	</g>
	<g>
		<path fill="#71FFFF" d="M335.545,15.43l-13.611-3.219l-5.23,22.112c-3.637,7.536-6.926,16.865-9.361,27.168
			c-2.438,10.302-3.676,20.116-3.801,28.483l-5.23,22.111l13.611,3.219c9.053,2.142,21.68-18.48,28.203-46.06
			S344.598,17.571,335.545,15.43z"/>
		
			<radialGradient id="SVGID_2_" cx="141.2578" cy="82.8906" r="38.2719" gradientTransform="matrix(0.9731 0.2302 -0.2302 0.9731 204.3135 -48.0576)" gradientUnits="userSpaceOnUse">
			<stop  offset="0" style="stop-color:#00D4CB"/>
			<stop  offset="1" style="stop-color:#0099B9"/>
		</radialGradient>
		<path fill="url(#SVGID_2_)" d="M334.504,15.184l-13.902-3.288l-5.23,22.112c-3.672,7.527-6.982,16.853-9.42,27.154
			c-2.436,10.303-3.652,20.122-3.742,28.499l-5.23,22.109l13.9,3.289c9.244,2.186,22.027-18.4,28.551-45.979
			C345.951,41.502,343.746,17.37,334.504,15.184z"/>
		
			<ellipse transform="matrix(-0.9731 -0.2302 0.2302 -0.9731 595.0511 193.0893)" fill="#006B84" cx="308.789" cy="61.833" rx="17.2" ry="51.315"/>
		<path fill="#004D6B" d="M293.305,57.999c-6.227,26.32-4.426,49.276,4.021,51.274c8.441,1.996,20.336-17.721,26.561-44.04
			c6.227-26.323,4.426-49.276-4.016-51.273C311.424,11.962,299.531,31.677,293.305,57.999z"/>
	</g>
	<g>
		<path fill="#71FFFF" d="M316.084,10.827l-13.611-3.22l-5.23,22.113c-3.635,7.536-6.926,16.865-9.363,27.167
			c-2.436,10.303-3.674,20.116-3.799,28.485l-5.23,22.109l13.611,3.221c9.053,2.141,21.68-18.481,28.203-46.062
			C327.186,37.063,325.137,12.968,316.084,10.827z"/>
		
			<radialGradient id="SVGID_3_" cx="121.2588" cy="82.8926" r="38.271" gradientTransform="matrix(0.9731 0.2302 -0.2302 0.9731 204.3135 -48.0576)" gradientUnits="userSpaceOnUse">
			<stop  offset="0" style="stop-color:#64E48A"/>
			<stop  offset="1" style="stop-color:#00914C"/>
		</radialGradient>
		<path fill="url(#SVGID_3_)" d="M315.041,10.581l-13.9-3.288l-5.23,22.112c-3.672,7.527-6.984,16.852-9.42,27.154
			c-2.438,10.302-3.654,20.122-3.744,28.498l-5.229,22.11l13.902,3.288c9.242,2.187,22.023-18.398,28.547-45.979
			C326.49,36.898,324.285,12.767,315.041,10.581z"/>
		
			<ellipse transform="matrix(-0.9731 -0.2302 0.2302 -0.9731 557.7152 179.5228)" fill="#006B84" cx="289.329" cy="57.23" rx="17.201" ry="51.316"/>
		<path fill="#004D6B" d="M273.844,53.396c-6.227,26.321-4.426,49.276,4.021,51.274c8.441,1.997,20.336-17.72,26.561-44.04
			c6.227-26.323,4.426-49.276-4.016-51.273C291.963,7.358,280.068,27.073,273.844,53.396z"/>
	</g>
	<path fill="#71FFFF" d="M296.623,6.224L283.01,3.005l-5.229,22.111c-3.637,7.537-6.926,16.866-9.361,27.169
		c-2.438,10.302-3.676,20.116-3.803,28.484l-5.23,22.11L273,106.1c9.051,2.141,21.68-18.481,28.201-46.061
		C307.727,32.46,305.674,8.365,296.623,6.224z"/>
	
		<radialGradient id="SVGID_4_" cx="101.2607" cy="82.8926" r="38.2719" gradientTransform="matrix(0.9731 0.2302 -0.2302 0.9731 204.3135 -48.0576)" gradientUnits="userSpaceOnUse">
		<stop  offset="0" style="stop-color:#00D4CB"/>
		<stop  offset="1" style="stop-color:#0099B9"/>
	</radialGradient>
	<path fill="url(#SVGID_4_)" d="M295.58,5.978l-13.902-3.288l-5.229,22.113c-3.674,7.527-6.984,16.852-9.42,27.153
		c-2.438,10.303-3.654,20.122-3.742,28.498l-5.23,22.11l13.9,3.289c9.244,2.186,22.025-18.399,28.551-45.979
		C307.029,32.295,304.822,8.164,295.58,5.978z"/>
	
		<ellipse transform="matrix(-0.9731 -0.2302 0.2302 -0.9731 520.3752 165.9567)" fill="#006B84" cx="269.867" cy="52.627" rx="17.2" ry="51.315"/>
	<path fill="#004D6B" d="M256.467,49.286c-5.641,23.852-4.627,44.507,2.27,46.138c6.893,1.63,17.053-16.382,22.695-40.232
		c5.643-23.854,4.625-44.508-2.268-46.139C272.27,7.423,262.109,25.434,256.467,49.286z"/>
	<g opacity="0.5">
		
			<rect x="274.457" y="15.854" transform="matrix(-0.9732 -0.23 0.23 -0.9732 537.2655 106.2332)" fill="#1C75BC" width="0.735" height="11.898"/>
		<polygon fill="#1C75BC" points="278.871,18.416 279.268,16.741 277.395,16.298 277.121,17.451 276.998,17.973 276.154,21.536 
			276.025,22.088 275.826,22.925 276.764,23.146 275.982,26.448 275.045,26.227 274.654,27.877 275.592,28.099 276.129,28.225 
			276.529,28.32 277.701,23.368 277.898,22.531 278.029,21.979 276.66,21.655 277.502,18.092 		"/>
	</g>
	<g opacity="0.5">
		
			<rect x="260.318" y="75.628" transform="matrix(-0.9732 -0.23 0.23 -0.9732 495.6191 220.9256)" fill="#1C75BC" width="0.735" height="11.898"/>
		<polygon fill="#1C75BC" points="264.734,78.189 265.129,76.515 263.256,76.071 262.982,77.226 262.859,77.746 262.018,81.31 
			261.887,81.861 261.688,82.699 262.625,82.921 261.844,86.223 260.906,86.001 260.518,87.65 261.455,87.872 261.99,87.999 
			262.391,88.094 263.563,83.143 263.76,82.305 263.891,81.752 262.523,81.429 263.365,77.865 		"/>
	</g>
	
		<radialGradient id="SVGID_5_" cx="75.1245" cy="82.9902" r="14.4505" gradientTransform="matrix(0.9258 0.219 -0.2302 0.9731 219.1128 -44.6563)" gradientUnits="userSpaceOnUse">
		<stop  offset="0" style="stop-color:#00D4CB"/>
		<stop  offset="1" style="stop-color:#0099B9"/>
	</radialGradient>
	<path opacity="0.6" fill="url(#SVGID_5_)" d="M263.547,51.133c-2.463,10.411-1.766,19.492,1.553,20.277
		c3.32,0.785,8.01-7.021,10.471-17.434c2.465-10.412,1.77-19.492-1.551-20.278C270.701,32.913,266.01,40.721,263.547,51.133z"/>
	
		<ellipse transform="matrix(-0.9732 -0.2302 0.2302 -0.9732 517.7094 164.9871)" fill="#006B84" cx="268.478" cy="52.298" rx="6.494" ry="19.376"/>
	
		<ellipse transform="matrix(-0.9731 -0.2302 0.2302 -0.9731 517.6979 165.0082)" fill="#004D6B" cx="268.477" cy="52.298" rx="1.911" ry="5.7"/>
</g>
<g>
	<g>
		<path fill="#71FFFF" d="M10.392,20.033l13.612-3.219l5.23,22.111c3.636,7.537,6.926,16.866,9.361,27.168
			c2.438,10.303,3.676,20.117,3.802,28.484l5.229,22.111l-13.611,3.219c-9.053,2.142-21.679-18.48-28.202-46.061
			C-0.708,46.269,1.341,22.174,10.392,20.033z"/>
		
			<radialGradient id="SVGID_6_" cx="401.9111" cy="25.9604" r="38.272" gradientTransform="matrix(-0.9731 0.2302 0.2302 0.9731 408.3701 -48.0576)" gradientUnits="userSpaceOnUse">
			<stop  offset="0" style="stop-color:#64E48A"/>
			<stop  offset="1" style="stop-color:#00914C"/>
		</radialGradient>
		<path fill="url(#SVGID_6_)" d="M11.436,19.786l13.9-3.287l5.229,22.112c3.674,7.527,6.984,16.852,9.421,27.154
			c2.436,10.303,3.654,20.121,3.743,28.498l5.229,22.11l-13.901,3.288c-9.242,2.187-22.026-18.399-28.55-45.979
			C-0.014,46.104,2.193,21.974,11.436,19.786z"/>
		
			<ellipse transform="matrix(0.9731 -0.2302 0.2302 0.9731 -14.2955 10.3354)" fill="#006B84" cx="37.148" cy="66.436" rx="17.201" ry="51.316"/>
		<path fill="#004D6B" d="M52.633,62.602c6.226,26.321,4.425,49.276-4.021,51.274c-8.441,1.997-20.336-17.72-26.561-44.041
			c-6.226-26.321-4.425-49.275,4.017-51.272C34.515,16.564,46.409,36.279,52.633,62.602z"/>
	</g>
	<g>
		<path fill="#71FFFF" d="M29.854,15.43l13.611-3.219l5.23,22.112c3.637,7.536,6.926,16.865,9.362,27.168
			c2.437,10.302,3.675,20.116,3.801,28.483l5.23,22.111l-13.612,3.219c-9.052,2.142-21.679-18.48-28.202-46.06
			S20.801,17.571,29.854,15.43z"/>
		
			<radialGradient id="SVGID_7_" cx="381.9111" cy="25.9614" r="38.2718" gradientTransform="matrix(-0.9731 0.2302 0.2302 0.9731 408.3701 -48.0576)" gradientUnits="userSpaceOnUse">
			<stop  offset="0" style="stop-color:#00D4CB"/>
			<stop  offset="1" style="stop-color:#0099B9"/>
		</radialGradient>
		<path fill="url(#SVGID_7_)" d="M30.896,15.184l13.901-3.288l5.23,22.112c3.672,7.527,6.982,16.853,9.42,27.154
			c2.437,10.303,3.653,20.122,3.743,28.499l5.229,22.109l-13.9,3.289c-9.244,2.186-22.026-18.4-28.55-45.979
			C19.448,41.502,21.653,17.37,30.896,15.184z"/>
		
			<ellipse transform="matrix(0.9731 -0.2302 0.2302 0.9731 -12.7133 14.6918)" fill="#006B84" cx="56.61" cy="61.833" rx="17.201" ry="51.315"/>
		<path fill="#004D6B" d="M72.095,57.999c6.226,26.32,4.425,49.276-4.022,51.274c-8.441,1.996-20.335-17.721-26.561-44.04
			c-6.227-26.323-4.425-49.276,4.017-51.273C53.975,11.962,65.869,31.677,72.095,57.999z"/>
	</g>
	<g>
		<path fill="#71FFFF" d="M49.315,10.827l13.611-3.22l5.23,22.113c3.636,7.536,6.926,16.865,9.363,27.167
			c2.436,10.303,3.675,20.116,3.8,28.485l5.229,22.109l-13.611,3.221c-9.052,2.141-21.679-18.481-28.202-46.062
			C38.213,37.063,40.263,12.968,49.315,10.827z"/>
		
			<radialGradient id="SVGID_8_" cx="361.9121" cy="25.9629" r="38.2714" gradientTransform="matrix(-0.9731 0.2302 0.2302 0.9731 408.3701 -48.0576)" gradientUnits="userSpaceOnUse">
			<stop  offset="0" style="stop-color:#64E48A"/>
			<stop  offset="1" style="stop-color:#00914C"/>
		</radialGradient>
		<path fill="url(#SVGID_8_)" d="M50.358,10.581l13.901-3.288l5.23,22.112c3.672,7.527,6.983,16.852,9.42,27.154
			c2.437,10.302,3.653,20.122,3.743,28.498l5.229,22.11l-13.902,3.288c-9.242,2.187-22.024-18.398-28.548-45.979
			C38.909,36.898,41.115,12.767,50.358,10.581z"/>
		
			<ellipse transform="matrix(0.9731 -0.2302 0.2302 0.9731 -11.1308 19.0473)" fill="#006B84" cx="76.071" cy="57.23" rx="17.201" ry="51.316"/>
		<path fill="#004D6B" d="M91.555,53.396c6.227,26.321,4.426,49.276-4.021,51.274c-8.442,1.997-20.337-17.72-26.562-44.04
			c-6.226-26.323-4.425-49.276,4.017-51.273C73.437,7.358,85.331,27.073,91.555,53.396z"/>
	</g>
	<path fill="#71FFFF" d="M68.777,6.224l13.612-3.219l5.229,22.111c3.637,7.537,6.925,16.866,9.361,27.169
		c2.437,10.302,3.676,20.116,3.803,28.484l5.229,22.11L92.4,106.1c-9.052,2.141-21.68-18.481-28.202-46.061
		C57.673,32.46,59.725,8.365,68.777,6.224z"/>
	
		<radialGradient id="SVGID_9_" cx="341.9141" cy="25.9634" r="38.2718" gradientTransform="matrix(-0.9731 0.2302 0.2302 0.9731 408.3701 -48.0576)" gradientUnits="userSpaceOnUse">
		<stop  offset="0" style="stop-color:#00D4CB"/>
		<stop  offset="1" style="stop-color:#0099B9"/>
	</radialGradient>
	<path fill="url(#SVGID_9_)" d="M69.82,5.978l13.901-3.288l5.229,22.113c3.674,7.527,6.984,16.852,9.421,27.153
		c2.437,10.303,3.653,20.122,3.742,28.498l5.23,22.11l-13.9,3.289c-9.244,2.186-22.026-18.399-28.551-45.979
		C58.37,32.295,60.577,8.164,69.82,5.978z"/>
	
		<ellipse transform="matrix(0.9732 -0.2302 0.2302 0.9732 -9.548 23.4012)" fill="#006B84" cx="95.532" cy="52.627" rx="17.201" ry="51.315"/>
	<path fill="#004D6B" d="M108.932,49.286c5.642,23.852,4.627,44.507-2.269,46.138c-6.893,1.63-17.054-16.382-22.696-40.232
		c-5.642-23.854-4.625-44.508,2.268-46.139C93.129,7.423,103.291,25.434,108.932,49.286z"/>
	<g opacity="0.5">
		
			<rect x="90.208" y="15.854" transform="matrix(0.9731 -0.2303 0.2303 0.9731 -2.5867 21.4456)" fill="#1C75BC" width="0.734" height="11.898"/>
		<polygon fill="#1C75BC" points="86.528,18.416 86.131,16.741 88.005,16.298 88.279,17.451 88.402,17.973 89.245,21.536 
			89.375,22.088 89.573,22.925 88.636,23.146 89.417,26.448 90.354,26.227 90.745,27.877 89.808,28.099 89.271,28.225 88.871,28.32 
			87.699,23.368 87.501,22.531 87.371,21.979 88.739,21.655 87.897,18.092 		"/>
	</g>
	<g opacity="0.5">
		
			<rect x="104.346" y="75.628" transform="matrix(0.9732 -0.23 0.23 0.9732 -15.9556 26.2714)" fill="#1C75BC" width="0.735" height="11.898"/>
		<polygon fill="#1C75BC" points="100.666,78.189 100.27,76.515 102.144,76.071 102.417,77.226 102.54,77.746 103.382,81.31 
			103.513,81.861 103.711,82.699 102.775,82.921 103.555,86.223 104.493,86.001 104.882,87.65 103.945,87.872 103.41,87.999 
			103.008,88.094 101.837,83.143 101.639,82.305 101.508,81.752 102.876,81.429 102.035,77.865 		"/>
	</g>
	
		<radialGradient id="SVGID_10_" cx="328.0742" cy="26.063" r="14.4509" gradientTransform="matrix(-0.9258 0.219 0.2302 0.9731 393.5713 -44.6563)" gradientUnits="userSpaceOnUse">
		<stop  offset="0" style="stop-color:#00D4CB"/>
		<stop  offset="1" style="stop-color:#0099B9"/>
	</radialGradient>
	<path opacity="0.6" fill="url(#SVGID_10_)" d="M101.852,51.133c2.464,10.411,1.767,19.492-1.552,20.277
		c-3.321,0.785-8.01-7.021-10.472-17.434c-2.464-10.412-1.77-19.492,1.551-20.278C94.699,32.913,99.39,40.721,101.852,51.133z"/>
	
		<ellipse transform="matrix(0.9732 -0.2301 0.2301 0.9732 -9.4346 23.7105)" fill="#006B84" cx="96.922" cy="52.298" rx="6.494" ry="19.376"/>
	
		<ellipse transform="matrix(0.9731 -0.2302 0.2302 0.9731 -9.4375 23.7215)" fill="#004D6B" cx="96.922" cy="52.298" rx="1.911" ry="5.7"/>
</g>
<path fill="none" stroke="#008438" stroke-width="8" stroke-linecap="round" stroke-miterlimit="10" d="M225.438,155.281
	c0,0,10-50.141,0-116.641"/>
<g>
	<path fill="none" stroke="#009444" stroke-width="8" stroke-linecap="round" stroke-miterlimit="10" d="M142.126,230.641
		c0,0,5.75-35.84,33-40.67"/>
</g>
<path fill="none" stroke="#009444" stroke-width="8" stroke-linecap="round" stroke-miterlimit="10" d="M235.125,230.641
	c0,0-10.75-35.84-38-40.67"/>
<path fill="none" stroke="#008438" stroke-width="8" stroke-linecap="round" stroke-miterlimit="10" d="M110.126,230.641
	c0,0,11.502-36.334,36-42.67"/>
<path fill="none" stroke="#008438" stroke-width="8" stroke-linecap="round" stroke-miterlimit="10" d="M258.137,230.641
	c0,0-10.75-35.84-38-40.67"/>
<g opacity="0.5">
	<path fill="#006838" d="M220.835,186.031c-2.177-0.386-4.251,1.065-4.637,3.24c-0.386,2.176,1.065,4.252,3.24,4.637
		c9.151,1.623,16.32,7.285,21.716,13.756c2.02-1.848,3.815-3.912,5.296-6.195C240.154,194.253,231.741,187.965,220.835,186.031z"/>
	<path fill="#006838" d="M197.824,186.032c-2.176-0.387-4.252,1.065-4.637,3.24c-0.387,2.175,1.064,4.251,3.24,4.637
		c13.438,2.382,22.594,13.472,28.142,23.044c1.315-0.431,2.62-0.897,3.903-1.43c1.224-0.498,2.43-1.052,3.612-1.653
		C225.792,202.662,214.844,189.049,197.824,186.032z"/>
	<path fill="#006838" d="M174.428,186.032c-17.035,3.02-26.361,16.511-31.273,27.774c1.222,0.627,2.469,1.201,3.734,1.717
		c1.225,0.508,2.469,0.954,3.722,1.368c4.198-9.5,11.866-20.616,25.213-22.982c2.175-0.386,3.626-2.462,3.24-4.637
		S176.601,185.645,174.428,186.032z"/>
	<path fill="#006838" d="M145.125,184.098c-7.495,1.939-13.823,6.321-19.059,11.631c0.964,2.693,2.332,5.162,4.01,7.4
		c4.667-5.209,10.343-9.551,17.052-11.285c2.139-0.554,3.424-2.736,2.871-4.875S147.262,183.543,145.125,184.098z"/>
</g>
<path fill="#FFFFFF" d="M241.598,120.486c-5.729-28.408-27.254-50.055-53.918-50.023l0,0c-26.663-0.033-48.187,21.615-53.915,50.023
	c-2.847,17.996-5.755,46.01-5.635,63.219c-0.117,13.703,9.803,23.041,21.118,27.652c11.646,4.83,24.688,4.932,38.432,5.18l0,0
	c13.744-0.248,26.787-0.35,38.434-5.18c11.316-4.611,21.236-13.949,21.119-27.652C247.352,166.496,244.443,138.482,241.598,120.486z
	"/>
<linearGradient id="SVGID_11_" gradientUnits="userSpaceOnUse" x1="127.1265" y1="143.5" x2="246.2363" y2="143.5">
	<stop  offset="0" style="stop-color:#FAAC18"/>
	<stop  offset="0.5" style="stop-color:#FFCA05"/>
	<stop  offset="1" style="stop-color:#FFE76C"/>
</linearGradient>
<path fill="url(#SVGID_11_)" d="M240.598,120.486c-5.729-28.408-27.254-50.055-53.918-50.023l0,0
	c-26.663-0.033-48.187,21.615-53.915,50.023c-2.847,17.996-5.755,46.01-5.635,63.219c-0.117,13.703,9.803,23.041,21.118,27.652
	c11.646,4.83,24.688,4.932,38.432,5.18l0,0c13.744-0.248,26.787-0.35,38.434-5.18c11.316-4.611,21.236-13.949,21.119-27.652
	C246.352,166.496,243.443,138.482,240.598,120.486z"/>
<path fill="none" stroke="#008438" stroke-width="8" stroke-linecap="round" stroke-miterlimit="10" d="M135.437,146.281
	c0,0-16.889-15.522,4-107.641"/>
<path fill="none" stroke="#004D6B" stroke-width="6" stroke-miterlimit="10" d="M96.492,52.141c0,0,85.055-26.641,172,0"/>
<path opacity="0.3" fill="none" stroke="#71FFFF" stroke-width="2" stroke-linecap="round" stroke-miterlimit="10" d="
	M96.492,51.141c0,0,85.055-26.641,172,0"/>
<circle fill="#FFFFFF" cx="222.878" cy="135.069" r="16.429"/>
<circle fill="#FFFFFF" cx="177.855" cy="135.069" r="16.428"/>
<g>
	<circle fill="#0090A8" cx="223.047" cy="134.712" r="13.654"/>
	<circle opacity="0.4" fill="#00F3FF" cx="223.06" cy="134.724" r="11.599"/>
	<circle fill="#231F20" cx="223.181" cy="134.712" r="9.794"/>
	<path opacity="0.2" fill="#27AAE1" d="M229.652,134.846c0,3.574-2.898,1.405-6.473,1.405c-3.572,0-6.471,2.169-6.471-1.405
		c0-3.573,2.898-6.471,6.471-6.471C226.754,128.375,229.652,131.272,229.652,134.846z"/>
	<circle fill="#FFFFFF" cx="220.548" cy="129.684" r="2.075"/>
	<circle fill="#0090A8" cx="178.047" cy="134.754" r="13.654"/>
	<circle opacity="0.4" fill="#00F3FF" cx="178.047" cy="134.754" r="11.779"/>
	<circle fill="#231F20" cx="178.181" cy="134.754" r="9.793"/>
	<path opacity="0.2" fill="#27AAE1" d="M184.652,134.846c0,3.574-2.897,1.405-6.473,1.405c-3.572,0-6.471,2.169-6.47-1.405
		c-0.001-3.573,2.897-6.471,6.47-6.471C181.755,128.375,184.652,131.272,184.652,134.846z"/>
	<circle fill="#FFFFFF" cx="175.569" cy="129.726" r="2.075"/>
</g>
<circle fill="#FFFFFF" cx="225.61" cy="109.358" r="7.177"/>
<circle fill="#FFFFFF" cx="169.253" cy="109.358" r="7.177"/>
<circle fill="#0090A8" cx="226.095" cy="108.633" r="5.433"/>
<circle opacity="0.4" fill="#00F3FF" cx="226.095" cy="108.633" r="4.38"/>
<circle fill="#231F20" cx="226.095" cy="108.633" r="3.604"/>
<circle fill="#0090A8" cx="169.805" cy="108.633" r="5.433"/>
<circle opacity="0.4" fill="#00F3FF" cx="169.805" cy="108.633" r="4.714"/>
<circle fill="#231F20" cx="169.805" cy="108.633" r="3.637"/>
<path opacity="0.2" fill="#27AAE1" d="M172.36,108.396c0,1.41-1.145,0.555-2.555,0.555s-2.555,0.855-2.554-0.555
	c-0.001-1.41,1.144-2.554,2.554-2.554S172.36,106.985,172.36,108.396z"/>
<path opacity="0.2" fill="#27AAE1" d="M228.625,108.397c0,1.397-1.133,0.55-2.529,0.55c-1.398,0-2.531,0.848-2.531-0.55
	s1.133-2.531,2.531-2.531C227.492,105.867,228.625,107,228.625,108.397z"/>
<circle fill="#FFFFFF" cx="225.063" cy="106.63" r="0.756"/>
<circle fill="#FFFFFF" cx="168.763" cy="106.612" r="0.763"/>
<path fill="none" stroke="#008438" stroke-width="8" stroke-linecap="round" stroke-miterlimit="10" d="M139.437,164.75
	c0,0-12.368,7.666-9.139,22s53.25,1.221,53.25,1.221"/>
<g>
	
		<linearGradient id="SVGID_12_" gradientUnits="userSpaceOnUse" x1="-83.3394" y1="214.5947" x2="-74.0337" y2="214.5947" gradientTransform="matrix(0.9454 0.326 -0.326 0.9454 328.126 -5.1631)">
		<stop  offset="0" style="stop-color:#DA1C5C"/>
		<stop  offset="0.2489" style="stop-color:#DD215E"/>
		<stop  offset="0.5434" style="stop-color:#E72F63"/>
		<stop  offset="0.8597" style="stop-color:#F6476C"/>
		<stop  offset="1" style="stop-color:#FF5471"/>
	</linearGradient>
	<path fill="url(#SVGID_12_)" d="M178.948,184.082c-0.081-0.028-0.161-0.059-0.241-0.092c-2.039-0.852-3.001-3.193-2.15-5.232
		c0.234-0.561,5.752-13.771,7.148-16.668c0.959-1.99,3.346-2.822,5.34-1.867c1.99,0.959,2.826,3.35,1.867,5.34
		c-1.043,2.166-5.018,11.595-6.973,16.278C183.121,183.799,180.926,184.765,178.948,184.082z"/>
</g>
<path fill="#FFFFFF" d="M160.707,192.094c1.125,5.337,6.364,8.751,11.7,7.625l10.298-2.172c5.336-1.124,8.752-6.362,7.625-11.699
	l0,0c-1.125-5.337-6.363-8.751-11.7-7.625l-10.298,2.172C162.996,181.52,159.582,186.757,160.707,192.094L160.707,192.094z"/>
<g>
	
		<linearGradient id="SVGID_13_" gradientUnits="userSpaceOnUse" x1="-155.2734" y1="239.3984" x2="-145.9692" y2="239.3984" gradientTransform="matrix(-0.9454 0.326 0.326 0.9454 37.3359 -5.1631)">
		<stop  offset="0" style="stop-color:#DA1C5C"/>
		<stop  offset="0.2489" style="stop-color:#DD215E"/>
		<stop  offset="0.5434" style="stop-color:#E72F63"/>
		<stop  offset="0.8597" style="stop-color:#F6476C"/>
		<stop  offset="1" style="stop-color:#FF5471"/>
	</linearGradient>
	<path fill="url(#SVGID_13_)" d="M262.607,184.082c0.082-0.028,0.16-0.059,0.24-0.092c2.039-0.852,3.002-3.193,2.15-5.232
		c-0.232-0.561-5.752-13.771-7.148-16.668c-0.957-1.99-3.346-2.822-5.338-1.867c-1.99,0.959-2.826,3.35-1.867,5.34
		c1.043,2.166,5.016,11.595,6.973,16.278C258.434,183.799,260.629,184.765,262.607,184.082z"/>
</g>
<linearGradient id="SVGID_14_" gradientUnits="userSpaceOnUse" x1="175.126" y1="184.5332" x2="214.1914" y2="184.5332">
	<stop  offset="0" style="stop-color:#DA1C5C"/>
	<stop  offset="0.2489" style="stop-color:#DD215E"/>
	<stop  offset="0.5434" style="stop-color:#E72F63"/>
	<stop  offset="0.8597" style="stop-color:#F6476C"/>
	<stop  offset="1" style="stop-color:#FF5471"/>
</linearGradient>
<circle fill="url(#SVGID_14_)" cx="194.659" cy="184.533" r="19.533"/>
<ellipse opacity="0.1" fill="#FFFFFF" cx="198.227" cy="184.721" rx="13.965" ry="15.346"/>
<linearGradient id="SVGID_15_" gradientUnits="userSpaceOnUse" x1="226.7031" y1="181.7813" x2="265.7695" y2="181.7813">
	<stop  offset="0" style="stop-color:#DA1C5C"/>
	<stop  offset="0.2489" style="stop-color:#DD215E"/>
	<stop  offset="0.5434" style="stop-color:#E72F63"/>
	<stop  offset="0.8597" style="stop-color:#F6476C"/>
	<stop  offset="1" style="stop-color:#FF5471"/>
</linearGradient>
<circle fill="url(#SVGID_15_)" cx="246.236" cy="181.781" r="19.533"/>
<g>
	<path fill="#FFFFFF" d="M139.347,101.672c26.385-12.593,61.339-15.785,89.638-8.223c-3.006-4.183-6.455-7.916-10.275-11.098
		c-22.857-4.045-48.679-1.755-70.477,6.247C144.81,92.482,141.824,96.88,139.347,101.672z"/>
	<path fill="#EE2A7B" d="M146.605,90.525c22.478-8.939,47.875-13.745,73.567-6.916c-1.299-1.159-2.641-2.256-4.029-3.28
		c-22.41-5.404-46.889-1.412-67.237,7.47C147.677,89.067,147.731,89.136,146.605,90.525z"/>
	<path fill="#EE2A7B" d="M139.931,100.565c-0.66,1.187-0.891,1.67-1.485,2.907c26.8-13.151,62.801-16.453,91.631-8.452
		c-0.729-1.081-1.482-2.138-2.268-3.162C200.096,84.756,165.797,87.451,139.931,100.565z"/>
</g>
<ellipse opacity="0.1" fill="#FFFFFF" cx="243.949" cy="182.721" rx="13.965" ry="15.346"/>
</svg>
