<?xml version="1.0" encoding="utf-8"?>
<!-- Generator: Adobe Illustrator 16.0.0, SVG Export Plug-In . SVG Version: 6.00 Build 0)  -->
<!DOCTYPE svg PUBLIC "-//W3C//DTD SVG 1.1//EN" "http://www.w3.org/Graphics/SVG/1.1/DTD/svg11.dtd">
<svg version="1.1" id="Слой_1" xmlns="http://www.w3.org/2000/svg" xmlns:xlink="http://www.w3.org/1999/xlink" x="0px" y="0px"
	 width="230px" height="220px" viewBox="0 0 230 220" enable-background="new 0 0 230 220" xml:space="preserve">
<path fill="#3F0082" d="M91.774,46.737l-8.305-39.5c0,0-4.279-4.584-17.445-2.334c-13.167,2.25-14.75,9.084-14.75,9.084l7,40.333
	L91.774,46.737z"/>
<path fill="#8DC63F" d="M73.254,37.698c-6.728,1.154-12.413,3.152-16.873,5.714l1.894,10.908l33.5-7.583l-2.013-9.574
	C84.626,36.825,78.828,36.741,73.254,37.698z"/>
<path opacity="0.15" fill="#FFFFFF" d="M85.858,44.737L78.723,4.954c0,0-4.727-1.466-11.438-0.249l7.24,41.449L85.858,44.737z"/>
<ellipse transform="matrix(-0.9856 0.1692 -0.1692 -0.9856 158.4307 86.6815)" fill="#3F0082" cx="75.522" cy="50.09" rx="29.75" ry="7.501"/>
<path fill="none" stroke="#5D2BBC" stroke-width="8" stroke-linecap="round" stroke-miterlimit="10" d="M155.774,143.834
	c0,0-9.75,8.174-26.125,4.299"/>
<path fill="none" stroke="#262262" stroke-width="2" stroke-miterlimit="10" d="M158.982,139.082c0,0-6.547-3.031-6.547,2.541
	c0,6.23,9.606,4.09,9.606,4.09"/>
<ellipse opacity="0.2" fill="#0090A8" cx="82.274" cy="210.596" rx="77.917" ry="6.807"/>
<ellipse opacity="0.3" fill="#0090A8" cx="87.296" cy="210.596" rx="50.105" ry="4.377"/>
<g>
	<path fill="none" stroke="#8252C1" stroke-width="8" stroke-linecap="round" stroke-miterlimit="10" d="M40.426,207.211
		c0,0,5.75-35.84,33-40.67"/>
</g>
<path fill="none" stroke="#8252C1" stroke-width="8" stroke-linecap="round" stroke-miterlimit="10" d="M133.427,207.211
	c0,0-10.75-35.84-38-40.67"/>
<path fill="none" stroke="#6133BC" stroke-width="8" stroke-linecap="round" stroke-miterlimit="10" d="M8.426,207.211
	c0,0,11.502-36.334,36-42.67"/>
<path fill="none" stroke="#6133BC" stroke-width="8" stroke-linecap="round" stroke-miterlimit="10" d="M156.513,207.211
	c0,0-10.75-35.84-38-40.67"/>
<path fill="#FFECB6" d="M139.589,97.082c-5.729-28.408-27.254-50.055-53.916-50.023l0,0c-26.665-0.033-48.188,21.615-53.917,50.023
	c-2.846,17.997-5.754,46.01-5.635,63.219c-0.117,13.703,9.803,23.041,21.119,27.652c11.646,4.83,24.688,4.932,38.433,5.18l0,0
	c13.744-0.248,26.785-0.35,38.432-5.18c11.316-4.611,21.236-13.949,21.119-27.652C145.345,143.092,142.437,115.078,139.589,97.082z"
	/>
<linearGradient id="SVGID_1_" gradientUnits="userSpaceOnUse" x1="25.1177" y1="120.0957" x2="144.2275" y2="120.0957">
	<stop  offset="0" style="stop-color:#DA1C5C"/>
	<stop  offset="0.2489" style="stop-color:#DD215E"/>
	<stop  offset="0.5434" style="stop-color:#E72F63"/>
	<stop  offset="0.8597" style="stop-color:#F6476C"/>
	<stop  offset="1" style="stop-color:#FF5471"/>
</linearGradient>
<path fill="url(#SVGID_1_)" d="M138.589,97.082c-5.729-28.408-27.254-50.055-53.916-50.023l0,0
	c-26.665-0.033-48.188,21.615-53.917,50.023c-2.846,17.997-5.754,46.01-5.635,63.219c-0.117,13.703,9.803,23.041,21.119,27.652
	c11.646,4.83,24.688,4.932,38.433,5.18l0,0c13.744-0.248,26.785-0.35,38.432-5.18c11.316-4.611,21.236-13.949,21.119-27.652
	C144.345,143.092,141.437,115.078,138.589,97.082z"/>
<linearGradient id="SVGID_2_" gradientUnits="userSpaceOnUse" x1="25.1177" y1="120.0957" x2="144.2275" y2="120.0957">
	<stop  offset="0" style="stop-color:#DA1C5C"/>
	<stop  offset="0.2489" style="stop-color:#DD215E"/>
	<stop  offset="0.5434" style="stop-color:#E72F63"/>
	<stop  offset="0.8597" style="stop-color:#F6476C"/>
	<stop  offset="1" style="stop-color:#FF5471"/>
</linearGradient>
<path fill="url(#SVGID_2_)" d="M138.589,97.082c-5.729-28.408-27.254-50.055-53.916-50.023l0,0
	c-26.665-0.033-48.188,21.615-53.917,50.023c-2.846,17.997-5.754,46.01-5.635,63.219c-0.117,13.703,9.803,23.041,21.119,27.652
	c11.646,4.83,24.688,4.932,38.433,5.18l0,0c13.744-0.248,26.785-0.35,38.432-5.18c11.316-4.611,21.236-13.949,21.119-27.652
	C144.345,143.092,141.437,115.078,138.589,97.082z"/>
<g>
	<path fill="#3F1D93" d="M73.326,195.545c-1.023,0-2.047-0.391-2.828-1.172c-0.656-0.656-1.037-1.484-1.142-2.34
		c-0.108-0.686-2.157-11.652-22.394-14.016c-14.993-1.752-24.208-3.986-26.941-10.227c-2.298-5.242,1.42-10.357,2.641-12.037
		c1.299-1.787,3.8-2.184,5.588-0.885c1.787,1.299,2.183,3.801,0.884,5.588c-1.77,2.434-1.955,3.736-1.786,4.123
		c0.533,1.217,3.911,3.549,20.543,5.492c21.059,2.459,27.091,13.533,28.706,18.182c0.619,1.777,1.465,4.213-0.441,6.119
		C75.374,195.154,74.351,195.545,73.326,195.545z"/>
</g>
<path fill="none" d="M138.897,97.082c-5.729-28.408-27.254-50.055-53.916-50.023l0,0c-26.665-0.033-48.188,21.615-53.917,50.023
	c-2.846,17.997-5.754,46.01-5.635,63.219c-0.117,13.703,9.803,23.041,21.119,27.652c11.646,4.83,24.688,4.932,38.433,5.18l0,0
	c13.744-0.248,26.785-0.35,38.432-5.18c11.316-4.611,21.236-13.949,21.119-27.652C144.653,143.092,141.745,115.078,138.897,97.082z"
	/>
<circle fill="#FFFFFF" stroke="#3F0082" stroke-width="4" stroke-linecap="round" stroke-miterlimit="10" cx="194.725" cy="49.427" r="30.466"/>
<circle fill="#39B54A" cx="194.725" cy="49.427" r="18.769"/>
<circle opacity="0.4" fill="#00F3FF" cx="194.725" cy="49.427" r="12.061"/>
<linearGradient id="SVGID_3_" gradientUnits="userSpaceOnUse" x1="155.374" y1="143.3828" x2="186.3633" y2="143.3828">
	<stop  offset="0" style="stop-color:#662D91"/>
	<stop  offset="0.1727" style="stop-color:#6A2B96"/>
	<stop  offset="0.377" style="stop-color:#7626A4"/>
	<stop  offset="0.5973" style="stop-color:#891DBC"/>
	<stop  offset="0.8273" style="stop-color:#A510DD"/>
	<stop  offset="1" style="stop-color:#BD05FB"/>
</linearGradient>
<path fill="url(#SVGID_3_)" d="M155.374,133.947c0.44,2.645,0.878,5.291,1.316,7.939c1.56,7.926,7.867,12.85,14.18,12.914
	c6.312-0.064,12.621-4.988,14.177-12.914c0.441-2.648,0.876-5.295,1.316-7.939C176.143,131.303,165.595,131.303,155.374,133.947z"/>
<ellipse fill="#EC008C" cx="170.869" cy="134.176" rx="15.468" ry="4.604"/>
<path fill="#FFFFFF" d="M156.549,133.572c0,1.779,6.41,3.221,14.321,3.221c7.907,0,14.32-1.441,14.32-3.221
	s-6.413-3.439-14.32-3.439C162.959,130.133,156.549,131.793,156.549,133.572z"/>
<path fill="#3C2415" d="M157.081,134.434c1.902,1.371,7.352,2.359,13.789,2.359c6.434,0,11.884-0.988,13.789-2.359
	c-1.905-1.428-7.355-2.566-13.789-2.566C164.433,131.867,158.983,133.006,157.081,134.434z"/>
<circle fill="#FFFFFF" cx="121.354" cy="101.639" r="16.429"/>
<circle fill="#0090A8" cx="122.545" cy="101.324" r="13.654"/>
<circle opacity="0.4" fill="#00F3FF" cx="122.558" cy="101.335" r="11.599"/>
<circle fill="#231F20" cx="122.679" cy="101.324" r="9.793"/>
<path opacity="0.2" fill="#27AAE1" d="M129.15,101.416c0,3.574-2.897,1.405-6.473,1.405c-3.572,0-6.471,2.169-6.47-1.405
	c-0.001-3.573,2.897-6.471,6.47-6.471C126.253,94.945,129.15,97.842,129.15,101.416z"/>
<polygon fill="#BE1E2D" points="67.73,127.291 93.899,85.21 78.274,85.21 "/>
<circle fill="#FFFFFF" cx="76.332" cy="101.639" r="16.429"/>
<circle fill="#FFFFFF" cx="120.046" cy="96.295" r="2.075"/>
<circle fill="#0090A8" cx="77.545" cy="101.324" r="13.654"/>
<circle opacity="0.4" fill="#00F3FF" cx="77.545" cy="101.324" r="11.78"/>
<circle fill="#231F20" cx="77.679" cy="101.324" r="9.793"/>
<path opacity="0.2" fill="#27AAE1" d="M84.15,101.416c0,3.574-2.897,1.405-6.473,1.405c-3.572,0-6.471,2.169-6.47-1.405
	c-0.001-3.573,2.897-6.471,6.47-6.471C81.253,94.945,84.15,97.842,84.15,101.416z"/>
<circle fill="#FFFFFF" cx="75.046" cy="96.295" r="2.075"/>
<circle fill="#FFFFFF" cx="122.088" cy="70.928" r="7.177"/>
<circle fill="#0090A8" cx="123.572" cy="70.628" r="5.433"/>
<circle opacity="0.4" fill="#00F3FF" cx="123.572" cy="70.628" r="4.38"/>
<circle fill="#231F20" cx="123.572" cy="70.628" r="3.604"/>
<circle fill="#FFFFFF" cx="67.731" cy="70.928" r="7.176"/>
<circle fill="#0090A8" cx="69.282" cy="70.628" r="5.433"/>
<circle opacity="0.4" fill="#00F3FF" cx="69.282" cy="70.628" r="4.714"/>
<circle fill="#231F20" cx="69.282" cy="70.628" r="3.638"/>
<path opacity="0.2" fill="#27AAE1" d="M71.836,70.391c0,1.41-1.143,0.555-2.554,0.555c-1.41,0-2.554,0.855-2.554-0.555
	s1.144-2.554,2.554-2.554C70.693,67.837,71.836,68.981,71.836,70.391z"/>
<path opacity="0.2" fill="#27AAE1" d="M126.103,70.393c0,1.397-1.133,0.55-2.53,0.55s-2.53,0.848-2.53-0.55s1.133-2.531,2.53-2.531
	C124.97,67.863,126.103,68.996,126.103,70.393z"/>
<circle fill="#FFFFFF" cx="122.54" cy="68.625" r="0.756"/>
<circle fill="#FFFFFF" cx="68.241" cy="68.608" r="0.763"/>
<path fill="#231F20" d="M108.024,123.211c-4.167-2.027-4.781-1.475-7-1.475s-3.122-0.553-7.714,1.475
	c-4.592,2.025-12.75,8.691-17.303,4.691c0,0,3.161,7.764,18.589,3.965l6.428-0.953l5.833,0.953c14,3.799,16.868-3.965,16.868-3.965
	C119.594,131.902,112.191,125.236,108.024,123.211z"/>
<circle fill="#FFFFFF" cx="160.337" cy="140.758" r="1.375"/>
<circle fill="#FFFFFF" cx="181.337" cy="140.758" r="1.375"/>
<circle fill="#FFFFFF" cx="165.462" cy="141.789" r="1.375"/>
<path fill="#231F20" d="M29.134,160.457c1.099-1.512,0.973-3.527-0.17-4.9l-0.356-0.367c-0.116-0.107-0.226-0.223-0.357-0.32
	c-1.788-1.299-4.289-0.902-5.588,0.885c-0.437,0.6-1.19,1.645-1.875,2.971c2.807,2.561,5.369,3.588,6.966,3.992
	C28.036,162.113,28.475,161.363,29.134,160.457z"/>
<circle fill="#FFFFFF" cx="176.462" cy="141.789" r="1.375"/>
<circle fill="#FFFFFF" cx="170.87" cy="142.383" r="1.375"/>
<path fill="none" stroke="#3A2384" stroke-width="8" stroke-linecap="round" stroke-miterlimit="10" d="M110.628,157.543
	c0.002-0.002-15.221-14.881-50.032-3.002c-35.17,12-43.168-7.332-32.334-15.33"/>
<path opacity="0.1" fill="#FFFFFF" d="M168.509,46.177c0-14.479,14.589-23.217,26.217-23.217c11.247,0,26.216,8.738,26.216,23.217
	c0,0-6.633,4-26.176,4S168.509,46.177,168.509,46.177z"/>
<path fill="#1C75BC" d="M210.876,33.177c0.266-0.31,0.485-0.558,0.488-0.555l0,0c0.004,0.003-0.245,0.223-0.554,0.49
	c-5.524,4.872-11.049,9.746-16.575,14.616c-0.307,0.269-0.089,0.954,0.49,1.533l0,0c0.579,0.579,1.267,0.798,1.533,0.49
	C201.131,44.227,206.003,38.7,210.876,33.177z"/>
<path fill="#EF4136" d="M194.772,64.696c-0.031,0.275-0.052,0.5-0.047,0.5l0,0c0.005,0-0.016-0.224-0.045-0.5
	c-0.462-4.979-0.922-9.958-1.386-14.937c-0.027-0.276,0.611-0.5,1.431-0.5l0,0c0.819,0,1.46,0.224,1.431,0.5
	C195.695,54.738,195.232,59.718,194.772,64.696z"/>
<circle fill="#FFFFFF" cx="194.725" cy="49.427" r="3.769"/>
<g>
	<path fill="#3F0082" d="M194.124,24.522v2.671c0,0.115,0.005,0.185,0.015,0.207c0.015,0.041,0.04,0.07,0.078,0.087
		c0.037,0.017,0.105,0.025,0.206,0.025h0.344v0.474h-2.103v-0.474h0.347c0.122,0,0.2-0.008,0.234-0.023
		c0.034-0.016,0.06-0.041,0.077-0.076c0.017-0.035,0.025-0.109,0.025-0.221v-1.905h-0.684v-0.474c0.195-0.02,0.345-0.04,0.449-0.061
		c0.156-0.031,0.322-0.073,0.498-0.127c0.098-0.029,0.188-0.064,0.273-0.105H194.124z"/>
	<path fill="#3F0082" d="M195.987,25.931l-0.494,0.044c-0.018-0.084-0.026-0.165-0.026-0.242c0-0.234,0.056-0.438,0.166-0.612
		c0.11-0.173,0.281-0.316,0.512-0.43c0.23-0.113,0.486-0.169,0.768-0.169c0.259,0,0.493,0.049,0.702,0.148
		c0.209,0.098,0.366,0.226,0.473,0.382c0.105,0.156,0.158,0.321,0.158,0.493c0,0.174-0.037,0.337-0.112,0.488
		c-0.083,0.169-0.219,0.333-0.406,0.491c-0.188,0.158-0.567,0.411-1.137,0.759h0.82c0.134,0,0.218-0.007,0.254-0.021
		c0.036-0.014,0.066-0.042,0.093-0.082s0.048-0.111,0.066-0.21l0.02-0.112h0.473l-0.222,1.248h-0.322l-0.029-0.12h-2.249v-0.471
		c0.331-0.215,0.75-0.532,1.258-0.952c0.261-0.215,0.434-0.4,0.52-0.557c0.064-0.114,0.096-0.233,0.096-0.359
		c0-0.145-0.06-0.268-0.18-0.367c-0.119-0.101-0.279-0.15-0.479-0.15c-0.148,0-0.276,0.027-0.386,0.082
		c-0.109,0.054-0.194,0.132-0.256,0.233c-0.063,0.101-0.094,0.208-0.094,0.32C195.972,25.805,195.978,25.861,195.987,25.931z"/>
</g>
<g>
	<path fill="#3F0082" d="M170.313,50.149V49.67c0.313-0.013,0.561-0.043,0.746-0.089c0.186-0.047,0.34-0.11,0.464-0.192
		c0.125-0.082,0.226-0.178,0.302-0.29c0.076-0.111,0.13-0.239,0.161-0.384c-0.144,0.101-0.279,0.172-0.408,0.213
		c-0.129,0.042-0.267,0.063-0.415,0.063c-0.237,0-0.45-0.049-0.639-0.147c-0.188-0.099-0.331-0.23-0.429-0.395
		s-0.146-0.357-0.146-0.577c0-0.362,0.128-0.661,0.384-0.895c0.256-0.234,0.603-0.351,1.04-0.351c0.451,0,0.803,0.121,1.057,0.361
		c0.299,0.282,0.447,0.669,0.447,1.162c0,0.332-0.051,0.615-0.151,0.85s-0.258,0.441-0.472,0.622
		c-0.214,0.18-0.465,0.313-0.754,0.397C171.212,50.104,170.815,50.147,170.313,50.149z M171.383,48.435
		c0.119,0,0.224-0.026,0.314-0.078c0.092-0.052,0.162-0.128,0.213-0.227s0.076-0.212,0.076-0.339c0-0.186-0.057-0.337-0.168-0.454
		s-0.252-0.176-0.421-0.176c-0.173,0-0.315,0.059-0.429,0.176s-0.17,0.271-0.17,0.461c0,0.192,0.056,0.346,0.165,0.462
		C171.074,48.377,171.214,48.435,171.383,48.435z"/>
</g>
<g>
	<path fill="#3F0082" d="M217.438,47.781h-0.505c-0.002-0.038-0.003-0.068-0.003-0.093c0-0.21,0.048-0.391,0.143-0.543
		c0.096-0.152,0.245-0.277,0.447-0.374c0.203-0.097,0.435-0.145,0.695-0.145c0.248,0,0.471,0.043,0.667,0.13
		c0.197,0.087,0.345,0.199,0.441,0.336s0.146,0.277,0.146,0.422c0,0.114-0.03,0.226-0.091,0.335c-0.06,0.11-0.141,0.203-0.244,0.28
		c-0.068,0.05-0.17,0.102-0.305,0.154c0.122,0.013,0.231,0.043,0.327,0.089c0.096,0.047,0.18,0.105,0.25,0.176
		c0.071,0.071,0.124,0.151,0.159,0.241s0.053,0.187,0.053,0.291c0,0.187-0.056,0.362-0.167,0.525
		c-0.11,0.163-0.275,0.294-0.493,0.394c-0.219,0.101-0.472,0.15-0.76,0.15c-0.282,0-0.533-0.047-0.753-0.142
		s-0.385-0.214-0.496-0.359c-0.11-0.145-0.166-0.289-0.166-0.432c0-0.109,0.039-0.203,0.117-0.281s0.173-0.117,0.284-0.117
		c0.105,0,0.199,0.037,0.28,0.11c0.053,0.047,0.098,0.128,0.135,0.242c0.047,0.148,0.09,0.246,0.128,0.294
		c0.039,0.048,0.101,0.09,0.188,0.128c0.086,0.038,0.174,0.056,0.264,0.056c0.104,0,0.205-0.025,0.302-0.076
		c0.098-0.05,0.169-0.114,0.214-0.191c0.046-0.078,0.068-0.171,0.068-0.28c0-0.2-0.077-0.348-0.231-0.442
		c-0.119-0.073-0.304-0.11-0.554-0.11h-0.159v-0.471h0.159c0.198,0,0.34-0.015,0.426-0.044c0.085-0.029,0.152-0.079,0.201-0.147
		c0.049-0.069,0.073-0.144,0.073-0.224c0-0.109-0.041-0.203-0.122-0.281c-0.103-0.099-0.259-0.149-0.469-0.149
		c-0.14,0-0.255,0.021-0.346,0.063c-0.09,0.042-0.161,0.102-0.212,0.18C217.478,47.554,217.447,47.655,217.438,47.781z"/>
</g>
<g>
	<path fill="#3F0082" d="M195.729,71.01v0.479c-0.311,0.011-0.56,0.041-0.746,0.088s-0.341,0.111-0.465,0.193
		s-0.225,0.178-0.302,0.289c-0.077,0.112-0.13,0.239-0.159,0.382c0.143-0.099,0.278-0.169,0.406-0.211
		c0.128-0.041,0.267-0.062,0.416-0.062c0.237,0,0.45,0.049,0.637,0.146c0.188,0.098,0.33,0.229,0.429,0.396s0.147,0.358,0.147,0.576
		c0,0.363-0.128,0.662-0.384,0.896c-0.257,0.234-0.603,0.352-1.039,0.352c-0.451,0-0.804-0.121-1.058-0.361
		c-0.297-0.28-0.446-0.667-0.446-1.16c0-0.333,0.05-0.617,0.15-0.851c0.1-0.233,0.257-0.44,0.472-0.62
		c0.215-0.18,0.467-0.313,0.756-0.397C194.833,71.058,195.229,71.014,195.729,71.01z M194.657,72.722
		c-0.118,0-0.224,0.026-0.314,0.079c-0.091,0.053-0.162,0.129-0.213,0.228c-0.05,0.098-0.075,0.211-0.075,0.338
		c0,0.186,0.056,0.337,0.167,0.455c0.111,0.118,0.252,0.177,0.422,0.177c0.174,0,0.317-0.059,0.431-0.177
		c0.113-0.118,0.169-0.272,0.169-0.462c0-0.192-0.055-0.346-0.164-0.462C194.969,72.78,194.829,72.722,194.657,72.722z"/>
</g>
</svg>
