<?xml version="1.0" encoding="utf-8"?>
<!-- Generator: Adobe Illustrator 16.0.0, SVG Export Plug-In . SVG Version: 6.00 Build 0)  -->
<!DOCTYPE svg PUBLIC "-//W3C//DTD SVG 1.1//EN" "http://www.w3.org/Graphics/SVG/1.1/DTD/svg11.dtd">
<svg version="1.1" id="Слой_1" xmlns="http://www.w3.org/2000/svg" xmlns:xlink="http://www.w3.org/1999/xlink" x="0px" y="0px"
	 width="185px" height="180px" viewBox="0 0 185 180" enable-background="new 0 0 185 180" xml:space="preserve">
<path fill="#71FFFF" d="M145.588,57.655c-3.426-16.992-15.665-37.51-33.97-44.496l9,138.282c3.249-0.706,6.417-1.643,9.485-2.916
	c11.316-4.611,21.236-13.949,21.119-27.652C151.342,103.664,148.434,75.651,145.588,57.655z"/>
<ellipse opacity="0.2" fill="#0090A8" cx="83.531" cy="169.872" rx="81.75" ry="7.378"/>
<ellipse opacity="0.4" fill="#0090A8" cx="87.531" cy="169.872" rx="54.487" ry="4.916"/>
<g>
	<path fill="none" stroke="#0090A8" stroke-width="8" stroke-linecap="round" stroke-miterlimit="10" d="M36.361,167.641
		c0,0,15.75-35.84,43-40.67"/>
</g>
<path fill="none" stroke="#0090A8" stroke-width="8" stroke-linecap="round" stroke-miterlimit="10" d="M139.361,167.641
	c0,0-10.75-35.84-38-40.67"/>
<path fill="none" stroke="#006B84" stroke-width="8" stroke-linecap="round" stroke-miterlimit="10" d="M4.361,167.641
	c0,0,21.502-36.334,46-42.67"/>
<linearGradient id="SVGID_1_" gradientUnits="userSpaceOnUse" x1="31.3599" y1="77.7783" x2="150.4707" y2="77.7783">
	<stop  offset="0" style="stop-color:#0090A8"/>
	<stop  offset="0.2976" style="stop-color:#0193AA"/>
	<stop  offset="0.4754" style="stop-color:#069BAF"/>
	<stop  offset="0.6217" style="stop-color:#0EA9B9"/>
	<stop  offset="0.7509" style="stop-color:#1ABDC6"/>
	<stop  offset="0.8688" style="stop-color:#29D8D7"/>
	<stop  offset="0.977" style="stop-color:#3BF7EC"/>
	<stop  offset="1" style="stop-color:#3FFFF1"/>
</linearGradient>
<path fill="url(#SVGID_1_)" d="M144.832,57.677c-4.078-20.226-16.168-37.016-32.416-45.004c1.91-1.697,2.244-5.021,2.244-5.021
	c-1.793,1.187-4.047,1.053-4.047,1.053c4.297-2.5,4.938-6.875,4.938-6.875c-5.277,4.833-25.579,5.826-25.579,5.826l0.075,0.017
	C63.786,8.107,42.664,29.577,36.998,57.677c-2.847,17.996-5.755,46.009-5.635,63.219c-0.117,13.702,9.803,23.04,21.119,27.652
	c11.646,4.829,24.688,4.931,38.432,5.179c13.745-0.248,26.788-0.35,38.434-5.179c11.316-4.612,21.236-13.95,21.119-27.652
	C150.586,103.686,147.678,75.673,144.832,57.677z"/>
<path opacity="0.5" fill="#0090A8" d="M144.832,57.677c-4.078-20.226-16.168-37.016-32.416-45.004
	c1.91-1.697,2.244-5.021,2.244-5.021c-1.793,1.187-4.047,1.053-4.047,1.053c4.297-2.5,4.938-6.875,4.938-6.875
	c-5.277,4.833-25.579,5.826-25.579,5.826l0.075,0.017C63.786,8.107,42.664,29.577,36.998,57.677
	c-2.847,17.996-5.755,46.009-5.635,63.219c-0.117,13.702,9.803,23.04,21.119,27.652c11.646,4.829,24.688,4.931,38.432,5.179
	c13.745-0.248,26.788-0.35,38.434-5.179c11.316-4.612,21.236-13.95,21.119-27.652C150.586,103.686,147.678,75.673,144.832,57.677z"
	/>
<path fill="none" stroke="#0090A8" stroke-width="8" stroke-linecap="round" stroke-miterlimit="10" d="M162.445,167.641
	c0,0-10.75-35.84-38-40.67"/>
<circle fill="#FFFFFF" cx="125.83" cy="64.069" r="16.429"/>
<circle fill="#0090A8" cx="127.9" cy="62.875" r="12.774"/>
<circle opacity="0.4" fill="#00F3FF" cx="127.9" cy="62.875" r="10.337"/>
<circle fill="#231F20" cx="128.025" cy="62.875" r="9.163"/>
<path opacity="0.2" fill="#00FFFF" d="M134.08,62.961c0,3.344-2.711,1.315-6.056,1.315c-3.343,0-6.055,2.029-6.054-1.315
	c-0.001-3.344,2.711-6.055,6.054-6.055C131.369,56.906,134.08,59.617,134.08,62.961z"/>
<circle fill="#FFFFFF" cx="80.807" cy="64.069" r="16.429"/>
<circle fill="#39B54A" cx="83.577" cy="63.449" r="12.225"/>
<circle opacity="0.5" fill="#2CF23F" cx="83.567" cy="63.438" r="10.152"/>
<circle fill="#231F20" cx="83.567" cy="63.438" r="9.034"/>
<path opacity="0.2" fill="#00FFFF" d="M90.038,62.961c0,3.344-2.711,1.315-6.056,1.315c-3.343,0-6.055,2.029-6.054-1.315
	c-0.001-3.344,2.711-6.055,6.054-6.055C87.327,56.906,90.038,59.617,90.038,62.961z"/>
<circle fill="#FFFFFF" cx="125.562" cy="58.17" r="1.941"/>
<g>
	<circle fill="#006B84" cx="63.848" cy="81.659" r="2.125"/>
	<circle fill="#006B84" cx="58.689" cy="74.659" r="3.12"/>
	<circle fill="#006B84" cx="57.063" cy="81.708" r="1.493"/>
</g>
<path fill="none" stroke="#004D6B" stroke-width="8" stroke-linecap="round" stroke-miterlimit="10" d="M87.261,138.975
	c0.001-0.002-9.665,8.33-33.9,5.5c-20.359-2.379-28.873-15.834-21.529-25.939"/>
<path opacity="0.4" d="M33.208,126.334c0,0-4.876-0.951-7.313-4.867c0,0,0.327-1.772,1.466-2.932l6.389,5.09
	C33.75,123.625,33.167,125,33.208,126.334z"/>
<rect x="99.333" y="85.235" transform="matrix(-0.9319 0.3627 -0.3627 -0.9319 228.0221 138.3775)" fill="#BCBEC0" width="3.376" height="10.716"/>
<circle opacity="0.4" fill="none" stroke="#2B3990" stroke-width="4" stroke-miterlimit="10" cx="91.664" cy="66.542" r="16.976"/>
<circle fill="none" stroke="#231F20" stroke-width="4" stroke-miterlimit="10" cx="91.664" cy="66.542" r="19.104"/>
<path fill="#231F20" d="M113.672,111.639c0.832,2.141-0.229,4.551-2.369,5.385l0,0c-2.141,0.832-4.551-0.229-5.385-2.369
	l-7.271-18.691c-0.832-2.141,0.229-4.551,2.369-5.385l0,0c2.141-0.833,4.551,0.229,5.385,2.367L113.672,111.639z"/>
<path fill="none" stroke="#004D6B" stroke-width="8" stroke-linecap="round" stroke-miterlimit="10" d="M112.563,102.973
	c0-0.002-19.305,19-56.033,20.998c-31.956,1.736-33.167-16.332-22.333-24.33"/>
<path fill="#ED1C24" d="M67.946,109.274c-0.779-0.778-3.077,0.255-5.131,2.31c-2.055,2.055-3.088,4.352-2.31,5.131
	c0.032,0.031,0.08,0.041,0.116,0.067l-0.023,0.024l3.885,3.885l7.44-7.44l-3.885-3.885l-0.024,0.023
	C67.988,109.354,67.978,109.307,67.946,109.274z"/>
<path fill="#ED1C24" d="M67.946,109.274c-0.779-0.778-3.077,0.255-5.131,2.31c-2.055,2.055-3.088,4.352-2.31,5.131
	c0.032,0.031,0.08,0.041,0.116,0.067l-0.023,0.024l3.885,3.885l7.44-7.44l-3.885-3.885l-0.024,0.023
	C67.988,109.354,67.978,109.307,67.946,109.274z"/>
<path fill="#ED1C24" d="M67.946,109.274c-0.779-0.778-3.077,0.255-5.131,2.31c-2.055,2.055-3.088,4.352-2.31,5.131
	c0.032,0.031,0.08,0.041,0.116,0.067l-0.023,0.024l3.885,3.885l7.44-7.44l-3.885-3.885l-0.024,0.023
	C67.988,109.354,67.978,109.307,67.946,109.274z"/>
<path fill="#F1F2F2" d="M72.051,113.379c-0.78-0.779-3.077,0.255-5.131,2.309c-2.054,2.055-3.088,4.353-2.309,5.132
	c0.031,0.031,0.079,0.042,0.115,0.067l-0.024,0.024l3.885,3.885l7.44-7.44l-3.885-3.885l-0.024,0.024
	C72.093,113.459,72.083,113.41,72.051,113.379z"/>
<path fill="#FFCC00" d="M75.13,116.458c-0.779-0.779-3.077,0.254-5.131,2.31c-2.054,2.055-3.088,4.352-2.31,5.131
	c0.032,0.031,0.08,0.041,0.116,0.067l-0.024,0.024l24.41,24.409l7.439-7.44L75.222,116.55l-0.024,0.024
	C75.171,116.538,75.162,116.49,75.13,116.458z"/>
<path opacity="0.5" fill="#FFFFFF" d="M63.831,110.676l33.042,33.041l2.758-2.758l-31.593-31.593l-0.024,0.023
	c-0.026-0.035-0.036-0.083-0.068-0.115C67.294,108.622,65.578,109.252,63.831,110.676z"/>
<path fill="none" stroke="#004D6B" stroke-width="8" stroke-linecap="round" stroke-miterlimit="10" d="M87.261,138.975
	c0.001-0.002-9.665,8.33-33.9,5.5"/>
<path fill="#FFFFFF" d="M136.987,169.724c-19.118,2.146-38.479,1.409-57.432-2.206c4.837-21.303,9.701-43.792,14.581-65.47
	c19.119,2.146,38.481,3.41,57.435-0.206C146.732,124.99,141.868,146.951,136.987,169.724z"/>
<path opacity="0.4" fill="#2F2F89" d="M135.438,167.313c-17.736,1.989-35.698,1.308-53.28-2.046
	c4.487-19.764,9-40.627,13.526-60.738c17.737,1.99,35.7,3.164,53.283-0.189C144.479,125.814,139.967,146.187,135.438,167.313z"/>
<g>
	<polygon fill="#2F2F89" points="136.647,171.641 81.593,171.641 98.445,104.965 153.5,104.965 	"/>
	<path fill="#FFCC00" d="M115.749,104.381c-0.007,0.025-0.017,0.051-0.023,0.078c-1.006,3.98,1.404,7.207,5.385,7.207h6.334
		c3.98,0,8.025-3.227,9.031-7.207c0.007-0.027,0.009-0.053,0.016-0.078H115.749z"/>
</g>
<circle fill="#FFFFFF" cx="126.563" cy="33.358" r="7.177"/>
<circle fill="#39B54A" cx="127.22" cy="34.059" r="5.433"/>
<circle opacity="0.5" fill="#2CF23F" cx="127.22" cy="34.059" r="4.558"/>
<circle fill="#231F20" cx="127.22" cy="34.059" r="4.246"/>
<circle fill="#FFFFFF" cx="72.207" cy="33.358" r="7.177"/>
<path opacity="0.4" fill="#FFFFFF" d="M102.307,55.887c5.894,5.894,5.894,15.449,0,21.343c-5.895,5.894-15.45,5.894-21.343,0"/>
<path opacity="0.3" d="M146.367,133.184c-3.922,0.032-8.438-2.277-10.078-3.345c-1.259-0.819-3.837-0.519-5.304,1.494
	c-0.726,1.16-0.676,4.13,0.941,5.212c1.175,0.68,6.307,3.927,12.446,4.529L146.367,133.184z"/>
<path fill="#006B84" d="M160.095,116.475c-1.274-3.754-3.789-7.044-7.112-9.463l-1.151,4.555c0.086,2.174,0.145,4.271,0.168,6.25
	c0.2,0.403,0.379,0.813,0.521,1.232c0.533,1.57,0.881,3.979-0.494,6.525c-1.16,2.151-2.63,3.404-4.491,3.832
	c-4.296,0.98-10.102-2.317-11.979-3.672c-1.218-0.879-3.807-0.703-5.369,1.236c-0.781,1.123-0.875,4.092,0.688,5.25
	c1.313,0.847,7.667,5.361,15.005,5.36c1.142-0.001,2.296-0.115,3.442-0.378c4.12-0.944,7.49-3.652,9.745-7.83
	C161.208,125.406,161.573,120.826,160.095,116.475z"/>
<path opacity="0.4" d="M155.074,108.764l-2.617,0.328l-0.626,2.475c0.081,2.055,0.136,4.032,0.161,5.914
	c0.618-1.048,3.258-2.98,7.016-3.546C157.688,111.406,156.163,109.795,155.074,108.764z"/>
<path fill="#004D6B" d="M180.774,68.368c-2.101-0.688-4.358,0.457-5.047,2.557c-7.535,23.011-16.604,30.999-22.884,33.648
	c-0.357,0.15-0.703,0.271-1.05,0.392h1.706l-1.673,6.617c0.022,0.561,0.05,1.138,0.068,1.687c1.212-0.284,2.47-0.675,3.766-1.203
	c11.497-4.689,20.807-17.693,27.67-38.651C184.019,71.315,182.873,69.056,180.774,68.368z"/>
<circle fill="#006B84" cx="143.333" cy="84.083" r="1.333"/>
<circle fill="#006B84" cx="142.079" cy="78.337" r="1.08"/>
<circle fill="#006B84" cx="116.771" cy="25.551" r="1.19"/>
<circle fill="#006B84" cx="60.738" cy="47.433" r="2.05"/>
<circle fill="#006B84" cx="137.741" cy="82.652" r="1.343"/>
<circle fill="#39B54A" cx="72.93" cy="34.059" r="5.433"/>
<circle opacity="0.5" fill="#2CF23F" cx="72.93" cy="34.059" r="4.558"/>
<circle fill="#231F20" cx="72.93" cy="34.059" r="4.072"/>
<path opacity="0.2" fill="#00FFFF" d="M75.79,33.793c0,1.579-1.28,0.621-2.86,0.621c-1.579,0-2.86,0.958-2.859-0.621
	c0-1.579,1.281-2.859,2.859-2.859C74.509,30.934,75.79,32.214,75.79,33.793z"/>
<path opacity="0.2" fill="#00FFFF" d="M130.201,33.782c0,1.646-1.335,0.647-2.981,0.647s-2.981,1-2.981-0.647
	c0-1.647,1.335-2.982,2.981-2.982C128.866,30.8,130.201,32.135,130.201,33.782z"/>
<circle fill="#FFFFFF" cx="80.957" cy="58.458" r="2.056"/>
<circle fill="#FFFFFF" cx="126.003" cy="31.7" r="0.891"/>
<circle fill="#FFFFFF" cx="71.763" cy="31.796" r="0.854"/>
</svg>
