<?xml version="1.0" encoding="utf-8"?>
<!-- Generator: Adobe Illustrator 16.0.0, SVG Export Plug-In . SVG Version: 6.00 Build 0)  -->
<!DOCTYPE svg PUBLIC "-//W3C//DTD SVG 1.1//EN" "http://www.w3.org/Graphics/SVG/1.1/DTD/svg11.dtd">
<svg version="1.1" id="Слой_1" xmlns="http://www.w3.org/2000/svg" xmlns:xlink="http://www.w3.org/1999/xlink" x="0px" y="0px"
	 width="158px" height="186px" viewBox="0 0 158 186" enable-background="new 0 0 158 186" xml:space="preserve">
<path fill="none" stroke="#007A3D" stroke-width="8" stroke-linecap="round" stroke-miterlimit="10" d="M5.418,111.125
	c0,0,9.75,8.172,26.125,4.297"/>
<ellipse opacity="0.2" fill="#0090A8" cx="78.917" cy="177.887" rx="77.917" ry="6.807"/>
<ellipse opacity="0.4" fill="#0090A8" cx="73.896" cy="177.887" rx="50.105" ry="4.377"/>
<ellipse opacity="0.4" fill="#1C75BC" cx="53.542" cy="177.164" rx="26.625" ry="7.529"/>
<g>
	<path fill="none" stroke="#00A576" stroke-width="8" stroke-linecap="round" stroke-miterlimit="10" d="M120.765,174.5
		c0,0-5.75-35.84-33-40.67"/>
</g>
<path fill="none" stroke="#00A576" stroke-width="8" stroke-linecap="round" stroke-miterlimit="10" d="M27.766,174.5
	c0,0,10.75-35.84,37.999-40.67"/>
<path fill="none" stroke="#007A3D" stroke-width="8" stroke-linecap="round" stroke-miterlimit="10" d="M152.765,174.5
	c0,0-11.502-36.334-36-42.67"/>
<path fill="none" stroke="#007A3D" stroke-width="8" stroke-linecap="round" stroke-miterlimit="10" d="M4.68,174.5
	c0,0,10.75-35.84,38-40.67"/>
<linearGradient id="SVGID_1_" gradientUnits="userSpaceOnUse" x1="21.4272" y1="87.3848" x2="140.5352" y2="87.3848" gradientTransform="matrix(-1 0 0 1 157.5 0)">
	<stop  offset="0" style="stop-color:#009500"/>
	<stop  offset="0.6872" style="stop-color:#00CC00"/>
	<stop  offset="1" style="stop-color:#00E700"/>
</linearGradient>
<path fill="url(#SVGID_1_)" d="M22.604,64.372c5.729-28.408,27.254-50.055,53.915-50.023l0,0
	c26.664-0.033,48.188,21.615,53.916,50.023c2.848,17.996,5.756,46.009,5.635,63.218c0.117,13.703-9.803,23.041-21.117,27.652
	c-11.646,4.83-24.689,4.932-38.434,5.18l0,0c-13.744-0.248-26.784-0.35-38.431-5.18c-11.316-4.611-21.236-13.949-21.119-27.652
	C16.848,110.381,19.756,82.368,22.604,64.372z"/>
<g>
	<path fill="#006838" d="M87.864,162.834c1.024,0,2.048-0.391,2.829-1.172c0.656-0.656,1.036-1.482,1.142-2.338
		c0.107-0.686,2.158-11.654,22.395-14.018c14.992-1.752,24.207-3.986,26.941-10.225c2.297-5.244-1.42-10.357-2.642-12.039
		c-1.298-1.787-3.8-2.184-5.587-0.883c-1.787,1.299-2.184,3.799-0.885,5.586c1.77,2.436,1.955,3.738,1.785,4.125
		c-0.533,1.217-3.91,3.547-20.542,5.49c-21.06,2.459-27.091,13.535-28.706,18.182c-0.619,1.777-1.465,4.213,0.441,6.119
		C85.817,162.443,86.841,162.834,87.864,162.834z"/>
</g>
<circle fill="#FFFFFF" cx="39.837" cy="75.929" r="16.429"/>
<circle fill="#FFFFFF" cx="84.859" cy="75.929" r="16.429"/>
<g>
	<circle fill="#0090A8" cx="39.334" cy="76.301" r="14.342"/>
	<circle opacity="0.4" fill="#00F3FF" cx="39.32" cy="76.314" r="12.183"/>
	<circle fill="#231F20" cx="39.193" cy="76.301" r="10.287"/>
	<path opacity="0.2" fill="#27AAE1" d="M32.396,76.398c0,3.754,3.045,1.476,6.799,1.476c3.752,0,6.797,2.278,6.797-1.476
		c0-3.753-3.045-6.797-6.797-6.797C35.44,69.601,32.396,72.645,32.396,76.398z"/>
	<circle fill="#FFFFFF" cx="41.959" cy="71.02" r="2.18"/>
</g>
<g>
	<circle fill="#0090A8" cx="84.727" cy="76.434" r="14.342"/>
	<circle opacity="0.4" fill="#00F3FF" cx="84.713" cy="76.447" r="12.183"/>
	<circle fill="#231F20" cx="84.586" cy="76.434" r="10.287"/>
	<path opacity="0.2" fill="#27AAE1" d="M77.788,76.531c0,3.754,3.045,1.476,6.799,1.476c3.752,0,6.797,2.278,6.797-1.476
		c0-3.753-3.045-6.797-6.797-6.797C80.833,69.734,77.788,72.778,77.788,76.531z"/>
	<circle fill="#FFFFFF" cx="87.352" cy="71.153" r="2.18"/>
</g>
<circle fill="#FFFFFF" cx="36.104" cy="45.218" r="7.177"/>
<circle fill="#FFFFFF" cx="93.461" cy="45.218" r="7.177"/>
<g>
	<circle fill="#0090A8" cx="35.934" cy="45.232" r="5.747"/>
	<circle opacity="0.4" fill="#00F3FF" cx="35.934" cy="45.232" r="4.633"/>
	<circle fill="#231F20" cx="35.934" cy="45.232" r="3.813"/>
	<path opacity="0.2" fill="#27AAE1" d="M33.258,44.983c0,1.479,1.198,0.582,2.675,0.582c1.479,0,2.678,0.896,2.678-0.582
		c0-1.478-1.198-2.677-2.678-2.677C34.456,42.307,33.258,43.505,33.258,44.983z"/>
	<path fill="#FFFFFF" d="M37.825,43.114c0,0.443-0.357,0.801-0.8,0.801c-0.444,0-0.799-0.357-0.799-0.801
		c0-0.441,0.354-0.799,0.799-0.799C37.468,42.315,37.825,42.672,37.825,43.114z"/>
</g>
<g>
	<circle fill="#0090A8" cx="93.322" cy="45.232" r="5.747"/>
	<circle opacity="0.4" fill="#00F3FF" cx="93.321" cy="45.232" r="4.633"/>
	<circle fill="#231F20" cx="93.321" cy="45.232" r="3.813"/>
	<path opacity="0.2" fill="#27AAE1" d="M90.646,44.983c0,1.479,1.198,0.582,2.675,0.582c1.479,0,2.678,0.896,2.678-0.582
		c0-1.478-1.198-2.677-2.678-2.677C91.844,42.307,90.646,43.505,90.646,44.983z"/>
	<path fill="#FFFFFF" d="M95.213,43.114c0,0.443-0.357,0.801-0.8,0.801c-0.444,0-0.799-0.357-0.799-0.801
		c0-0.441,0.354-0.799,0.799-0.799C94.855,42.315,95.213,42.672,95.213,43.114z"/>
</g>
<path fill="#00471E" d="M132.058,127.746c-1.099-1.512-0.973-3.525,0.17-4.9l0.355-0.365c0.117-0.109,0.227-0.225,0.359-0.32
	c1.787-1.301,4.289-0.904,5.587,0.883c0.437,0.602,1.19,1.645,1.876,2.971c-2.808,2.563-5.371,3.59-6.967,3.992
	C133.155,129.402,132.717,128.654,132.058,127.746z"/>
<ellipse transform="matrix(-0.8437 -0.5367 0.5367 -0.8437 186.2162 68.5283)" fill="#2B3990" cx="103.083" cy="7.159" rx="2.465" ry="1.278"/>
<path fill="#EBFDFF" d="M93.306,25.643l0.408,0.152l22.752,8.448c0,0,2.648-23.348-23.16-31.693
	c-19.587-6.334-31.04,10.269-31.04,10.269"/>
<path fill="#27AAE1" d="M93.306,2.55c3.867,1.251,7.084,2.842,9.777,4.638c-5.079,3.767-8.609,10.687-9.04,18.729l-0.329-0.122
	l-0.408-0.152l-31.04-12.824C62.266,12.819,73.719-3.784,93.306,2.55z"/>
<path fill="#FFFFFF" d="M36.243,12.644c0.53-0.84,1.3-1.419,2.074-1.854c0.784-0.436,1.602-0.74,2.423-0.975
	c1.656-0.41,3.165-0.813,4.809-1.13l2.443-0.468l2.453-0.352c0.815-0.132,1.641-0.199,2.465-0.267
	c0.825-0.062,1.647-0.168,2.478-0.172l2.486-0.066l2.49,0.071c1.657,0.114,3.319,0.239,4.96,0.535
	c0.826,0.11,1.641,0.288,2.452,0.476c0.817,0.167,1.627,0.362,2.424,0.609c0.801,0.229,1.606,0.448,2.386,0.745
	c0.782,0.285,1.58,0.531,2.34,0.874c1.547,0.62,3.048,1.343,4.521,2.112c0.725,0.406,1.461,0.795,2.174,1.218l2.115,1.312
	l2.053,1.399l1.99,1.452c0.658,0.47,1.313,0.986,1.966,1.499c0.661,0.504,1.302,1.031,1.933,1.571
	c0.643,0.522,1.254,1.102,1.873,1.668c0.608,0.601,1.248,1.152,1.346,2.297l0.088,1.024l-0.719-0.309
	c-1.961-0.841-4.039-1.517-6.119-2.109c-2.088-0.585-4.199-1.087-6.329-1.508c-1.065-0.206-2.135-0.393-3.206-0.57
	c-1.075-0.147-2.145-0.337-3.225-0.451c-1.08-0.117-2.156-0.27-3.24-0.344c-1.082-0.083-2.163-0.2-3.249-0.239
	c-1.085-0.043-2.169-0.136-3.256-0.136c-1.082-0.01-2.18-0.056-3.25-0.037c-1.095,0.015-2.184,0.043-3.251,0.125
	c-1.072,0.062-2.152,0.184-3.22,0.327c-2.138,0.29-4.254,0.74-6.296,1.404c-1.023,0.323-2.022,0.719-2.984,1.174
	c-0.482,0.225-0.949,0.478-1.398,0.746c-0.223,0.144-0.44,0.264-0.604,0.423l-0.62,0.533l-0.333,0.286l-0.33-0.295v-0.001
	c-1.231-1.024-2.513-2.108-3.674-3.287c-1.158-1.189-2.264-2.461-3.11-3.975c-0.416-0.758-0.77-1.589-0.899-2.521
	C35.534,14.538,35.702,13.478,36.243,12.644z"/>
<linearGradient id="SVGID_2_" gradientUnits="userSpaceOnUse" x1="104.1699" y1="184.1396" x2="104.1699" y2="95.5225" gradientTransform="matrix(-1 0 0 1 157.5 0)">
	<stop  offset="0" style="stop-color:#F2A100"/>
	<stop  offset="0.1237" style="stop-color:#F97A00"/>
	<stop  offset="0.3065" style="stop-color:#F9B713"/>
	<stop  offset="0.5054" style="stop-color:#F97A00"/>
	<stop  offset="0.6505" style="stop-color:#F9B713"/>
	<stop  offset="0.7957" style="stop-color:#F97A00"/>
	<stop  offset="1" style="stop-color:#F9B713"/>
</linearGradient>
<circle fill="url(#SVGID_2_)" cx="53.329" cy="139.83" r="44.309"/>
<g opacity="0.5">
	<defs>
		<circle id="SVGID_3_" opacity="0.5" cx="53.329" cy="139.83" r="44.309"/>
	</defs>
	<clipPath id="SVGID_4_">
		<use xlink:href="#SVGID_3_"  overflow="visible"/>
	</clipPath>
	<g opacity="0.3" clip-path="url(#SVGID_4_)">
		<g>
			<g>
				<rect x="31.001" y="96.641" fill="#FFF3C0" width="78.833" height="0.721"/>
				<rect x="31.001" y="97.279" fill="#A97C50" width="78.833" height="0.721"/>
			</g>
			<g>
				<rect x="31.001" y="98.641" fill="#FFF3C0" width="78.833" height="0.721"/>
				<rect x="31.001" y="99.279" fill="#A97C50" width="78.833" height="0.721"/>
			</g>
			<g>
				<rect x="31.001" y="100.641" fill="#FFF3C0" width="78.833" height="0.721"/>
				<rect x="31.001" y="101.279" fill="#A97C50" width="78.833" height="0.721"/>
			</g>
			<g>
				<rect x="31.001" y="102.641" fill="#FFF3C0" width="78.833" height="0.721"/>
				<rect x="31.001" y="103.279" fill="#A97C50" width="78.833" height="0.721"/>
			</g>
			<g>
				<rect x="31.001" y="104.641" fill="#FFF3C0" width="78.833" height="0.721"/>
				<rect x="31.001" y="105.279" fill="#A97C50" width="78.833" height="0.721"/>
			</g>
			<g>
				<rect x="31.001" y="106.641" fill="#FFF3C0" width="78.833" height="0.721"/>
				<rect x="31.001" y="107.279" fill="#A97C50" width="78.833" height="0.721"/>
			</g>
			<g>
				<rect x="31.001" y="108.641" fill="#FFF3C0" width="78.833" height="0.721"/>
				<rect x="31.001" y="109.279" fill="#A97C50" width="78.833" height="0.721"/>
			</g>
			<g>
				<rect x="31.001" y="110.641" fill="#FFF3C0" width="78.833" height="0.721"/>
				<rect x="31.001" y="111.279" fill="#A97C50" width="78.833" height="0.721"/>
			</g>
		</g>
		<g>
			<g>
				<rect x="31.001" y="112.641" fill="#FFF3C0" width="78.833" height="0.721"/>
				<rect x="31.001" y="113.279" fill="#A97C50" width="78.833" height="0.721"/>
			</g>
			<g>
				<rect x="31.001" y="114.641" fill="#FFF3C0" width="78.833" height="0.721"/>
				<rect x="31.001" y="115.279" fill="#A97C50" width="78.833" height="0.721"/>
			</g>
			<g>
				<rect x="31.001" y="116.641" fill="#FFF3C0" width="78.833" height="0.721"/>
				<rect x="31.001" y="117.279" fill="#A97C50" width="78.833" height="0.721"/>
			</g>
			<g>
				<rect x="31.001" y="118.641" fill="#FFF3C0" width="78.833" height="0.721"/>
				<rect x="31.001" y="119.279" fill="#A97C50" width="78.833" height="0.721"/>
			</g>
			<g>
				<rect x="31.001" y="120.641" fill="#FFF3C0" width="78.833" height="0.721"/>
				<rect x="31.001" y="121.279" fill="#A97C50" width="78.833" height="0.721"/>
			</g>
			<g>
				<rect x="31.001" y="122.641" fill="#FFF3C0" width="78.833" height="0.721"/>
				<rect x="31.001" y="123.279" fill="#A97C50" width="78.833" height="0.721"/>
			</g>
			<g>
				<rect x="31.001" y="124.641" fill="#FFF3C0" width="78.833" height="0.721"/>
				<rect x="31.001" y="125.279" fill="#A97C50" width="78.833" height="0.721"/>
			</g>
			<g>
				<rect x="31.001" y="126.641" fill="#FFF3C0" width="78.833" height="0.721"/>
				<rect x="31.001" y="127.279" fill="#A97C50" width="78.833" height="0.721"/>
			</g>
		</g>
		<g>
			<g>
				<rect x="31.001" y="128.641" fill="#FFF3C0" width="78.833" height="0.721"/>
				<rect x="31.001" y="129.279" fill="#A97C50" width="78.833" height="0.721"/>
			</g>
			<g>
				<rect x="31.001" y="130.641" fill="#FFF3C0" width="78.833" height="0.721"/>
				<rect x="31.001" y="131.279" fill="#A97C50" width="78.833" height="0.721"/>
			</g>
			<g>
				<rect x="31.001" y="132.641" fill="#FFF3C0" width="78.833" height="0.721"/>
				<rect x="31.001" y="133.279" fill="#A97C50" width="78.833" height="0.721"/>
			</g>
			<g>
				<rect x="31.001" y="134.641" fill="#FFF3C0" width="78.833" height="0.721"/>
				<rect x="31.001" y="135.279" fill="#A97C50" width="78.833" height="0.721"/>
			</g>
			<g>
				<rect x="31.001" y="136.641" fill="#FFF3C0" width="78.833" height="0.721"/>
				<rect x="31.001" y="137.279" fill="#A97C50" width="78.833" height="0.721"/>
			</g>
			<g>
				<rect x="31.001" y="138.641" fill="#FFF3C0" width="78.833" height="0.721"/>
				<rect x="31.001" y="139.279" fill="#A97C50" width="78.833" height="0.721"/>
			</g>
			<g>
				<rect x="31.001" y="140.641" fill="#FFF3C0" width="78.833" height="0.721"/>
				<rect x="31.001" y="141.279" fill="#A97C50" width="78.833" height="0.721"/>
			</g>
			<g>
				<rect x="31.001" y="142.641" fill="#FFF3C0" width="78.833" height="0.721"/>
				<rect x="31.001" y="143.279" fill="#A97C50" width="78.833" height="0.721"/>
			</g>
		</g>
		<g>
			<g>
				<rect x="31.001" y="144.641" fill="#FFF3C0" width="78.833" height="0.721"/>
				<rect x="31.001" y="145.279" fill="#A97C50" width="78.833" height="0.721"/>
			</g>
			<g>
				<rect x="31.001" y="146.641" fill="#FFF3C0" width="78.833" height="0.721"/>
				<rect x="31.001" y="147.279" fill="#A97C50" width="78.833" height="0.721"/>
			</g>
			<g>
				<rect x="31.001" y="148.641" fill="#FFF3C0" width="78.833" height="0.721"/>
				<rect x="31.001" y="149.279" fill="#A97C50" width="78.833" height="0.721"/>
			</g>
			<g>
				<rect x="31.001" y="150.641" fill="#FFF3C0" width="78.833" height="0.721"/>
				<rect x="31.001" y="151.279" fill="#A97C50" width="78.833" height="0.721"/>
			</g>
			<g>
				<rect x="31.001" y="152.641" fill="#FFF3C0" width="78.833" height="0.721"/>
				<rect x="31.001" y="153.279" fill="#A97C50" width="78.833" height="0.721"/>
			</g>
			<g>
				<rect x="31.001" y="154.641" fill="#FFF3C0" width="78.833" height="0.721"/>
				<rect x="31.001" y="155.279" fill="#A97C50" width="78.833" height="0.721"/>
			</g>
			<g>
				<rect x="31.001" y="156.641" fill="#FFF3C0" width="78.833" height="0.721"/>
				<rect x="31.001" y="157.279" fill="#A97C50" width="78.833" height="0.721"/>
			</g>
			<g>
				<rect x="31.001" y="158.641" fill="#FFF3C0" width="78.833" height="0.721"/>
				<rect x="31.001" y="159.279" fill="#A97C50" width="78.833" height="0.721"/>
			</g>
		</g>
		<g>
			<g>
				<rect x="31.001" y="160.641" fill="#FFF3C0" width="78.833" height="0.721"/>
				<rect x="31.001" y="161.279" fill="#A97C50" width="78.833" height="0.721"/>
			</g>
			<g>
				<rect x="31.001" y="162.641" fill="#FFF3C0" width="78.833" height="0.721"/>
				<rect x="31.001" y="163.279" fill="#A97C50" width="78.833" height="0.721"/>
			</g>
			<g>
				<rect x="31.001" y="164.641" fill="#FFF3C0" width="78.833" height="0.721"/>
				<rect x="31.001" y="165.279" fill="#A97C50" width="78.833" height="0.721"/>
			</g>
			<g>
				<rect x="31.001" y="166.641" fill="#FFF3C0" width="78.833" height="0.721"/>
				<rect x="31.001" y="167.279" fill="#A97C50" width="78.833" height="0.721"/>
			</g>
			<g>
				<rect x="31.001" y="168.641" fill="#FFF3C0" width="78.833" height="0.721"/>
				<rect x="31.001" y="169.279" fill="#A97C50" width="78.833" height="0.721"/>
			</g>
			<g>
				<rect x="31.001" y="170.641" fill="#FFF3C0" width="78.833" height="0.721"/>
				<rect x="31.001" y="171.279" fill="#A97C50" width="78.833" height="0.721"/>
			</g>
			<g>
				<rect x="31.001" y="172.641" fill="#FFF3C0" width="78.833" height="0.721"/>
				<rect x="31.001" y="173.279" fill="#A97C50" width="78.833" height="0.721"/>
			</g>
			<g>
				<rect x="31.001" y="174.641" fill="#FFF3C0" width="78.833" height="0.721"/>
				<rect x="31.001" y="175.279" fill="#A97C50" width="78.833" height="0.721"/>
			</g>
		</g>
		<g>
			<g>
				<rect x="31.001" y="176.641" fill="#FFF3C0" width="78.833" height="0.721"/>
				<rect x="31.001" y="177.279" fill="#A97C50" width="78.833" height="0.721"/>
			</g>
			<g>
				<rect x="31.001" y="178.641" fill="#FFF3C0" width="78.833" height="0.721"/>
				<rect x="31.001" y="179.279" fill="#A97C50" width="78.833" height="0.721"/>
			</g>
			<g>
				<rect x="31.001" y="180.641" fill="#FFF3C0" width="78.833" height="0.721"/>
				<rect x="31.001" y="181.279" fill="#A97C50" width="78.833" height="0.721"/>
			</g>
			<g>
				<rect x="31.001" y="182.641" fill="#FFF3C0" width="78.833" height="0.721"/>
				<rect x="31.001" y="183.279" fill="#A97C50" width="78.833" height="0.721"/>
			</g>
			<g>
				<rect x="31.001" y="184.641" fill="#FFF3C0" width="78.833" height="0.721"/>
				<rect x="31.001" y="185.279" fill="#A97C50" width="78.833" height="0.721"/>
			</g>
		</g>
	</g>
</g>
<ellipse fill="#FFF3C0" cx="51.094" cy="139.83" rx="42.073" ry="44.309"/>
<ellipse fill="#FFF3C0" cx="51.542" cy="139.83" rx="41.625" ry="44.309"/>
<circle opacity="0.2" fill="#FDD31A" cx="53.329" cy="139.83" r="44.309"/>
<ellipse fill="#FDD31A" cx="51" cy="139.83" rx="41.083" ry="44.309"/>
<ellipse fill="#F2A100" cx="51.094" cy="139.83" rx="35.073" ry="36.936"/>
<ellipse fill="#F9B713" cx="51.583" cy="139.83" rx="34.583" ry="36.936"/>
<ellipse fill="#F2A100" cx="51.094" cy="139.83" rx="26.769" ry="28.189"/>
<ellipse fill="#FFF3C0" cx="50.559" cy="139.83" rx="26.233" ry="28.189"/>
<ellipse fill="#FDD31A" cx="51.021" cy="139.83" rx="25.771" ry="28.189"/>
<g>
	<path fill="#EF8800" d="M36.335,137.844H40v-16.482h10.271c3.891,0,6.425,0.207,7.646,0.568c3.619,1.084,6.378,4.807,6.378,10.592
		c0,6.613-3.709,10.076-7.058,10.902c-1.538,0.361-3.754,0.516-6.649,0.516h-4.163v3.102h16.513v6.098H46.426v4.443H40v-4.443
		h-3.665v-6.098H40v-3.102h-3.665V137.844z M46.426,127.51v10.281h3.483c2.533,0,4.208-0.205,5.066-0.566
		c1.629-0.672,2.715-2.48,2.715-4.6c0-2.635-1.537-4.443-3.573-4.855c-0.769-0.156-2.309-0.26-4.616-0.26H46.426z"/>
</g>
<g>
	<path fill="#FFF3C0" d="M37.456,137.844h3.683v-16.482h10.324c3.91,0,6.458,0.207,7.685,0.568c3.637,1.084,6.41,4.807,6.41,10.592
		c0,6.613-3.729,10.076-7.092,10.902c-1.546,0.361-3.774,0.516-6.686,0.516h-4.183v3.102h16.595v6.098H47.598v4.443h-6.459v-4.443
		h-3.683v-6.098h3.683v-3.102h-3.683V137.844z M47.598,127.51v10.281H51.1c2.545,0,4.229-0.205,5.091-0.566
		c1.637-0.672,2.728-2.48,2.728-4.6c0-2.635-1.543-4.443-3.59-4.855c-0.773-0.156-2.321-0.26-4.64-0.26H47.598z"/>
</g>
<g>
	<path fill="#F2A700" d="M36.998,137.844h3.697v-16.482h10.363c3.925,0,6.481,0.207,7.714,0.568
		c3.651,1.084,6.435,4.807,6.435,10.592c0,6.613-3.742,10.076-7.12,10.902c-1.552,0.361-3.787,0.516-6.709,0.516h-4.2v3.102h16.66
		v6.098h-16.66v4.443h-6.482v-4.443h-3.697v-6.098h3.697v-3.102h-3.697V137.844z M47.178,127.51v10.281h3.515
		c2.556,0,4.245-0.205,5.112-0.566c1.643-0.672,2.738-2.48,2.738-4.6c0-2.635-1.551-4.443-3.605-4.855
		c-0.775-0.156-2.328-0.26-4.656-0.26H47.178z"/>
</g>
<linearGradient id="SVGID_5_" gradientUnits="userSpaceOnUse" x1="75.8555" y1="109.2793" x2="136.9574" y2="170.3812" gradientTransform="matrix(-1 0 0 1 157.5 0)">
	<stop  offset="0" style="stop-color:#F97E00;stop-opacity:0"/>
	<stop  offset="0.3011" style="stop-color:#F97A00"/>
	<stop  offset="0.5215" style="stop-color:#F97E00;stop-opacity:0"/>
	<stop  offset="0.7527" style="stop-color:#F97A00"/>
	<stop  offset="1" style="stop-color:#F97E00;stop-opacity:0"/>
</linearGradient>
<ellipse opacity="0.2" fill="url(#SVGID_5_)" cx="51.094" cy="139.83" rx="42.073" ry="44.309"/>
<linearGradient id="SVGID_6_" gradientUnits="userSpaceOnUse" x1="64.333" y1="139.8301" x2="148.4795" y2="139.8301" gradientTransform="matrix(-1 0 0 1 157.5 0)">
	<stop  offset="0" style="stop-color:#FFFFFF;stop-opacity:0"/>
	<stop  offset="1" style="stop-color:#FFFFFF"/>
</linearGradient>
<ellipse opacity="0.2" fill="url(#SVGID_6_)" cx="51.094" cy="139.83" rx="42.073" ry="44.309"/>
<linearGradient id="SVGID_7_" gradientUnits="userSpaceOnUse" x1="106.4063" y1="95.5205" x2="106.4063" y2="139.8291" gradientTransform="matrix(-1 0 0 1 157.5 0)">
	<stop  offset="0" style="stop-color:#FFFFFF;stop-opacity:0"/>
	<stop  offset="1" style="stop-color:#FFFFFF"/>
</linearGradient>
<path opacity="0.1" fill="url(#SVGID_7_)" d="M93.167,139.83c0-24.471-18.835-44.309-42.071-44.309
	c-23.238,0-42.075,19.838-42.075,44.309"/>
<path fill="#2B3990" d="M93.993,25.883c0,0-11.826-4.5-31.576-4.5c-12.917,0-18.423,5.258-18.423,5.258l-0.773,0.673
	c-1.524-1.402-14.196-13.537-2.387-16.598c19.291-5,32.416-1.166,44.025,7.243C92.595,23.563,93.993,25.883,93.993,25.883z"/>
<path fill="none" stroke="#006838" stroke-width="8" stroke-linecap="round" stroke-miterlimit="10" d="M85.564,121.832
	c-0.002-0.002,7.741,1.926,15.032,2.998c36.764,5.408,43.166-10.332,32.332-18.33"/>
<polygon fill="#FFFFFF" points="32.125,119.717 32.703,117.762 32.97,119.717 34.499,120.135 32.911,120.395 32.414,121.803 
	32.105,120.42 30.938,119.781 "/>
</svg>
