<?xml version="1.0" encoding="utf-8"?>
<!-- Generator: Adobe Illustrator 16.0.0, SVG Export Plug-In . SVG Version: 6.00 Build 0)  -->
<!DOCTYPE svg PUBLIC "-//W3C//DTD SVG 1.1//EN" "http://www.w3.org/Graphics/SVG/1.1/DTD/svg11.dtd">
<svg version="1.1" id="Слой_1" xmlns="http://www.w3.org/2000/svg" xmlns:xlink="http://www.w3.org/1999/xlink" x="0px" y="0px"
	 width="165px" height="190px" viewBox="0 0 165 190" enable-background="new 0 0 165 190" xml:space="preserve">
<path fill="none" stroke="#5D2BBC" stroke-width="8" stroke-linecap="round" stroke-miterlimit="10" d="M161.465,112.265
	c0,0-9.75,8.173-26.125,4.298"/>
<ellipse opacity="0.2" fill="#0090A8" cx="80.75" cy="179.026" rx="77.917" ry="6.807"/>
<ellipse opacity="0.4" fill="#0090A8" cx="85.771" cy="179.026" rx="50.105" ry="4.377"/>
<g>
	<path fill="none" stroke="#8252C1" stroke-width="8" stroke-linecap="round" stroke-miterlimit="10" d="M38.902,175.641
		c0,0,5.75-35.84,33-40.67"/>
</g>
<path fill="none" stroke="#8252C1" stroke-width="8" stroke-linecap="round" stroke-miterlimit="10" d="M131.901,175.641
	c0,0-10.75-35.84-37.999-40.67"/>
<path fill="none" stroke="#6133BC" stroke-width="8" stroke-linecap="round" stroke-miterlimit="10" d="M6.902,175.641
	c0,0,11.502-36.334,36-42.67"/>
<path fill="none" stroke="#6133BC" stroke-width="8" stroke-linecap="round" stroke-miterlimit="10" d="M154.987,175.641
	c0,0-10.75-35.84-38-40.67"/>
<path fill="#FFFFFF" d="M138.063,65.512c-5.729-28.408-27.254-50.055-53.915-50.023l0,0C57.484,15.455,35.96,37.104,30.232,65.512
	c-2.847,17.996-5.755,46.01-5.635,63.219c-0.117,13.703,9.803,23.041,21.118,27.652c11.646,4.83,24.688,4.932,38.433,5.18l0,0
	c13.743-0.248,26.784-0.35,38.431-5.18c11.316-4.611,21.236-13.949,21.119-27.652C143.819,111.521,140.911,83.508,138.063,65.512z"
	/>
<linearGradient id="SVGID_1_" gradientUnits="userSpaceOnUse" x1="23.5938" y1="88.5254" x2="142.7021" y2="88.5254">
	<stop  offset="0" style="stop-color:#5B10B5"/>
	<stop  offset="0.9946" style="stop-color:#8567D0"/>
</linearGradient>
<path fill="url(#SVGID_1_)" d="M137.063,65.512c-5.729-28.408-27.254-50.055-53.915-50.023l0,0
	C56.484,15.455,34.96,37.104,29.232,65.512c-2.847,17.996-5.755,46.01-5.635,63.219c-0.117,13.703,9.803,23.041,21.118,27.652
	c11.646,4.83,24.688,4.932,38.433,5.18l0,0c13.744-0.248,26.784-0.35,38.431-5.18c11.316-4.611,21.236-13.949,21.119-27.652
	C142.819,111.521,139.911,83.508,137.063,65.512z"/>
<path fill="#FFB600" d="M83.148,15.488"/>
<circle fill="#FFFFFF" cx="116.499" cy="84.979" r="16.76"/>
<circle fill="#FFFFFF" cx="74.056" cy="84.979" r="16.76"/>
<circle fill="#6400B6" cx="116.693" cy="84.979" r="13.93"/>
<circle opacity="0.4" fill="#964DFF" cx="116.707" cy="84.991" r="11.833"/>
<circle fill="#231F20" cx="116.83" cy="84.979" r="9.991"/>
<path opacity="0.2" fill="#27AAE1" d="M123.432,85.073c0,3.646-2.957,1.434-6.603,1.434c-3.645,0-6.602,2.213-6.602-1.434
	c0-3.646,2.957-6.602,6.602-6.602C120.475,78.472,123.432,81.428,123.432,85.073z"/>
<circle fill="#FFFFFF" cx="114.145" cy="79.85" r="2.117"/>
<circle fill="#6400B6" cx="74.274" cy="84.979" r="13.929"/>
<circle opacity="0.4" fill="#964DFF" cx="74.275" cy="84.979" r="12.017"/>
<circle fill="#231F20" cx="74.411" cy="84.979" r="9.99"/>
<path opacity="0.2" fill="#27AAE1" d="M81.013,85.073c0,3.646-2.956,1.434-6.604,1.434c-3.644,0-6.601,2.213-6.6-1.434
	c0-3.646,2.956-6.602,6.6-6.602C78.057,78.472,81.013,81.428,81.013,85.073z"/>
<circle fill="#FFFFFF" cx="71.724" cy="79.85" r="2.117"/>
<circle fill="#FFFFFF" cx="119.99" cy="54.264" r="7.321"/>
<circle fill="#FFFFFF" cx="68.026" cy="54.264" r="7.321"/>
<circle fill="#6400B6" cx="120.484" cy="53.958" r="5.542"/>
<circle opacity="0.4" fill="#964DFF" cx="120.484" cy="53.958" r="4.468"/>
<circle fill="#231F20" cx="120.484" cy="53.958" r="3.677"/>
<circle fill="#6400B6" cx="68.588" cy="53.958" r="5.542"/>
<circle opacity="0.4" fill="#964DFF" cx="68.588" cy="53.958" r="4.809"/>
<circle fill="#231F20" cx="68.588" cy="53.958" r="3.71"/>
<path opacity="0.2" fill="#27AAE1" d="M71.194,53.717c0,1.438-1.166,0.564-2.605,0.564c-1.438,0-2.606,0.873-2.605-0.564
	c-0.001-1.439,1.167-2.605,2.605-2.605C70.028,51.111,71.194,52.277,71.194,53.717z"/>
<path opacity="0.2" fill="#27AAE1" d="M123.065,53.718c0,1.426-1.155,0.562-2.581,0.562s-2.582,0.864-2.582-0.562
	c0-1.425,1.156-2.582,2.582-2.582C121.91,51.137,123.065,52.293,123.065,53.718z"/>
<path fill="#FFFFFF" d="M118.66,51.914c0,0.428,0.345,0.773,0.771,0.773c0.429,0,0.771-0.346,0.771-0.773
	c0-0.425-0.343-0.77-0.771-0.77C119.005,51.145,118.66,51.489,118.66,51.914z"/>
<path fill="#FFFFFF" d="M66.747,51.896c0,0.432,0.349,0.779,0.778,0.779c0.433,0,0.778-0.348,0.778-0.779
	c0-0.43-0.346-0.777-0.778-0.777C67.096,51.119,66.747,51.467,66.747,51.896z"/>
<path fill="#231F20" d="M94,16.871c0,0,1.5,0.73-7.5,1.93c-9,1.2-23.259,0.246-23.259,0.246s4.966-3.537,15.426-3.898
	C94.04,14.617,94,16.871,94,16.871z"/>
<path fill="#3F0082" d="M68.918,4.27C53.678,7.92,42.22,14.621,43.326,19.238c0.599,2.5,4.76,3.872,10.863,4.03
	c3.751-2.521,10.18-5.116,17.709-6.92c7.488-1.794,14.362-2.397,18.849-1.865c5.314-2.892,8.362-5.979,7.768-8.465
	C97.408,1.4,84.157,0.619,68.918,4.27z"/>
<path fill="#5D2BBC" d="M52.092,26.571c8.787-6.989,19.433-11.098,31.056-11.083c3.743-0.004,7.38,0.433,10.892,1.242l-1.602-6.358
	c-0.669-2.792-10.59-2.808-22.16-0.036c-11.57,2.772-20.408,7.281-19.739,10.073l1.066,4.233L52.092,26.571z"/>
<path fill="#D2F1F9" d="M58.799,178.693c0,1.441,1.27,2.611,2.834,2.611h73.909c1.565,0,2.835-1.17,2.835-2.611V122.25
	c0-1.441-1.27-2.611-2.835-2.611H61.633c-1.564,0-2.834,1.17-2.834,2.611V178.693z"/>
<path fill="#FFFFFF" d="M58.799,178.25c0-1.441,38.27-32.611,39.834-32.611h0.909c1.565,0,38.835,31.17,38.835,32.611v0.443
	c0,1.441-1.27,2.611-2.835,2.611H61.633c-1.564,0-2.834-1.17-2.834-2.611V178.25z"/>
<radialGradient id="SVGID_2_" cx="98.5879" cy="139.4717" r="30.8317" gradientUnits="userSpaceOnUse">
	<stop  offset="0" style="stop-color:#ACD7DF"/>
	<stop  offset="1" style="stop-color:#4695AC"/>
</radialGradient>
<path opacity="0.4" fill="url(#SVGID_2_)" d="M58.799,134.693c0,1.441,38.27,22.611,39.834,22.611h0.909
	c1.565,0,38.835-21.17,38.835-22.611V124.25c0-1.441-1.27-2.611-2.835-2.611H61.633c-1.564,0-2.834,1.17-2.834,2.611V134.693z"/>
<path fill="#FFFFFF" d="M58.799,132.693c0,1.441,38.27,22.611,39.834,22.611h0.909c1.565,0,38.835-21.17,38.835-22.611V122.25
	c0-1.441-1.27-2.611-2.835-2.611H61.633c-1.564,0-2.834,1.17-2.834,2.611V132.693z"/>
<g>
	<defs>
		<path id="SVGID_3_" d="M132.184,121.805H64.521c-2.114,0-3.835,1.721-3.835,3.835v49.663c0,2.114,1.721,3.835,3.835,3.835h67.663
			c2.114,0,3.835-1.721,3.835-3.835V125.64C136.019,123.525,134.298,121.805,132.184,121.805z M134.019,175.303
			c0,1.012-0.823,1.835-1.835,1.835H64.521c-1.012,0-1.835-0.823-1.835-1.835V125.64c0-1.012,0.823-1.835,1.835-1.835h67.663
			c1.012,0,1.835,0.823,1.835,1.835V175.303z"/>
	</defs>
	<clipPath id="SVGID_4_">
		<use xlink:href="#SVGID_3_"  overflow="visible"/>
	</clipPath>
	<g clip-path="url(#SVGID_4_)">
		<g>
			
				<rect x="97.492" y="31.837" transform="matrix(0.7071 0.7071 -0.7071 0.7071 91.0526 -43.878)" fill="#27AAE1" width="2" height="112.268"/>
		</g>
		<g>
			
				<rect x="97.492" y="36.837" transform="matrix(0.7071 0.7071 -0.7071 0.7071 94.5881 -42.4135)" fill="#EF4136" width="2" height="112.268"/>
		</g>
		<g>
			
				<rect x="97.492" y="41.837" transform="matrix(0.7071 0.7071 -0.7071 0.7071 98.1236 -40.9491)" fill="#27AAE1" width="2" height="112.268"/>
		</g>
		<g>
			
				<rect x="97.492" y="46.837" transform="matrix(0.7071 0.7071 -0.7071 0.7071 101.6592 -39.4846)" fill="#EF4136" width="2" height="112.268"/>
		</g>
		<g>
			
				<rect x="97.492" y="51.837" transform="matrix(0.7071 0.7071 -0.7071 0.7071 105.1947 -38.0201)" fill="#27AAE1" width="2" height="112.268"/>
		</g>
		<g>
			
				<rect x="97.492" y="56.837" transform="matrix(0.7071 0.7071 -0.7071 0.7071 108.7302 -36.5556)" fill="#EF4136" width="2" height="112.268"/>
		</g>
		<g>
			
				<rect x="97.492" y="61.837" transform="matrix(0.7071 0.7071 -0.7071 0.7071 112.2658 -35.0912)" fill="#27AAE1" width="2" height="112.268"/>
		</g>
		<g>
			
				<rect x="97.492" y="66.837" transform="matrix(0.7071 0.7071 -0.7071 0.7071 115.8013 -33.6267)" fill="#EF4136" width="2" height="112.268"/>
		</g>
		<g>
			
				<rect x="97.492" y="71.837" transform="matrix(0.7071 0.7071 -0.7071 0.7071 119.3368 -32.1623)" fill="#27AAE1" width="2" height="112.268"/>
		</g>
		<g>
			
				<rect x="97.492" y="76.837" transform="matrix(0.7071 0.7071 -0.7071 0.7071 122.8724 -30.6978)" fill="#EF4136" width="2" height="112.268"/>
		</g>
		<g>
			
				<rect x="97.492" y="81.837" transform="matrix(0.7071 0.7071 -0.7071 0.7071 126.4079 -29.2333)" fill="#27AAE1" width="2" height="112.268"/>
		</g>
		<g>
			
				<rect x="97.492" y="86.837" transform="matrix(0.7071 0.7071 -0.7071 0.7071 129.9435 -27.7689)" fill="#EF4136" width="2" height="112.268"/>
		</g>
		<g>
			
				<rect x="97.492" y="91.837" transform="matrix(0.7071 0.7071 -0.7071 0.7071 133.479 -26.3044)" fill="#27AAE1" width="2" height="112.268"/>
		</g>
		<g>
			
				<rect x="97.492" y="96.837" transform="matrix(0.7071 0.7071 -0.7071 0.7071 137.0145 -24.8399)" fill="#EF4136" width="2" height="112.268"/>
		</g>
		<g>
			
				<rect x="97.492" y="101.837" transform="matrix(0.7071 0.7071 -0.7071 0.7071 140.55 -23.3755)" fill="#27AAE1" width="2" height="112.268"/>
		</g>
		<g>
			
				<rect x="97.492" y="106.837" transform="matrix(0.7071 0.7071 -0.7071 0.7071 144.0856 -21.911)" fill="#EF4136" width="2" height="112.268"/>
		</g>
		<g>
			
				<rect x="97.492" y="111.837" transform="matrix(0.7071 0.7071 -0.7071 0.7071 147.6211 -20.4465)" fill="#27AAE1" width="2" height="112.268"/>
		</g>
		<g>
			
				<rect x="97.492" y="116.837" transform="matrix(0.7071 0.7071 -0.7071 0.7071 151.1566 -18.9821)" fill="#EF4136" width="2" height="112.268"/>
		</g>
		<g>
			
				<rect x="97.492" y="121.837" transform="matrix(0.7071 0.7071 -0.7071 0.7071 154.6922 -17.5176)" fill="#27AAE1" width="2" height="112.268"/>
		</g>
		<g>
			
				<rect x="97.492" y="126.837" transform="matrix(0.7071 0.7071 -0.7071 0.7071 158.2277 -16.0531)" fill="#EF4136" width="2" height="112.268"/>
		</g>
		<g>
			
				<rect x="97.492" y="131.837" transform="matrix(0.7071 0.7071 -0.7071 0.7071 161.7632 -14.5887)" fill="#27AAE1" width="2" height="112.268"/>
		</g>
		<g>
			
				<rect x="97.492" y="136.837" transform="matrix(0.7071 0.7071 -0.7071 0.7071 165.2988 -13.1242)" fill="#EF4136" width="2" height="112.268"/>
		</g>
		<g>
			
				<rect x="97.492" y="141.837" transform="matrix(0.7071 0.7071 -0.7071 0.7071 168.8343 -11.6597)" fill="#27AAE1" width="2" height="112.268"/>
		</g>
		<g>
			
				<rect x="97.492" y="146.837" transform="matrix(0.7071 0.7071 -0.7071 0.7071 172.3699 -10.1953)" fill="#EF4136" width="2" height="112.268"/>
		</g>
		<g>
			
				<rect x="97.492" y="151.837" transform="matrix(0.7071 0.7071 -0.7071 0.7071 175.9054 -8.7308)" fill="#27AAE1" width="2" height="112.268"/>
		</g>
		<g>
			
				<rect x="97.492" y="156.837" transform="matrix(0.7071 0.7071 -0.7071 0.7071 179.4409 -7.2663)" fill="#EF4136" width="2" height="112.268"/>
		</g>
	</g>
</g>
<path fill="#FFB600" d="M81.667,13.356c8.083,0,11.829,1.215,11.829,1.215l0.544,2.159c0,0-3.767-1.226-12.237-1.226
	c-16.72,0-29.711,11.066-29.711,11.066l-0.486-1.929C51.606,24.643,65.375,13.356,81.667,13.356z"/>
<path fill="none" stroke="#3A2384" stroke-width="8" stroke-linecap="round" stroke-miterlimit="10" d="M66.571,149.306
	c0,0-40.821,8.635-44.946-11.032c-1.2-5.72,0.331-9.919,2.511-12.835"/>
<path fill="#1D0E59" d="M17.417,131.69c0,0,1.205-1.251,3.787-0.375s3.796,2.707,3.921,2.916c0,0,0.104-2.209,0.458-2.854
	l-5.938-6.333C19.646,125.044,17.834,128.087,17.417,131.69z"/>
<path fill="none" stroke="#3A2384" stroke-width="8" stroke-linecap="round" stroke-miterlimit="10" d="M66.571,126.306
	c0,0-40.405,13.885-44.946-6.032c-2.879-12.627,8.625-18,8.625-18"/>
<rect x="88.828" y="165.086" opacity="0.4" fill="#86BDCC" width="20.385" height="1.5"/>
<rect x="86.25" y="168.086" opacity="0.4" fill="#86BDCC" width="25.541" height="1.5"/>
<g>
	<polygon opacity="0.4" fill="#61A5B9" points="108.916,151.789 108.027,153.102 108.517,154.616 107.3,155.618 107.346,157.208 
		105.896,157.823 105.501,159.365 103.941,159.542 103.134,160.908 101.587,160.632 100.43,161.71 99.021,161.003 97.613,161.709 
		96.457,160.632 94.908,160.904 94.101,159.541 92.542,159.361 92.146,157.821 90.695,157.208 90.745,155.615 89.525,154.612 
		90.016,153.102 89.125,151.789 90.016,150.476 89.526,148.961 90.745,147.959 90.696,146.367 92.147,145.751 92.544,144.212 
		94.104,144.034 94.91,142.67 96.458,142.946 97.613,141.868 99.021,142.574 100.43,141.868 101.588,142.946 103.135,142.67 
		103.941,144.037 105.501,144.215 105.897,145.754 107.346,146.369 107.3,147.96 108.519,148.962 108.027,150.477 	"/>
	<polygon fill="#FFB600" points="108.916,151.102 108.027,152.397 108.518,153.893 107.3,154.883 107.346,156.452 105.896,157.06 
		105.502,158.582 103.941,158.757 103.134,160.105 101.587,159.833 100.43,160.897 99.021,160.199 97.613,160.896 96.457,159.833 
		94.908,160.103 94.101,158.756 92.541,158.578 92.146,157.059 90.695,156.452 90.744,154.879 89.524,153.89 90.016,152.397 
		89.125,151.102 90.016,149.805 89.525,148.31 90.744,147.319 90.696,145.748 92.146,145.14 92.543,143.62 94.104,143.444 
		94.91,142.098 96.458,142.37 97.613,141.306 99.021,142.003 100.43,141.306 101.588,142.37 103.135,142.098 103.941,143.447 
		105.502,143.623 105.897,145.144 107.346,145.75 107.3,147.321 108.52,148.311 108.027,149.806 	"/>
	<circle fill="#FFDE17" cx="99.021" cy="151.102" r="7.386"/>
	<circle fill="#8DC63F" cx="99.021" cy="151.102" r="5.367"/>
</g>
<polygon fill="#FFB600" points="78.841,13.69 80.77,10.148 83.047,13.356 "/>
</svg>
